%TF.GenerationSoftware,KiCad,Pcbnew,7.0.7*%
%TF.CreationDate,2024-01-07T22:57:32-05:00*%
%TF.ProjectId,ESP32-C3_hat,45535033-322d-4433-935f-6861742e6b69,rev?*%
%TF.SameCoordinates,Original*%
%TF.FileFunction,Copper,L2,Bot*%
%TF.FilePolarity,Positive*%
%FSLAX46Y46*%
G04 Gerber Fmt 4.6, Leading zero omitted, Abs format (unit mm)*
G04 Created by KiCad (PCBNEW 7.0.7) date 2024-01-07 22:57:32*
%MOMM*%
%LPD*%
G01*
G04 APERTURE LIST*
G04 Aperture macros list*
%AMRoundRect*
0 Rectangle with rounded corners*
0 $1 Rounding radius*
0 $2 $3 $4 $5 $6 $7 $8 $9 X,Y pos of 4 corners*
0 Add a 4 corners polygon primitive as box body*
4,1,4,$2,$3,$4,$5,$6,$7,$8,$9,$2,$3,0*
0 Add four circle primitives for the rounded corners*
1,1,$1+$1,$2,$3*
1,1,$1+$1,$4,$5*
1,1,$1+$1,$6,$7*
1,1,$1+$1,$8,$9*
0 Add four rect primitives between the rounded corners*
20,1,$1+$1,$2,$3,$4,$5,0*
20,1,$1+$1,$4,$5,$6,$7,0*
20,1,$1+$1,$6,$7,$8,$9,0*
20,1,$1+$1,$8,$9,$2,$3,0*%
G04 Aperture macros list end*
%TA.AperFunction,ComponentPad*%
%ADD10C,3.000000*%
%TD*%
%TA.AperFunction,SMDPad,CuDef*%
%ADD11RoundRect,0.250000X-0.475000X0.337500X-0.475000X-0.337500X0.475000X-0.337500X0.475000X0.337500X0*%
%TD*%
%TA.AperFunction,SMDPad,CuDef*%
%ADD12RoundRect,0.250000X0.400000X0.625000X-0.400000X0.625000X-0.400000X-0.625000X0.400000X-0.625000X0*%
%TD*%
%TA.AperFunction,SMDPad,CuDef*%
%ADD13RoundRect,0.250000X-0.625000X0.400000X-0.625000X-0.400000X0.625000X-0.400000X0.625000X0.400000X0*%
%TD*%
%TA.AperFunction,SMDPad,CuDef*%
%ADD14RoundRect,0.237500X-0.250000X-0.237500X0.250000X-0.237500X0.250000X0.237500X-0.250000X0.237500X0*%
%TD*%
%TA.AperFunction,SMDPad,CuDef*%
%ADD15RoundRect,0.150000X0.587500X0.150000X-0.587500X0.150000X-0.587500X-0.150000X0.587500X-0.150000X0*%
%TD*%
%TA.AperFunction,SMDPad,CuDef*%
%ADD16RoundRect,0.250000X-0.400000X-0.625000X0.400000X-0.625000X0.400000X0.625000X-0.400000X0.625000X0*%
%TD*%
%TA.AperFunction,ComponentPad*%
%ADD17C,2.000000*%
%TD*%
%TA.AperFunction,ComponentPad*%
%ADD18R,3.200000X2.000000*%
%TD*%
%TA.AperFunction,ComponentPad*%
%ADD19R,2.000000X2.000000*%
%TD*%
%TA.AperFunction,ComponentPad*%
%ADD20O,1.700000X1.700000*%
%TD*%
%TA.AperFunction,ComponentPad*%
%ADD21R,1.700000X1.700000*%
%TD*%
%TA.AperFunction,ViaPad*%
%ADD22C,0.600000*%
%TD*%
%TA.AperFunction,Conductor*%
%ADD23C,0.500000*%
%TD*%
%TA.AperFunction,Conductor*%
%ADD24C,1.000000*%
%TD*%
%TA.AperFunction,Conductor*%
%ADD25C,0.250000*%
%TD*%
G04 APERTURE END LIST*
D10*
%TO.P,J5,1,Pin_1*%
%TO.N,GND*%
X29006800Y-43434000D03*
%TD*%
%TO.P,J4,1,Pin_1*%
%TO.N,+5V*%
X29006800Y-33832800D03*
%TD*%
%TO.P,J3,1,Pin_1*%
%TO.N,Net-(J3-Pin_1)*%
X29006800Y-38608000D03*
%TD*%
D11*
%TO.P,C2,2*%
%TO.N,GND*%
X32715200Y-39645500D03*
%TO.P,C2,1*%
%TO.N,+5V*%
X32715200Y-37570500D03*
%TD*%
D12*
%TO.P,R4,1*%
%TO.N,+3.3V*%
X57119600Y-59688800D03*
%TO.P,R4,2*%
%TO.N,/BTN2*%
X54019600Y-59688800D03*
%TD*%
%TO.P,R6,1*%
%TO.N,+3.3V*%
X63856800Y-59690000D03*
%TO.P,R6,2*%
%TO.N,/BTN3*%
X60756800Y-59690000D03*
%TD*%
D13*
%TO.P,R7,1*%
%TO.N,+3.3V*%
X42991650Y-56792000D03*
%TO.P,R7,2*%
%TO.N,/ENC1B*%
X42991650Y-59892000D03*
%TD*%
D14*
%TO.P,R9,2*%
%TO.N,GND*%
X52893850Y-50341600D03*
%TO.P,R9,1*%
%TO.N,Net-(D1-LEDA)*%
X51068850Y-50341600D03*
%TD*%
D15*
%TO.P,Q1,3,D*%
%TO.N,+3.3V*%
X47106450Y-49376400D03*
%TO.P,Q1,2,S*%
%TO.N,Net-(D1-LEDA)*%
X48981450Y-50326400D03*
%TO.P,Q1,1,G*%
%TO.N,/TFT_ON*%
X48981450Y-48426400D03*
%TD*%
D16*
%TO.P,R1,2*%
%TO.N,/TFT_ON*%
X44871250Y-48411200D03*
%TO.P,R1,1*%
%TO.N,+3.3V*%
X41771250Y-48411200D03*
%TD*%
D12*
%TO.P,R8,1*%
%TO.N,+3.3V*%
X50293200Y-59690000D03*
%TO.P,R8,2*%
%TO.N,/BTN1*%
X47193200Y-59690000D03*
%TD*%
D13*
%TO.P,R5,2*%
%TO.N,/ENC1A*%
X39740450Y-67258000D03*
%TO.P,R5,1*%
%TO.N,+3.3V*%
X39740450Y-64158000D03*
%TD*%
D17*
%TO.P,SW1,S2,S2*%
%TO.N,GND*%
X28477250Y-67319600D03*
%TO.P,SW1,S1,S1*%
%TO.N,/SW1*%
X28477250Y-62319600D03*
D18*
%TO.P,SW1,MP*%
%TO.N,N/C*%
X35477250Y-59219600D03*
X35477250Y-70419600D03*
D17*
%TO.P,SW1,C,C*%
%TO.N,GND*%
X42977250Y-64819600D03*
%TO.P,SW1,B,B*%
%TO.N,/ENC1B*%
X42977250Y-62319600D03*
D19*
%TO.P,SW1,A,A*%
%TO.N,/ENC1A*%
X42977250Y-67319600D03*
%TD*%
D13*
%TO.P,R2,2*%
%TO.N,/SW1*%
X28513650Y-58928000D03*
%TO.P,R2,1*%
%TO.N,+3.3V*%
X28513650Y-55828000D03*
%TD*%
D20*
%TO.P,J1,8,Pin_8*%
%TO.N,+5V*%
X56758450Y-30162400D03*
%TO.P,J1,7,Pin_7*%
%TO.N,GND*%
X54218450Y-30162400D03*
%TO.P,J1,6,Pin_6*%
%TO.N,+3.3V*%
X51678450Y-30162400D03*
%TO.P,J1,5,Pin_5*%
%TO.N,/BTN3*%
X49138450Y-30162400D03*
%TO.P,J1,4,Pin_4*%
%TO.N,/Neo_In*%
X46598450Y-30162400D03*
%TO.P,J1,3,Pin_3*%
%TO.N,/BTN2*%
X44058450Y-30162400D03*
%TO.P,J1,2,Pin_2*%
%TO.N,/ENC1B*%
X41518450Y-30162400D03*
D21*
%TO.P,J1,1,Pin_1*%
%TO.N,/ENC1A*%
X38978450Y-30162400D03*
%TD*%
D20*
%TO.P,J2,8,Pin_8*%
%TO.N,/DRVR_ON*%
X56758450Y-45261600D03*
%TO.P,J2,7,Pin_7*%
%TO.N,/SCLK*%
X54218450Y-45261600D03*
%TO.P,J2,6,Pin_6*%
%TO.N,/MOSI*%
X51678450Y-45261600D03*
%TO.P,J2,5,Pin_5*%
%TO.N,/RST*%
X49138450Y-45261600D03*
%TO.P,J2,4,Pin_4*%
%TO.N,/D{slash}C*%
X46598450Y-45261600D03*
%TO.P,J2,3,Pin_3*%
%TO.N,/TFT_ON*%
X44058450Y-45261600D03*
%TO.P,J2,2,Pin_2*%
%TO.N,/BTN1*%
X41518450Y-45261600D03*
D21*
%TO.P,J2,1,Pin_1*%
%TO.N,/SW1*%
X38978450Y-45261600D03*
%TD*%
D22*
%TO.N,+3.3V*%
X41706800Y-40792400D03*
%TO.N,/ENC1B*%
X40233600Y-57759600D03*
X35915600Y-50495200D03*
%TO.N,+5V*%
X38760400Y-39573200D03*
%TO.N,/BTN3*%
X59486800Y-59690000D03*
%TO.N,/BTN2*%
X52730400Y-59690000D03*
%TO.N,/BTN1*%
X45923200Y-59690000D03*
%TO.N,/D{slash}C*%
X44754800Y-50444400D03*
X48260000Y-55778400D03*
%TO.N,+3.3V*%
X49936400Y-51663600D03*
%TO.N,GND*%
X53949600Y-50698400D03*
X53949600Y-50038000D03*
%TO.N,Net-(D1-LEDA)*%
X51054000Y-51663600D03*
%TD*%
D23*
%TO.N,+3.3V*%
X48107600Y-51663600D02*
X49936400Y-51663600D01*
%TO.N,/BTN3*%
X60858400Y-59588400D02*
X60756800Y-59690000D01*
X60858400Y-57810400D02*
X60858400Y-59588400D01*
X62026800Y-56642000D02*
X60858400Y-57810400D01*
X62026800Y-41960800D02*
X62026800Y-56642000D01*
X59131200Y-39065200D02*
X62026800Y-41960800D01*
X54000400Y-39065200D02*
X59131200Y-39065200D01*
X52171600Y-37236400D02*
X54000400Y-39065200D01*
X52171600Y-35610800D02*
X52171600Y-37236400D01*
X49138450Y-32577650D02*
X52171600Y-35610800D01*
X49138450Y-30162400D02*
X49138450Y-32577650D01*
%TO.N,/BTN2*%
X54019600Y-57791200D02*
X54019600Y-59688800D01*
X59842400Y-51968400D02*
X54019600Y-57791200D01*
X59842400Y-43078400D02*
X59842400Y-51968400D01*
X58013600Y-41249600D02*
X59842400Y-43078400D01*
X52120800Y-41249600D02*
X58013600Y-41249600D01*
X48361600Y-37490400D02*
X52120800Y-41249600D01*
X48361600Y-35864800D02*
X48361600Y-37490400D01*
X44058450Y-31561650D02*
X48361600Y-35864800D01*
X44058450Y-30162400D02*
X44058450Y-31561650D01*
%TO.N,/ENC1B*%
X41197600Y-59892000D02*
X42991650Y-59892000D01*
X40233600Y-58928000D02*
X41197600Y-59892000D01*
X40233600Y-57759600D02*
X40233600Y-58928000D01*
X35915600Y-44399200D02*
X35915600Y-50495200D01*
X37084000Y-43230800D02*
X35915600Y-44399200D01*
X45923200Y-41249600D02*
X43942000Y-43230800D01*
X46177200Y-40995600D02*
X45923200Y-41249600D01*
X46177200Y-37033200D02*
X46177200Y-40995600D01*
X41518450Y-32374450D02*
X46177200Y-37033200D01*
X43942000Y-43230800D02*
X37084000Y-43230800D01*
X41518450Y-30162400D02*
X41518450Y-32374450D01*
%TO.N,/ENC1A*%
X36473200Y-67258000D02*
X39740450Y-67258000D01*
X33832800Y-64617600D02*
X36473200Y-67258000D01*
X27381200Y-64617600D02*
X33832800Y-64617600D01*
X25806400Y-63042800D02*
X27381200Y-64617600D01*
X25806400Y-52781200D02*
X25806400Y-63042800D01*
X36474400Y-42113200D02*
X25806400Y-52781200D01*
X42672000Y-42113200D02*
X36474400Y-42113200D01*
X44246800Y-40538400D02*
X42672000Y-42113200D01*
X44246800Y-37846000D02*
X44246800Y-40538400D01*
X38978450Y-32577650D02*
X44246800Y-37846000D01*
X38978450Y-30162400D02*
X38978450Y-32577650D01*
%TO.N,/SW1*%
X30530800Y-58928000D02*
X28513650Y-58928000D01*
X38978450Y-45261600D02*
X38978450Y-50480350D01*
X38978450Y-50480350D02*
X30530800Y-58928000D01*
%TO.N,+5V*%
X38760400Y-39573200D02*
X36757700Y-37570500D01*
X36757700Y-37570500D02*
X32715200Y-37570500D01*
D24*
X29006800Y-33832800D02*
X29006800Y-33862100D01*
X29006800Y-33862100D02*
X32715200Y-37570500D01*
%TO.N,GND*%
X29006800Y-43353900D02*
X32715200Y-39645500D01*
X29006800Y-43434000D02*
X29006800Y-43353900D01*
%TO.N,+5V*%
X29006800Y-31800800D02*
X29006800Y-33832800D01*
X34391600Y-26416000D02*
X29006800Y-31800800D01*
X56758450Y-28462850D02*
X54711600Y-26416000D01*
X56758450Y-30162400D02*
X56758450Y-28462850D01*
X54711600Y-26416000D02*
X34391600Y-26416000D01*
D23*
%TO.N,/BTN1*%
X47193200Y-59690000D02*
X45923200Y-59690000D01*
%TO.N,/BTN3*%
X60756800Y-59690000D02*
X59486800Y-59690000D01*
%TO.N,/BTN2*%
X52731600Y-59688800D02*
X52730400Y-59690000D01*
X54019600Y-59688800D02*
X52731600Y-59688800D01*
%TO.N,GND*%
X53949600Y-50038000D02*
X53949600Y-50698400D01*
X53949600Y-50645200D02*
X53646000Y-50341600D01*
X53949600Y-50698400D02*
X53949600Y-50645200D01*
X53646000Y-50341600D02*
X53949600Y-50038000D01*
X52893850Y-50341600D02*
X53646000Y-50341600D01*
%TO.N,/TFT_ON*%
X44871250Y-46649250D02*
X44871250Y-48411200D01*
X44058450Y-45836450D02*
X44871250Y-46649250D01*
X44058450Y-45261600D02*
X44058450Y-45836450D01*
D25*
%TO.N,/D{slash}C*%
X44754800Y-54762400D02*
X44754800Y-50444400D01*
X45770800Y-55778400D02*
X44754800Y-54762400D01*
X48260000Y-55778400D02*
X45770800Y-55778400D01*
D23*
%TO.N,+3.3V*%
X47106450Y-50662450D02*
X48107600Y-51663600D01*
X47106450Y-49376400D02*
X47106450Y-50662450D01*
%TO.N,Net-(D1-LEDA)*%
X51054000Y-50356450D02*
X51068850Y-50341600D01*
X51054000Y-51663600D02*
X51054000Y-50356450D01*
X51053650Y-50326400D02*
X51068850Y-50341600D01*
X48981450Y-50326400D02*
X51053650Y-50326400D01*
%TO.N,/TFT_ON*%
X48966250Y-48411200D02*
X48981450Y-48426400D01*
X44871250Y-48411200D02*
X48966250Y-48411200D01*
D24*
%TO.N,/ENC1B*%
X42991650Y-62305200D02*
X42977250Y-62319600D01*
X42991650Y-59892000D02*
X42991650Y-62305200D01*
%TO.N,/ENC1A*%
X42915650Y-67258000D02*
X42977250Y-67319600D01*
X39740450Y-67258000D02*
X42915650Y-67258000D01*
%TO.N,/SW1*%
X28513650Y-58928000D02*
X28513650Y-62283200D01*
X28513650Y-62283200D02*
X28477250Y-62319600D01*
%TD*%
%TA.AperFunction,Conductor*%
%TO.N,+3.3V*%
G36*
X64822929Y-24975391D02*
G01*
X64933660Y-24981768D01*
X65115555Y-24993052D01*
X65123697Y-24994012D01*
X65260382Y-25017838D01*
X65414577Y-25046832D01*
X65421932Y-25048605D01*
X65560042Y-25089464D01*
X65705068Y-25135882D01*
X65711501Y-25138275D01*
X65846223Y-25195663D01*
X65982781Y-25258900D01*
X65988340Y-25261764D01*
X66048140Y-25295824D01*
X66116741Y-25334897D01*
X66243880Y-25414178D01*
X66248497Y-25417304D01*
X66366883Y-25504131D01*
X66369754Y-25506346D01*
X66484602Y-25599501D01*
X66488289Y-25602700D01*
X66596119Y-25702723D01*
X66599166Y-25705717D01*
X66701521Y-25812248D01*
X66704386Y-25815408D01*
X66799992Y-25927117D01*
X66803081Y-25930978D01*
X66891551Y-26049432D01*
X66893650Y-26052389D01*
X66932500Y-26110059D01*
X66975677Y-26174152D01*
X66978619Y-26178895D01*
X67034961Y-26277849D01*
X67052758Y-26309106D01*
X67120694Y-26440315D01*
X67123338Y-26445994D01*
X67151557Y-26513929D01*
X67180965Y-26584728D01*
X67181074Y-26584989D01*
X67233013Y-26721851D01*
X67235165Y-26728426D01*
X67245790Y-26766847D01*
X67275741Y-26875160D01*
X67311044Y-27014783D01*
X67312526Y-27022220D01*
X67335339Y-27177484D01*
X67353675Y-27314949D01*
X67354311Y-27323168D01*
X67358320Y-27505556D01*
X67360262Y-27616234D01*
X67360214Y-27620518D01*
X67358464Y-27664253D01*
X67360245Y-27678957D01*
X67320355Y-72429459D01*
X67320300Y-72429663D01*
X67320300Y-72489350D01*
X67320164Y-72493849D01*
X67314317Y-72590499D01*
X67300765Y-72797263D01*
X67299703Y-72805826D01*
X67274967Y-72940809D01*
X67241992Y-73106588D01*
X67240048Y-73114223D01*
X67196879Y-73252757D01*
X67144835Y-73406071D01*
X67142224Y-73412702D01*
X67081291Y-73548092D01*
X67010836Y-73690957D01*
X67007774Y-73696550D01*
X66930878Y-73823752D01*
X66929066Y-73826601D01*
X66842075Y-73956792D01*
X66838775Y-73961348D01*
X66746695Y-74078881D01*
X66744061Y-74082058D01*
X66641185Y-74199365D01*
X66637852Y-74202924D01*
X66532124Y-74308652D01*
X66528565Y-74311985D01*
X66411258Y-74414861D01*
X66408081Y-74417495D01*
X66290548Y-74509575D01*
X66285992Y-74512875D01*
X66155801Y-74599866D01*
X66152952Y-74601678D01*
X66025750Y-74678574D01*
X66020157Y-74681636D01*
X65877292Y-74752091D01*
X65741902Y-74813024D01*
X65735271Y-74815635D01*
X65581957Y-74867679D01*
X65443423Y-74910848D01*
X65435788Y-74912792D01*
X65270009Y-74945767D01*
X65135026Y-74970503D01*
X65126463Y-74971565D01*
X64919699Y-74985117D01*
X64827696Y-74990682D01*
X64823047Y-74990964D01*
X64818550Y-74991100D01*
X27485050Y-74991100D01*
X27480552Y-74990964D01*
X27475522Y-74990659D01*
X27383900Y-74985117D01*
X27177135Y-74971565D01*
X27168572Y-74970503D01*
X27033590Y-74945767D01*
X26867803Y-74912790D01*
X26860175Y-74910848D01*
X26721642Y-74867679D01*
X26568327Y-74815635D01*
X26561696Y-74813024D01*
X26426307Y-74752091D01*
X26283441Y-74681636D01*
X26277849Y-74678574D01*
X26150646Y-74601678D01*
X26147797Y-74599866D01*
X26017606Y-74512875D01*
X26013050Y-74509575D01*
X25895517Y-74417495D01*
X25892340Y-74414861D01*
X25775033Y-74311985D01*
X25771474Y-74308652D01*
X25665746Y-74202924D01*
X25662413Y-74199365D01*
X25559537Y-74082058D01*
X25556914Y-74078894D01*
X25464823Y-73961348D01*
X25461523Y-73956792D01*
X25374532Y-73826601D01*
X25372720Y-73823752D01*
X25295824Y-73696549D01*
X25292762Y-73690956D01*
X25244382Y-73592853D01*
X25222308Y-73548092D01*
X25161371Y-73412695D01*
X25158763Y-73406070D01*
X25106720Y-73252757D01*
X25100354Y-73232328D01*
X25063544Y-73114203D01*
X25061613Y-73106618D01*
X25028631Y-72940803D01*
X25003891Y-72805800D01*
X25002835Y-72797286D01*
X24989282Y-72590499D01*
X24983435Y-72493846D01*
X24983300Y-72489351D01*
X24983300Y-72457604D01*
X26377585Y-72457604D01*
X26396402Y-72660678D01*
X26396402Y-72660680D01*
X26396403Y-72660683D01*
X26406077Y-72694683D01*
X26452216Y-72856845D01*
X26452217Y-72856847D01*
X26452218Y-72856850D01*
X26495191Y-72943151D01*
X26543128Y-73039423D01*
X26610640Y-73128823D01*
X26666036Y-73202179D01*
X26769934Y-73296894D01*
X26816758Y-73339580D01*
X26816763Y-73339584D01*
X26990158Y-73446945D01*
X26990167Y-73446950D01*
X27000108Y-73450800D01*
X27021287Y-73459005D01*
X27024562Y-73460387D01*
X27024803Y-73460470D01*
X27024804Y-73460471D01*
X27025605Y-73460748D01*
X27027305Y-73461337D01*
X27041967Y-73467017D01*
X27180344Y-73520624D01*
X27212920Y-73526713D01*
X27216735Y-73527533D01*
X27222865Y-73529020D01*
X27222875Y-73529024D01*
X27231456Y-73530257D01*
X27233293Y-73530522D01*
X27293428Y-73541763D01*
X27380824Y-73558100D01*
X27380827Y-73558100D01*
X27414450Y-73558100D01*
X27423211Y-73558726D01*
X27423222Y-73558513D01*
X27427311Y-73558707D01*
X27428112Y-73558962D01*
X27444450Y-73558184D01*
X27447998Y-73558100D01*
X27584774Y-73558100D01*
X27584776Y-73558100D01*
X27621089Y-73551312D01*
X27628376Y-73551874D01*
X27653926Y-73548200D01*
X27693793Y-73546299D01*
X27728041Y-73531319D01*
X27785256Y-73520624D01*
X27818456Y-73507762D01*
X27827316Y-73506803D01*
X27830439Y-73505377D01*
X27857208Y-73496112D01*
X27894087Y-73487164D01*
X27923628Y-73467018D01*
X27975437Y-73446948D01*
X28005277Y-73428471D01*
X28016019Y-73425235D01*
X28022461Y-73420648D01*
X28047001Y-73406479D01*
X28079673Y-73391558D01*
X28103789Y-73367475D01*
X28148841Y-73339581D01*
X28174883Y-73315840D01*
X28186793Y-73309678D01*
X28194960Y-73301114D01*
X28216367Y-73282565D01*
X28243989Y-73262894D01*
X28262253Y-73236191D01*
X28299564Y-73202179D01*
X28321182Y-73173552D01*
X28333442Y-73163992D01*
X28341730Y-73151096D01*
X28359246Y-73128823D01*
X28381189Y-73105810D01*
X28393483Y-73077809D01*
X28422473Y-73039421D01*
X28438921Y-73006388D01*
X28450561Y-72993216D01*
X28457453Y-72976003D01*
X28470433Y-72950826D01*
X28486478Y-72925857D01*
X28492960Y-72897863D01*
X28513382Y-72856850D01*
X28523847Y-72820067D01*
X28533878Y-72803294D01*
X28537945Y-72782194D01*
X28545928Y-72755010D01*
X28556135Y-72729515D01*
X28557244Y-72702690D01*
X28569197Y-72660683D01*
X28576111Y-72586063D01*
X28577138Y-72578856D01*
X28587764Y-72523722D01*
X28584170Y-72499088D01*
X28584864Y-72491604D01*
X63715585Y-72491604D01*
X63734402Y-72694678D01*
X63790216Y-72890845D01*
X63790217Y-72890847D01*
X63790218Y-72890850D01*
X63824579Y-72959857D01*
X63881128Y-73073423D01*
X63939784Y-73151096D01*
X64004036Y-73236179D01*
X64112460Y-73335020D01*
X64154758Y-73373580D01*
X64154763Y-73373584D01*
X64328158Y-73480945D01*
X64328167Y-73480950D01*
X64338108Y-73484800D01*
X64359287Y-73493005D01*
X64362562Y-73494387D01*
X64362803Y-73494470D01*
X64362804Y-73494471D01*
X64363605Y-73494748D01*
X64365305Y-73495337D01*
X64367306Y-73496112D01*
X64518344Y-73554624D01*
X64550920Y-73560713D01*
X64554735Y-73561533D01*
X64560865Y-73563020D01*
X64560875Y-73563024D01*
X64569456Y-73564257D01*
X64571293Y-73564522D01*
X64655694Y-73580299D01*
X64718824Y-73592100D01*
X64718827Y-73592100D01*
X64752450Y-73592100D01*
X64761211Y-73592726D01*
X64761222Y-73592513D01*
X64765311Y-73592707D01*
X64766112Y-73592962D01*
X64782450Y-73592184D01*
X64785998Y-73592100D01*
X64922774Y-73592100D01*
X64922776Y-73592100D01*
X64959089Y-73585312D01*
X64966376Y-73585874D01*
X64991926Y-73582200D01*
X65031793Y-73580299D01*
X65066041Y-73565319D01*
X65123256Y-73554624D01*
X65156456Y-73541762D01*
X65165316Y-73540803D01*
X65168439Y-73539377D01*
X65195208Y-73530112D01*
X65232087Y-73521164D01*
X65261628Y-73501018D01*
X65313437Y-73480948D01*
X65343277Y-73462471D01*
X65354019Y-73459235D01*
X65360461Y-73454648D01*
X65385001Y-73440479D01*
X65417673Y-73425558D01*
X65441789Y-73401475D01*
X65486841Y-73373581D01*
X65512883Y-73349840D01*
X65524793Y-73343678D01*
X65532960Y-73335114D01*
X65554367Y-73316565D01*
X65581989Y-73296894D01*
X65600253Y-73270191D01*
X65637564Y-73236179D01*
X65659182Y-73207552D01*
X65671442Y-73197992D01*
X65679730Y-73185096D01*
X65697246Y-73162823D01*
X65719189Y-73139810D01*
X65731483Y-73111809D01*
X65760473Y-73073421D01*
X65776921Y-73040388D01*
X65788561Y-73027216D01*
X65795453Y-73010003D01*
X65808433Y-72984826D01*
X65824478Y-72959857D01*
X65830960Y-72931863D01*
X65851382Y-72890850D01*
X65861847Y-72854067D01*
X65871878Y-72837294D01*
X65875945Y-72816194D01*
X65883928Y-72789010D01*
X65894135Y-72763515D01*
X65895244Y-72736690D01*
X65907197Y-72694683D01*
X65914111Y-72620063D01*
X65915138Y-72612856D01*
X65925764Y-72557722D01*
X65922170Y-72533088D01*
X65926015Y-72491600D01*
X65922170Y-72450109D01*
X65926092Y-72427177D01*
X65915138Y-72370343D01*
X65914111Y-72363133D01*
X65907197Y-72288517D01*
X65895244Y-72246510D01*
X65894859Y-72221489D01*
X65883927Y-72194183D01*
X65875946Y-72167003D01*
X65872129Y-72147204D01*
X65861847Y-72129131D01*
X65851382Y-72092350D01*
X65851379Y-72092345D01*
X65851378Y-72092340D01*
X65830959Y-72051334D01*
X65825647Y-72025160D01*
X65808433Y-71998373D01*
X65795453Y-71973196D01*
X65788981Y-71957031D01*
X65776923Y-71942815D01*
X65760473Y-71909779D01*
X65731480Y-71871386D01*
X65720833Y-71845113D01*
X65697246Y-71820376D01*
X65679732Y-71798106D01*
X65671953Y-71786001D01*
X65659185Y-71775651D01*
X65637564Y-71747021D01*
X65600249Y-71713004D01*
X65584111Y-71687815D01*
X65554365Y-71666632D01*
X65532962Y-71648086D01*
X65525322Y-71640074D01*
X65512883Y-71633359D01*
X65486841Y-71609619D01*
X65486836Y-71609615D01*
X65441785Y-71581721D01*
X65420246Y-71558813D01*
X65384999Y-71542717D01*
X65360464Y-71528552D01*
X65354512Y-71524313D01*
X65343281Y-71520730D01*
X65313437Y-71502252D01*
X65313433Y-71502250D01*
X65313431Y-71502249D01*
X65261620Y-71482177D01*
X65235059Y-71462754D01*
X65195210Y-71453086D01*
X65168448Y-71443824D01*
X65165722Y-71442579D01*
X65156456Y-71441437D01*
X65123261Y-71428577D01*
X65123250Y-71428575D01*
X65112791Y-71426619D01*
X65066028Y-71417878D01*
X65035065Y-71403050D01*
X64991917Y-71400995D01*
X64966869Y-71397394D01*
X64959098Y-71397889D01*
X64922778Y-71391100D01*
X64922776Y-71391100D01*
X64785917Y-71391100D01*
X64782399Y-71391016D01*
X64768341Y-71390347D01*
X64768340Y-71390347D01*
X64766220Y-71390246D01*
X64765351Y-71390490D01*
X64761266Y-71390685D01*
X64761255Y-71390470D01*
X64752450Y-71391100D01*
X64718824Y-71391100D01*
X64718821Y-71391100D01*
X64718815Y-71391101D01*
X64571443Y-71418648D01*
X64560955Y-71420155D01*
X64554726Y-71421666D01*
X64550865Y-71422495D01*
X64518345Y-71428575D01*
X64365291Y-71487868D01*
X64362559Y-71488814D01*
X64359272Y-71490200D01*
X64328157Y-71502254D01*
X64154759Y-71609619D01*
X64154758Y-71609619D01*
X64004034Y-71747023D01*
X63881128Y-71909776D01*
X63790216Y-72092354D01*
X63734402Y-72288521D01*
X63715585Y-72491595D01*
X63715585Y-72491604D01*
X28584864Y-72491604D01*
X28588015Y-72457600D01*
X28584170Y-72416109D01*
X28588092Y-72393177D01*
X28577138Y-72336343D01*
X28576111Y-72329133D01*
X28569197Y-72254517D01*
X28557244Y-72212510D01*
X28556859Y-72187489D01*
X28545927Y-72160183D01*
X28537946Y-72133003D01*
X28534129Y-72113204D01*
X28523847Y-72095131D01*
X28513382Y-72058350D01*
X28513379Y-72058345D01*
X28513378Y-72058340D01*
X28492959Y-72017334D01*
X28487647Y-71991160D01*
X28470433Y-71964373D01*
X28457453Y-71939196D01*
X28450981Y-71923031D01*
X28438923Y-71908815D01*
X28422473Y-71875779D01*
X28393480Y-71837386D01*
X28382833Y-71811113D01*
X28359246Y-71786376D01*
X28341732Y-71764106D01*
X28333953Y-71752001D01*
X28321185Y-71741651D01*
X28299564Y-71713021D01*
X28299546Y-71713005D01*
X28262250Y-71679005D01*
X28246111Y-71653815D01*
X28216365Y-71632632D01*
X28194962Y-71614086D01*
X28187322Y-71606074D01*
X28174883Y-71599359D01*
X28148841Y-71575619D01*
X28148836Y-71575615D01*
X28103785Y-71547721D01*
X28082246Y-71524813D01*
X28046999Y-71508717D01*
X28022464Y-71494552D01*
X28016512Y-71490313D01*
X28005281Y-71486730D01*
X27975437Y-71468252D01*
X27975433Y-71468250D01*
X27975431Y-71468249D01*
X27935729Y-71452868D01*
X33526750Y-71452868D01*
X33536676Y-71520993D01*
X33536676Y-71520994D01*
X33588050Y-71626081D01*
X33670768Y-71708799D01*
X33775855Y-71760173D01*
X33843981Y-71770099D01*
X33843987Y-71770099D01*
X33843990Y-71770100D01*
X33843991Y-71770100D01*
X37110509Y-71770100D01*
X37110510Y-71770100D01*
X37110513Y-71770099D01*
X37110518Y-71770099D01*
X37178643Y-71760173D01*
X37178644Y-71760173D01*
X37283731Y-71708799D01*
X37283731Y-71708798D01*
X37283733Y-71708798D01*
X37366448Y-71626083D01*
X37376230Y-71606074D01*
X37417823Y-71520994D01*
X37417823Y-71520993D01*
X37427749Y-71452868D01*
X37427750Y-71452858D01*
X37427750Y-69386341D01*
X37427749Y-69386331D01*
X37417823Y-69318206D01*
X37417823Y-69318205D01*
X37366449Y-69213118D01*
X37283731Y-69130400D01*
X37178644Y-69079026D01*
X37110518Y-69069100D01*
X37110510Y-69069100D01*
X33843990Y-69069100D01*
X33843981Y-69069100D01*
X33775856Y-69079026D01*
X33775855Y-69079026D01*
X33670768Y-69130400D01*
X33588050Y-69213118D01*
X33536676Y-69318205D01*
X33536676Y-69318206D01*
X33526750Y-69386331D01*
X33526750Y-71452868D01*
X27935729Y-71452868D01*
X27923620Y-71448177D01*
X27897059Y-71428754D01*
X27857210Y-71419086D01*
X27830448Y-71409824D01*
X27827722Y-71408579D01*
X27818456Y-71407437D01*
X27785261Y-71394577D01*
X27785250Y-71394575D01*
X27774791Y-71392619D01*
X27728028Y-71383878D01*
X27697065Y-71369050D01*
X27653917Y-71366995D01*
X27628869Y-71363394D01*
X27621098Y-71363889D01*
X27584778Y-71357100D01*
X27584776Y-71357100D01*
X27447917Y-71357100D01*
X27444399Y-71357016D01*
X27430341Y-71356347D01*
X27430340Y-71356347D01*
X27428220Y-71356246D01*
X27427351Y-71356490D01*
X27423266Y-71356685D01*
X27423255Y-71356470D01*
X27414450Y-71357100D01*
X27380824Y-71357100D01*
X27380821Y-71357100D01*
X27380815Y-71357101D01*
X27233443Y-71384648D01*
X27222955Y-71386155D01*
X27216726Y-71387666D01*
X27212865Y-71388495D01*
X27180345Y-71394575D01*
X27027291Y-71453868D01*
X27024559Y-71454814D01*
X27021272Y-71456200D01*
X26990157Y-71468254D01*
X26816759Y-71575619D01*
X26816758Y-71575619D01*
X26753421Y-71633359D01*
X26670669Y-71708798D01*
X26666034Y-71713023D01*
X26543128Y-71875776D01*
X26452216Y-72058354D01*
X26396402Y-72254521D01*
X26377585Y-72457595D01*
X26377585Y-72457604D01*
X24983300Y-72457604D01*
X24983300Y-67933000D01*
X24983300Y-67319600D01*
X27121591Y-67319600D01*
X27142187Y-67555009D01*
X27183836Y-67710448D01*
X27203347Y-67783263D01*
X27303215Y-67997430D01*
X27438755Y-68191001D01*
X27605849Y-68358095D01*
X27799420Y-68493635D01*
X28013587Y-68593503D01*
X28241842Y-68654663D01*
X28477250Y-68675259D01*
X28712658Y-68654663D01*
X28940913Y-68593503D01*
X29155080Y-68493635D01*
X29348651Y-68358095D01*
X29515745Y-68191001D01*
X29651285Y-67997430D01*
X29751153Y-67783263D01*
X29812313Y-67555008D01*
X29832909Y-67319600D01*
X29812313Y-67084192D01*
X29751153Y-66855937D01*
X29651285Y-66641771D01*
X29515745Y-66448199D01*
X29348651Y-66281105D01*
X29155080Y-66145565D01*
X28940913Y-66045697D01*
X28940911Y-66045696D01*
X28712659Y-65984537D01*
X28477250Y-65963941D01*
X28241840Y-65984537D01*
X28013590Y-66045696D01*
X28013589Y-66045696D01*
X28013587Y-66045697D01*
X27799421Y-66145565D01*
X27799418Y-66145566D01*
X27799418Y-66145567D01*
X27605846Y-66281107D01*
X27438757Y-66448196D01*
X27438754Y-66448199D01*
X27438755Y-66448199D01*
X27303215Y-66641771D01*
X27203347Y-66855937D01*
X27203346Y-66855940D01*
X27142187Y-67084190D01*
X27121591Y-67319600D01*
X24983300Y-67319600D01*
X24983300Y-63373913D01*
X25003261Y-63299417D01*
X25057799Y-63244879D01*
X25132299Y-63224917D01*
X25206799Y-63244879D01*
X25261337Y-63299417D01*
X25269956Y-63316895D01*
X25281861Y-63345636D01*
X25281863Y-63345638D01*
X25281864Y-63345641D01*
X25378118Y-63471082D01*
X25378121Y-63471084D01*
X25405736Y-63492274D01*
X25413072Y-63498707D01*
X26925291Y-65010926D01*
X26931723Y-65018261D01*
X26952916Y-65045880D01*
X26952918Y-65045882D01*
X26964813Y-65055009D01*
X27070699Y-65136259D01*
X27078357Y-65142135D01*
X27078359Y-65142137D01*
X27203043Y-65193782D01*
X27224438Y-65202644D01*
X27381200Y-65223283D01*
X27415723Y-65218737D01*
X27425454Y-65218100D01*
X33522347Y-65218100D01*
X33596847Y-65238062D01*
X33627706Y-65261741D01*
X36017292Y-67651329D01*
X36023723Y-67658662D01*
X36043912Y-67684972D01*
X36044918Y-67686282D01*
X36044922Y-67686285D01*
X36044923Y-67686286D01*
X36074667Y-67709109D01*
X36074684Y-67709123D01*
X36170358Y-67782535D01*
X36170359Y-67782536D01*
X36316438Y-67843044D01*
X36316441Y-67843044D01*
X36316443Y-67843045D01*
X36316440Y-67843045D01*
X36473197Y-67863682D01*
X36473200Y-67863682D01*
X36473201Y-67863682D01*
X36481975Y-67862526D01*
X36507717Y-67859137D01*
X36517447Y-67858500D01*
X38448964Y-67858500D01*
X38523464Y-67878462D01*
X38578002Y-67933000D01*
X38586621Y-67950478D01*
X38590913Y-67960839D01*
X38590912Y-67960839D01*
X38618990Y-67997431D01*
X38687168Y-68086282D01*
X38812609Y-68182536D01*
X38958688Y-68243044D01*
X38958691Y-68243044D01*
X38958693Y-68243045D01*
X38958690Y-68243045D01*
X39023147Y-68251530D01*
X39076089Y-68258500D01*
X40404810Y-68258499D01*
X40522212Y-68243044D01*
X40668291Y-68182536D01*
X40724651Y-68139289D01*
X40795907Y-68109775D01*
X40815355Y-68108500D01*
X41477750Y-68108500D01*
X41552250Y-68128462D01*
X41606788Y-68183000D01*
X41626750Y-68257500D01*
X41626750Y-68352868D01*
X41636676Y-68420993D01*
X41636676Y-68420994D01*
X41688050Y-68526081D01*
X41770768Y-68608799D01*
X41875855Y-68660173D01*
X41943981Y-68670099D01*
X41943987Y-68670099D01*
X41943990Y-68670100D01*
X41943991Y-68670100D01*
X44010509Y-68670100D01*
X44010510Y-68670100D01*
X44010513Y-68670099D01*
X44010518Y-68670099D01*
X44078643Y-68660173D01*
X44078644Y-68660173D01*
X44183731Y-68608799D01*
X44183731Y-68608798D01*
X44183733Y-68608798D01*
X44266448Y-68526083D01*
X44317823Y-68420993D01*
X44327750Y-68352860D01*
X44327750Y-66286340D01*
X44326987Y-66281106D01*
X44317823Y-66218206D01*
X44317823Y-66218205D01*
X44266449Y-66113118D01*
X44183731Y-66030400D01*
X44078643Y-65979026D01*
X44066209Y-65977215D01*
X43995365Y-65946721D01*
X43949260Y-65884889D01*
X43940248Y-65808290D01*
X43970742Y-65737446D01*
X43982324Y-65724421D01*
X44015745Y-65691001D01*
X44151285Y-65497430D01*
X44251153Y-65283263D01*
X44312313Y-65055008D01*
X44332909Y-64819600D01*
X44312313Y-64584192D01*
X44251153Y-64355937D01*
X44151285Y-64141771D01*
X44015745Y-63948199D01*
X43848651Y-63781105D01*
X43720899Y-63691652D01*
X43671324Y-63632570D01*
X43657931Y-63556614D01*
X43684310Y-63484137D01*
X43720899Y-63447547D01*
X43848651Y-63358095D01*
X44015745Y-63191001D01*
X44151285Y-62997430D01*
X44251153Y-62783263D01*
X44312313Y-62555008D01*
X44332909Y-62319600D01*
X44312313Y-62084192D01*
X44251153Y-61855937D01*
X44151285Y-61641771D01*
X44015745Y-61448199D01*
X43885790Y-61318243D01*
X43847226Y-61251449D01*
X43842149Y-61212885D01*
X43842149Y-61163544D01*
X43842149Y-60947211D01*
X43862111Y-60872714D01*
X43912003Y-60822821D01*
X43911743Y-60822481D01*
X43914325Y-60820499D01*
X43916649Y-60818176D01*
X43916653Y-60818174D01*
X43919488Y-60816537D01*
X43919491Y-60816536D01*
X44044932Y-60720282D01*
X44141186Y-60594841D01*
X44201694Y-60448762D01*
X44217150Y-60331361D01*
X44217149Y-59690000D01*
X45267922Y-59690000D01*
X45286963Y-59846820D01*
X45342979Y-59994522D01*
X45342980Y-59994523D01*
X45432717Y-60124530D01*
X45550960Y-60229283D01*
X45690835Y-60302696D01*
X45844215Y-60340500D01*
X45844217Y-60340500D01*
X46002182Y-60340500D01*
X46002185Y-60340500D01*
X46023294Y-60335297D01*
X46100401Y-60336849D01*
X46166407Y-60376749D01*
X46203620Y-60444306D01*
X46206675Y-60460517D01*
X46208154Y-60471757D01*
X46208155Y-60471760D01*
X46268663Y-60617840D01*
X46347270Y-60720282D01*
X46364918Y-60743282D01*
X46490359Y-60839536D01*
X46636438Y-60900044D01*
X46636441Y-60900044D01*
X46636443Y-60900045D01*
X46636440Y-60900045D01*
X46700897Y-60908530D01*
X46753839Y-60915500D01*
X47632560Y-60915499D01*
X47749962Y-60900044D01*
X47896041Y-60839536D01*
X48021482Y-60743282D01*
X48117736Y-60617841D01*
X48178244Y-60471762D01*
X48178403Y-60470560D01*
X48193700Y-60354361D01*
X48193699Y-59025643D01*
X48193699Y-59025640D01*
X48178244Y-58908238D01*
X48117736Y-58762159D01*
X48021482Y-58636718D01*
X47896041Y-58540464D01*
X47896040Y-58540463D01*
X47816144Y-58507369D01*
X47749962Y-58479956D01*
X47749960Y-58479955D01*
X47749956Y-58479954D01*
X47749959Y-58479954D01*
X47632563Y-58464500D01*
X46753843Y-58464500D01*
X46636438Y-58479956D01*
X46490359Y-58540463D01*
X46364918Y-58636717D01*
X46364917Y-58636718D01*
X46268663Y-58762159D01*
X46208154Y-58908241D01*
X46206675Y-58919482D01*
X46177159Y-58990738D01*
X46115969Y-59037691D01*
X46039500Y-59047757D01*
X46023297Y-59044703D01*
X46002185Y-59039500D01*
X45844215Y-59039500D01*
X45792274Y-59052302D01*
X45690836Y-59077303D01*
X45550960Y-59150716D01*
X45432716Y-59255470D01*
X45342979Y-59385477D01*
X45286963Y-59533179D01*
X45267922Y-59690000D01*
X44217149Y-59690000D01*
X44217149Y-59452640D01*
X44201694Y-59335238D01*
X44141186Y-59189159D01*
X44044932Y-59063718D01*
X44030055Y-59052302D01*
X43919490Y-58967463D01*
X43824221Y-58928002D01*
X43773412Y-58906956D01*
X43773410Y-58906955D01*
X43773406Y-58906954D01*
X43773409Y-58906954D01*
X43656013Y-58891500D01*
X42327293Y-58891500D01*
X42209888Y-58906956D01*
X42063809Y-58967463D01*
X41938368Y-59063717D01*
X41938367Y-59063718D01*
X41842113Y-59189160D01*
X41837821Y-59199522D01*
X41790868Y-59260711D01*
X41719610Y-59290226D01*
X41700164Y-59291500D01*
X41508053Y-59291500D01*
X41433553Y-59271538D01*
X41402694Y-59247859D01*
X40877741Y-58722906D01*
X40839177Y-58656111D01*
X40834100Y-58617547D01*
X40834100Y-58037952D01*
X40843783Y-57985115D01*
X40859773Y-57942954D01*
X40869837Y-57916418D01*
X40888878Y-57759600D01*
X40869837Y-57602782D01*
X40813820Y-57455077D01*
X40724083Y-57325070D01*
X40605840Y-57220317D01*
X40605839Y-57220316D01*
X40465963Y-57146903D01*
X40388191Y-57127734D01*
X40312585Y-57109100D01*
X40154615Y-57109100D01*
X40093959Y-57124050D01*
X40001236Y-57146903D01*
X39861360Y-57220316D01*
X39743116Y-57325070D01*
X39653379Y-57455077D01*
X39597363Y-57602779D01*
X39578322Y-57759600D01*
X39597363Y-57916419D01*
X39623417Y-57985115D01*
X39633100Y-58037952D01*
X39633100Y-58883752D01*
X39632462Y-58893481D01*
X39630678Y-58907038D01*
X39627918Y-58927999D01*
X39627918Y-58928002D01*
X39642365Y-59037740D01*
X39648556Y-59084762D01*
X39691798Y-59189159D01*
X39709064Y-59230841D01*
X39805318Y-59356282D01*
X39805321Y-59356284D01*
X39832936Y-59377474D01*
X39840272Y-59383907D01*
X40741692Y-60285327D01*
X40748123Y-60292661D01*
X40769316Y-60320280D01*
X40769320Y-60320284D01*
X40813731Y-60354361D01*
X40894757Y-60416535D01*
X40894758Y-60416535D01*
X40894759Y-60416536D01*
X41040838Y-60477044D01*
X41040841Y-60477044D01*
X41040843Y-60477045D01*
X41040840Y-60477045D01*
X41197597Y-60497682D01*
X41197600Y-60497682D01*
X41197601Y-60497682D01*
X41206375Y-60496526D01*
X41232117Y-60493137D01*
X41241847Y-60492500D01*
X41700164Y-60492500D01*
X41774664Y-60512462D01*
X41829202Y-60567000D01*
X41837821Y-60584478D01*
X41842113Y-60594839D01*
X41842112Y-60594839D01*
X41859762Y-60617841D01*
X41938368Y-60720282D01*
X42063809Y-60816536D01*
X42063814Y-60816538D01*
X42066642Y-60818171D01*
X42068958Y-60820486D01*
X42071557Y-60822481D01*
X42071294Y-60822822D01*
X42121183Y-60872705D01*
X42141150Y-60947204D01*
X42141150Y-61184086D01*
X42121188Y-61258586D01*
X42097509Y-61289445D01*
X41938757Y-61448196D01*
X41938754Y-61448199D01*
X41938755Y-61448199D01*
X41803215Y-61641771D01*
X41703347Y-61855937D01*
X41703346Y-61855940D01*
X41642187Y-62084190D01*
X41642186Y-62084192D01*
X41642187Y-62084192D01*
X41621591Y-62319600D01*
X41642187Y-62555008D01*
X41703347Y-62783263D01*
X41803215Y-62997430D01*
X41938755Y-63191001D01*
X42105849Y-63358095D01*
X42233600Y-63447547D01*
X42283176Y-63506630D01*
X42296569Y-63582586D01*
X42270190Y-63655063D01*
X42233599Y-63691654D01*
X42105847Y-63781106D01*
X41938757Y-63948196D01*
X41837321Y-64093063D01*
X41803215Y-64141771D01*
X41768165Y-64216936D01*
X41703346Y-64355940D01*
X41642187Y-64584190D01*
X41621591Y-64819600D01*
X41642187Y-65055009D01*
X41703346Y-65283261D01*
X41703347Y-65283262D01*
X41803215Y-65497430D01*
X41803216Y-65497431D01*
X41938756Y-65691002D01*
X41972167Y-65724413D01*
X42010731Y-65791208D01*
X42010731Y-65868336D01*
X41972167Y-65935131D01*
X41905372Y-65973695D01*
X41888291Y-65977215D01*
X41875856Y-65979026D01*
X41875855Y-65979026D01*
X41770768Y-66030400D01*
X41688050Y-66113118D01*
X41636676Y-66218205D01*
X41636676Y-66218206D01*
X41627676Y-66279982D01*
X41597181Y-66350826D01*
X41535350Y-66396931D01*
X41480233Y-66407500D01*
X40815355Y-66407500D01*
X40740855Y-66387538D01*
X40724654Y-66376712D01*
X40668291Y-66333464D01*
X40668290Y-66333463D01*
X40554526Y-66286341D01*
X40522212Y-66272956D01*
X40522210Y-66272955D01*
X40522206Y-66272954D01*
X40522209Y-66272954D01*
X40404813Y-66257500D01*
X39076093Y-66257500D01*
X38958688Y-66272956D01*
X38812609Y-66333463D01*
X38687168Y-66429717D01*
X38687167Y-66429718D01*
X38590913Y-66555160D01*
X38586621Y-66565522D01*
X38539668Y-66626711D01*
X38468410Y-66656226D01*
X38448964Y-66657500D01*
X36783654Y-66657500D01*
X36709154Y-66637538D01*
X36678295Y-66613859D01*
X34288707Y-64224272D01*
X34282274Y-64216936D01*
X34261082Y-64189318D01*
X34135640Y-64093063D01*
X34055744Y-64059969D01*
X33989562Y-64032556D01*
X33989560Y-64032555D01*
X33989556Y-64032554D01*
X33989558Y-64032554D01*
X33872161Y-64017100D01*
X33832801Y-64011918D01*
X33832799Y-64011918D01*
X33824024Y-64013073D01*
X33798282Y-64016462D01*
X33788553Y-64017100D01*
X27691653Y-64017100D01*
X27617153Y-63997138D01*
X27586294Y-63973459D01*
X26450541Y-62837705D01*
X26411977Y-62770910D01*
X26406900Y-62732346D01*
X26406900Y-57916418D01*
X26406900Y-53091649D01*
X26426861Y-53017153D01*
X26450536Y-52986298D01*
X35060741Y-44376093D01*
X35127536Y-44337530D01*
X35204664Y-44337530D01*
X35271459Y-44376094D01*
X35310023Y-44442889D01*
X35315100Y-44481453D01*
X35315100Y-50216847D01*
X35305417Y-50269683D01*
X35279363Y-50338379D01*
X35260322Y-50495200D01*
X35279363Y-50652020D01*
X35335379Y-50799722D01*
X35423164Y-50926900D01*
X35425117Y-50929730D01*
X35543360Y-51034483D01*
X35683235Y-51107896D01*
X35836615Y-51145700D01*
X35836617Y-51145700D01*
X35994583Y-51145700D01*
X35994585Y-51145700D01*
X36147965Y-51107896D01*
X36287840Y-51034483D01*
X36406083Y-50929730D01*
X36495820Y-50799723D01*
X36551837Y-50652018D01*
X36570878Y-50495200D01*
X36551837Y-50338382D01*
X36525783Y-50269683D01*
X36516100Y-50216847D01*
X36516100Y-44709652D01*
X36536062Y-44635152D01*
X36559741Y-44604293D01*
X37289094Y-43874941D01*
X37355889Y-43836377D01*
X37394453Y-43831300D01*
X37873385Y-43831300D01*
X37947885Y-43851262D01*
X38002423Y-43905800D01*
X38022385Y-43980300D01*
X38002423Y-44054800D01*
X37947885Y-44109338D01*
X37938826Y-44114160D01*
X37921967Y-44122401D01*
X37839250Y-44205118D01*
X37787876Y-44310205D01*
X37787876Y-44310206D01*
X37777950Y-44378331D01*
X37777950Y-46144868D01*
X37787876Y-46212993D01*
X37787876Y-46212994D01*
X37839250Y-46318081D01*
X37921968Y-46400799D01*
X38027055Y-46452173D01*
X38095181Y-46462099D01*
X38095187Y-46462099D01*
X38095190Y-46462100D01*
X38228950Y-46462100D01*
X38303450Y-46482062D01*
X38357988Y-46536600D01*
X38377950Y-46611100D01*
X38377950Y-50169896D01*
X38357988Y-50244396D01*
X38334309Y-50275255D01*
X30325706Y-58283859D01*
X30258911Y-58322423D01*
X30220347Y-58327500D01*
X29805136Y-58327500D01*
X29730636Y-58307538D01*
X29676098Y-58253000D01*
X29667479Y-58235522D01*
X29663186Y-58225160D01*
X29663187Y-58225160D01*
X29566932Y-58099718D01*
X29566931Y-58099717D01*
X29441490Y-58003463D01*
X29361594Y-57970369D01*
X29295412Y-57942956D01*
X29295410Y-57942955D01*
X29295406Y-57942954D01*
X29295409Y-57942954D01*
X29178013Y-57927500D01*
X27849293Y-57927500D01*
X27731888Y-57942956D01*
X27585809Y-58003463D01*
X27460368Y-58099717D01*
X27460367Y-58099718D01*
X27364113Y-58225159D01*
X27303604Y-58371242D01*
X27288150Y-58488633D01*
X27288150Y-59367356D01*
X27303606Y-59484761D01*
X27364113Y-59630840D01*
X27364114Y-59630841D01*
X27460368Y-59756282D01*
X27585809Y-59852536D01*
X27585814Y-59852538D01*
X27588642Y-59854171D01*
X27590958Y-59856486D01*
X27593557Y-59858481D01*
X27593294Y-59858822D01*
X27643183Y-59908705D01*
X27663150Y-59983204D01*
X27663150Y-59983213D01*
X27663149Y-61163544D01*
X27643187Y-61238044D01*
X27609929Y-61277681D01*
X27605850Y-61281103D01*
X27438757Y-61448196D01*
X27438754Y-61448199D01*
X27438755Y-61448199D01*
X27303215Y-61641771D01*
X27203347Y-61855937D01*
X27203346Y-61855940D01*
X27142187Y-62084190D01*
X27142186Y-62084192D01*
X27142187Y-62084192D01*
X27121591Y-62319600D01*
X27142187Y-62555008D01*
X27203347Y-62783263D01*
X27303215Y-62997430D01*
X27438755Y-63191001D01*
X27605849Y-63358095D01*
X27799420Y-63493635D01*
X28013587Y-63593503D01*
X28241842Y-63654663D01*
X28477250Y-63675259D01*
X28712658Y-63654663D01*
X28940913Y-63593503D01*
X29155080Y-63493635D01*
X29348651Y-63358095D01*
X29515745Y-63191001D01*
X29651285Y-62997430D01*
X29751153Y-62783263D01*
X29812313Y-62555008D01*
X29832909Y-62319600D01*
X29812313Y-62084192D01*
X29751153Y-61855937D01*
X29651285Y-61641771D01*
X29515745Y-61448199D01*
X29515742Y-61448196D01*
X29515740Y-61448193D01*
X29407791Y-61340243D01*
X29369227Y-61273448D01*
X29364150Y-61234885D01*
X29364150Y-60252868D01*
X33526750Y-60252868D01*
X33536676Y-60320993D01*
X33536676Y-60320994D01*
X33588050Y-60426081D01*
X33670768Y-60508799D01*
X33775855Y-60560173D01*
X33843981Y-60570099D01*
X33843987Y-60570099D01*
X33843990Y-60570100D01*
X33843991Y-60570100D01*
X37110509Y-60570100D01*
X37110510Y-60570100D01*
X37110513Y-60570099D01*
X37110518Y-60570099D01*
X37178643Y-60560173D01*
X37178644Y-60560173D01*
X37283731Y-60508799D01*
X37283731Y-60508798D01*
X37283733Y-60508798D01*
X37366448Y-60426083D01*
X37392824Y-60372130D01*
X37417823Y-60320994D01*
X37417823Y-60320993D01*
X37427749Y-60252868D01*
X37427750Y-60252858D01*
X37427750Y-58186341D01*
X37427749Y-58186331D01*
X37417823Y-58118206D01*
X37417823Y-58118205D01*
X37366449Y-58013118D01*
X37283731Y-57930400D01*
X37178644Y-57879026D01*
X37110518Y-57869100D01*
X37110510Y-57869100D01*
X33843990Y-57869100D01*
X33843981Y-57869100D01*
X33775856Y-57879026D01*
X33775855Y-57879026D01*
X33670768Y-57930400D01*
X33588050Y-58013118D01*
X33536676Y-58118205D01*
X33536676Y-58118206D01*
X33526750Y-58186331D01*
X33526750Y-60252868D01*
X29364150Y-60252868D01*
X29364150Y-59983213D01*
X29384112Y-59908713D01*
X29434003Y-59858821D01*
X29433743Y-59858481D01*
X29436325Y-59856499D01*
X29438650Y-59854175D01*
X29438658Y-59854171D01*
X29441482Y-59852539D01*
X29441491Y-59852536D01*
X29566932Y-59756282D01*
X29663186Y-59630841D01*
X29665847Y-59624415D01*
X29667479Y-59620478D01*
X29714432Y-59559289D01*
X29785690Y-59529774D01*
X29805136Y-59528500D01*
X30486553Y-59528500D01*
X30496282Y-59529137D01*
X30522024Y-59532526D01*
X30530799Y-59533682D01*
X30530800Y-59533682D01*
X30530803Y-59533682D01*
X30687557Y-59513045D01*
X30687558Y-59513044D01*
X30687562Y-59513044D01*
X30833641Y-59452536D01*
X30921034Y-59385477D01*
X30959082Y-59356282D01*
X30980279Y-59328655D01*
X30986700Y-59321333D01*
X39371783Y-50936250D01*
X39379105Y-50929829D01*
X39406732Y-50908632D01*
X39502986Y-50783191D01*
X39563494Y-50637112D01*
X39567611Y-50605839D01*
X39568220Y-50601218D01*
X39584132Y-50480351D01*
X39584132Y-50480349D01*
X39582939Y-50471290D01*
X39579587Y-50445831D01*
X39578950Y-50436102D01*
X39578950Y-46611100D01*
X39598912Y-46536600D01*
X39653450Y-46482062D01*
X39727950Y-46462100D01*
X39861709Y-46462100D01*
X39861710Y-46462100D01*
X39861713Y-46462099D01*
X39861718Y-46462099D01*
X39929843Y-46452173D01*
X39929844Y-46452173D01*
X40034931Y-46400799D01*
X40034931Y-46400798D01*
X40034933Y-46400798D01*
X40117648Y-46318083D01*
X40117649Y-46318081D01*
X40169023Y-46212994D01*
X40169023Y-46212993D01*
X40178949Y-46144868D01*
X40178950Y-46144858D01*
X40178950Y-45898314D01*
X40198912Y-45823814D01*
X40253450Y-45769276D01*
X40327950Y-45749314D01*
X40402450Y-45769276D01*
X40456988Y-45823814D01*
X40461329Y-45831899D01*
X40493389Y-45896285D01*
X40493391Y-45896288D01*
X40493392Y-45896289D01*
X40627469Y-46073836D01*
X40791888Y-46223724D01*
X40981049Y-46340847D01*
X40981051Y-46340847D01*
X40981053Y-46340849D01*
X40981055Y-46340850D01*
X41170813Y-46414362D01*
X41188510Y-46421218D01*
X41407207Y-46462100D01*
X41407209Y-46462100D01*
X41629691Y-46462100D01*
X41629693Y-46462100D01*
X41848390Y-46421218D01*
X42041494Y-46346409D01*
X42055844Y-46340850D01*
X42055846Y-46340849D01*
X42055846Y-46340848D01*
X42055851Y-46340847D01*
X42245012Y-46223724D01*
X42409431Y-46073836D01*
X42543508Y-45896289D01*
X42642679Y-45697128D01*
X42645138Y-45688487D01*
X42684725Y-45622294D01*
X42752106Y-45584763D01*
X42829225Y-45585950D01*
X42895418Y-45625537D01*
X42931762Y-45688487D01*
X42934220Y-45697128D01*
X43033389Y-45896285D01*
X43033391Y-45896288D01*
X43033392Y-45896289D01*
X43167469Y-46073836D01*
X43331888Y-46223724D01*
X43521049Y-46340847D01*
X43521051Y-46340847D01*
X43521053Y-46340849D01*
X43521055Y-46340850D01*
X43728505Y-46421217D01*
X43728509Y-46421217D01*
X43728510Y-46421218D01*
X43763681Y-46427792D01*
X43833243Y-46461103D01*
X43841661Y-46468896D01*
X44227109Y-46854343D01*
X44265673Y-46921138D01*
X44270750Y-46959702D01*
X44270750Y-47119714D01*
X44250788Y-47194214D01*
X44196250Y-47248752D01*
X44178775Y-47257370D01*
X44168409Y-47261663D01*
X44168404Y-47261666D01*
X44042969Y-47357916D01*
X44042967Y-47357918D01*
X43946713Y-47483359D01*
X43886204Y-47629442D01*
X43870750Y-47746833D01*
X43870750Y-49075556D01*
X43886206Y-49192961D01*
X43946713Y-49339040D01*
X43946714Y-49339041D01*
X44042968Y-49464482D01*
X44168409Y-49560736D01*
X44314488Y-49621244D01*
X44335517Y-49624012D01*
X44406774Y-49653527D01*
X44453727Y-49714716D01*
X44463796Y-49791184D01*
X44434281Y-49862442D01*
X44389866Y-49899840D01*
X44389976Y-49899998D01*
X44388330Y-49901133D01*
X44385322Y-49903667D01*
X44382561Y-49905116D01*
X44264316Y-50009870D01*
X44174579Y-50139877D01*
X44118563Y-50287579D01*
X44099522Y-50444400D01*
X44118563Y-50601220D01*
X44174580Y-50748925D01*
X44252924Y-50862424D01*
X44278817Y-50935076D01*
X44279300Y-50947066D01*
X44279300Y-54695253D01*
X44275895Y-54726924D01*
X44275632Y-54728129D01*
X44279110Y-54776732D01*
X44279300Y-54782050D01*
X44279300Y-54796412D01*
X44281343Y-54810627D01*
X44281912Y-54815912D01*
X44285388Y-54864514D01*
X44285820Y-54865671D01*
X44293692Y-54896513D01*
X44293868Y-54897737D01*
X44293870Y-54897746D01*
X44314105Y-54942053D01*
X44316140Y-54946967D01*
X44333170Y-54992624D01*
X44333171Y-54992626D01*
X44333911Y-54993615D01*
X44350159Y-55020999D01*
X44350670Y-55022118D01*
X44382574Y-55058937D01*
X44385910Y-55063078D01*
X44394521Y-55074580D01*
X44404676Y-55084735D01*
X44408301Y-55088629D01*
X44440211Y-55125455D01*
X44441242Y-55126118D01*
X44466046Y-55146105D01*
X45387093Y-56067152D01*
X45407078Y-56091951D01*
X45407745Y-56092989D01*
X45407746Y-56092990D01*
X45407747Y-56092991D01*
X45407748Y-56092993D01*
X45444569Y-56124897D01*
X45448464Y-56128523D01*
X45458620Y-56138679D01*
X45470136Y-56147299D01*
X45474263Y-56150626D01*
X45511079Y-56182528D01*
X45511086Y-56182532D01*
X45512200Y-56183041D01*
X45539581Y-56199286D01*
X45540574Y-56200029D01*
X45586240Y-56217061D01*
X45591130Y-56219086D01*
X45635458Y-56239331D01*
X45636676Y-56239506D01*
X45667538Y-56247383D01*
X45668685Y-56247811D01*
X45717326Y-56251290D01*
X45722542Y-56251851D01*
X45736789Y-56253900D01*
X45751149Y-56253900D01*
X45756459Y-56254089D01*
X45795016Y-56256847D01*
X45805070Y-56257567D01*
X45805071Y-56257567D01*
X45806277Y-56257305D01*
X45837948Y-56253900D01*
X47759255Y-56253900D01*
X47833755Y-56273862D01*
X47858057Y-56291369D01*
X47887760Y-56317683D01*
X48027635Y-56391096D01*
X48181015Y-56428900D01*
X48181017Y-56428900D01*
X48338983Y-56428900D01*
X48338985Y-56428900D01*
X48492365Y-56391096D01*
X48632240Y-56317683D01*
X48750483Y-56212930D01*
X48840220Y-56082923D01*
X48896237Y-55935218D01*
X48915278Y-55778400D01*
X48896237Y-55621582D01*
X48840220Y-55473877D01*
X48750483Y-55343870D01*
X48681704Y-55282938D01*
X48632239Y-55239116D01*
X48492363Y-55165703D01*
X48412847Y-55146105D01*
X48338985Y-55127900D01*
X48181015Y-55127900D01*
X48120359Y-55142850D01*
X48027636Y-55165703D01*
X47887760Y-55239116D01*
X47858060Y-55265429D01*
X47789058Y-55299889D01*
X47759255Y-55302900D01*
X46029477Y-55302900D01*
X45954977Y-55282938D01*
X45924118Y-55259259D01*
X45273941Y-54609082D01*
X45235377Y-54542287D01*
X45230300Y-54503723D01*
X45230300Y-50947066D01*
X45250262Y-50872566D01*
X45256676Y-50862424D01*
X45335019Y-50748925D01*
X45346470Y-50718733D01*
X45391037Y-50601218D01*
X45400381Y-50524263D01*
X47893450Y-50524263D01*
X47893452Y-50524288D01*
X47899858Y-50583878D01*
X47899859Y-50583884D01*
X47950152Y-50718729D01*
X47950154Y-50718733D01*
X48036402Y-50833944D01*
X48036405Y-50833947D01*
X48151616Y-50920195D01*
X48151620Y-50920197D01*
X48286467Y-50970491D01*
X48346064Y-50976899D01*
X48346068Y-50976899D01*
X48346077Y-50976900D01*
X49616822Y-50976899D01*
X49676433Y-50970491D01*
X49768120Y-50936293D01*
X49820189Y-50926900D01*
X50271089Y-50926900D01*
X50345589Y-50946862D01*
X50389299Y-50985195D01*
X50399482Y-50998466D01*
X50406389Y-51005373D01*
X50404482Y-51007279D01*
X50442152Y-51056359D01*
X50453500Y-51113394D01*
X50453500Y-51385247D01*
X50443817Y-51438083D01*
X50417763Y-51506779D01*
X50398722Y-51663600D01*
X50417763Y-51820420D01*
X50473779Y-51968122D01*
X50473971Y-51968399D01*
X50563517Y-52098130D01*
X50681760Y-52202883D01*
X50821635Y-52276296D01*
X50975015Y-52314100D01*
X50975017Y-52314100D01*
X51132983Y-52314100D01*
X51132985Y-52314100D01*
X51286365Y-52276296D01*
X51426240Y-52202883D01*
X51544483Y-52098130D01*
X51634220Y-51968123D01*
X51690237Y-51820418D01*
X51709278Y-51663600D01*
X51690237Y-51506782D01*
X51664183Y-51438083D01*
X51654500Y-51385247D01*
X51654500Y-51136183D01*
X51674462Y-51061683D01*
X51712794Y-51017974D01*
X51738217Y-50998467D01*
X51832467Y-50875637D01*
X51843692Y-50848536D01*
X51890640Y-50787350D01*
X51961896Y-50757832D01*
X52038365Y-50767897D01*
X52099556Y-50814848D01*
X52119006Y-50848535D01*
X52130231Y-50875635D01*
X52224482Y-50998466D01*
X52224483Y-50998467D01*
X52347314Y-51092718D01*
X52490353Y-51151966D01*
X52579798Y-51163741D01*
X52605305Y-51167099D01*
X52605308Y-51167100D01*
X52605310Y-51167100D01*
X53182391Y-51167100D01*
X53193240Y-51165671D01*
X53297349Y-51151965D01*
X53336138Y-51135897D01*
X53412604Y-51125831D01*
X53483862Y-51155346D01*
X53491962Y-51162028D01*
X53577357Y-51237681D01*
X53577358Y-51237681D01*
X53577360Y-51237683D01*
X53717235Y-51311096D01*
X53870615Y-51348900D01*
X53870617Y-51348900D01*
X54028583Y-51348900D01*
X54028585Y-51348900D01*
X54181965Y-51311096D01*
X54321840Y-51237683D01*
X54440083Y-51132930D01*
X54529820Y-51002923D01*
X54585837Y-50855218D01*
X54604878Y-50698400D01*
X54585837Y-50541582D01*
X54559783Y-50472883D01*
X54550100Y-50420047D01*
X54550100Y-50316352D01*
X54559783Y-50263515D01*
X54567127Y-50244151D01*
X54585837Y-50194818D01*
X54604878Y-50038000D01*
X54585837Y-49881182D01*
X54529820Y-49733477D01*
X54440083Y-49603470D01*
X54321840Y-49498717D01*
X54321839Y-49498716D01*
X54181963Y-49425303D01*
X54104191Y-49406134D01*
X54028585Y-49387500D01*
X53870615Y-49387500D01*
X53809959Y-49402450D01*
X53717236Y-49425303D01*
X53577360Y-49498716D01*
X53532880Y-49538122D01*
X53463878Y-49572581D01*
X53386890Y-49567923D01*
X53377058Y-49564251D01*
X53297344Y-49531233D01*
X53182395Y-49516100D01*
X53182390Y-49516100D01*
X52605310Y-49516100D01*
X52605304Y-49516100D01*
X52490353Y-49531233D01*
X52347314Y-49590481D01*
X52224483Y-49684732D01*
X52224482Y-49684733D01*
X52130232Y-49807563D01*
X52119008Y-49834662D01*
X52072055Y-49895852D01*
X52000798Y-49925367D01*
X51924330Y-49915300D01*
X51863140Y-49868347D01*
X51843692Y-49834662D01*
X51832467Y-49807563D01*
X51738217Y-49684733D01*
X51738216Y-49684732D01*
X51615385Y-49590481D01*
X51472346Y-49531233D01*
X51357395Y-49516100D01*
X51357390Y-49516100D01*
X50780310Y-49516100D01*
X50780304Y-49516100D01*
X50665353Y-49531233D01*
X50522314Y-49590481D01*
X50391735Y-49690678D01*
X50390396Y-49688933D01*
X50335162Y-49720823D01*
X50296598Y-49725900D01*
X49820189Y-49725900D01*
X49768121Y-49716506D01*
X49676433Y-49682309D01*
X49676432Y-49682308D01*
X49676430Y-49682308D01*
X49616826Y-49675900D01*
X48346086Y-49675900D01*
X48346061Y-49675902D01*
X48286471Y-49682308D01*
X48286465Y-49682309D01*
X48151620Y-49732602D01*
X48151616Y-49732604D01*
X48036405Y-49818852D01*
X48036402Y-49818855D01*
X47950154Y-49934066D01*
X47950152Y-49934070D01*
X47899858Y-50068917D01*
X47893450Y-50128514D01*
X47893450Y-50524263D01*
X45400381Y-50524263D01*
X45410078Y-50444400D01*
X45391037Y-50287582D01*
X45335020Y-50139877D01*
X45245283Y-50009870D01*
X45127040Y-49905117D01*
X45127039Y-49905116D01*
X45120294Y-49899141D01*
X45122122Y-49897076D01*
X45081719Y-49849586D01*
X45067809Y-49773723D01*
X45093695Y-49701069D01*
X45152440Y-49651091D01*
X45216326Y-49636699D01*
X45310610Y-49636699D01*
X45428012Y-49621244D01*
X45574091Y-49560736D01*
X45699532Y-49464482D01*
X45795786Y-49339041D01*
X45856294Y-49192962D01*
X45863102Y-49141253D01*
X45892617Y-49069996D01*
X45953806Y-49023042D01*
X46010827Y-49011700D01*
X48101959Y-49011700D01*
X48154024Y-49021093D01*
X48286467Y-49070491D01*
X48307383Y-49072739D01*
X48346064Y-49076899D01*
X48346068Y-49076899D01*
X48346077Y-49076900D01*
X49616822Y-49076899D01*
X49676433Y-49070491D01*
X49772397Y-49034698D01*
X49811279Y-49020197D01*
X49811283Y-49020195D01*
X49868888Y-48977071D01*
X49926496Y-48933946D01*
X50012746Y-48818731D01*
X50063041Y-48683883D01*
X50069450Y-48624273D01*
X50069449Y-48228528D01*
X50063041Y-48168917D01*
X50048538Y-48130033D01*
X50012747Y-48034070D01*
X50012745Y-48034066D01*
X49926497Y-47918855D01*
X49926494Y-47918852D01*
X49811283Y-47832604D01*
X49811279Y-47832602D01*
X49676432Y-47782308D01*
X49616826Y-47775900D01*
X48346086Y-47775900D01*
X48346061Y-47775902D01*
X48286471Y-47782308D01*
X48286465Y-47782309D01*
X48235533Y-47801306D01*
X48183464Y-47810700D01*
X46010827Y-47810700D01*
X45936327Y-47790738D01*
X45881789Y-47736200D01*
X45863102Y-47681147D01*
X45856295Y-47629444D01*
X45856294Y-47629439D01*
X45795786Y-47483359D01*
X45699532Y-47357918D01*
X45699530Y-47357916D01*
X45574095Y-47261666D01*
X45574090Y-47261663D01*
X45563725Y-47257370D01*
X45502537Y-47210415D01*
X45473024Y-47139157D01*
X45471750Y-47119714D01*
X45471750Y-46693496D01*
X45472387Y-46683769D01*
X45476932Y-46649250D01*
X45476932Y-46649247D01*
X45456295Y-46492490D01*
X45395786Y-46346409D01*
X45323700Y-46252465D01*
X45323700Y-46252464D01*
X45299532Y-46220968D01*
X45289139Y-46212993D01*
X45271912Y-46199774D01*
X45264577Y-46193342D01*
X45120759Y-46049524D01*
X45082195Y-45982729D01*
X45082195Y-45905601D01*
X45092736Y-45877756D01*
X45182679Y-45697128D01*
X45185138Y-45688487D01*
X45224725Y-45622294D01*
X45292106Y-45584763D01*
X45369225Y-45585950D01*
X45435418Y-45625537D01*
X45471762Y-45688487D01*
X45474220Y-45697128D01*
X45573389Y-45896285D01*
X45573391Y-45896288D01*
X45573392Y-45896289D01*
X45707469Y-46073836D01*
X45871888Y-46223724D01*
X46061049Y-46340847D01*
X46061051Y-46340847D01*
X46061053Y-46340849D01*
X46061055Y-46340850D01*
X46250813Y-46414362D01*
X46268510Y-46421218D01*
X46487207Y-46462100D01*
X46487209Y-46462100D01*
X46709691Y-46462100D01*
X46709693Y-46462100D01*
X46928390Y-46421218D01*
X47121494Y-46346409D01*
X47135844Y-46340850D01*
X47135846Y-46340849D01*
X47135846Y-46340848D01*
X47135851Y-46340847D01*
X47325012Y-46223724D01*
X47489431Y-46073836D01*
X47623508Y-45896289D01*
X47722679Y-45697128D01*
X47725138Y-45688487D01*
X47764725Y-45622294D01*
X47832106Y-45584763D01*
X47909225Y-45585950D01*
X47975418Y-45625537D01*
X48011762Y-45688487D01*
X48014220Y-45697128D01*
X48113389Y-45896285D01*
X48113391Y-45896288D01*
X48113392Y-45896289D01*
X48247469Y-46073836D01*
X48411888Y-46223724D01*
X48601049Y-46340847D01*
X48601051Y-46340847D01*
X48601053Y-46340849D01*
X48601055Y-46340850D01*
X48790813Y-46414362D01*
X48808510Y-46421218D01*
X49027207Y-46462100D01*
X49027209Y-46462100D01*
X49249691Y-46462100D01*
X49249693Y-46462100D01*
X49468390Y-46421218D01*
X49661494Y-46346409D01*
X49675844Y-46340850D01*
X49675846Y-46340849D01*
X49675846Y-46340848D01*
X49675851Y-46340847D01*
X49865012Y-46223724D01*
X50029431Y-46073836D01*
X50163508Y-45896289D01*
X50262679Y-45697128D01*
X50265138Y-45688487D01*
X50304725Y-45622294D01*
X50372106Y-45584763D01*
X50449225Y-45585950D01*
X50515418Y-45625537D01*
X50551762Y-45688487D01*
X50554220Y-45697128D01*
X50653389Y-45896285D01*
X50653391Y-45896288D01*
X50653392Y-45896289D01*
X50787469Y-46073836D01*
X50951888Y-46223724D01*
X51141049Y-46340847D01*
X51141051Y-46340847D01*
X51141053Y-46340849D01*
X51141055Y-46340850D01*
X51330813Y-46414362D01*
X51348510Y-46421218D01*
X51567207Y-46462100D01*
X51567209Y-46462100D01*
X51789691Y-46462100D01*
X51789693Y-46462100D01*
X52008390Y-46421218D01*
X52201494Y-46346409D01*
X52215844Y-46340850D01*
X52215846Y-46340849D01*
X52215846Y-46340848D01*
X52215851Y-46340847D01*
X52405012Y-46223724D01*
X52569431Y-46073836D01*
X52703508Y-45896289D01*
X52802679Y-45697128D01*
X52805138Y-45688487D01*
X52844725Y-45622294D01*
X52912106Y-45584763D01*
X52989225Y-45585950D01*
X53055418Y-45625537D01*
X53091762Y-45688487D01*
X53094220Y-45697128D01*
X53193389Y-45896285D01*
X53193391Y-45896288D01*
X53193392Y-45896289D01*
X53327469Y-46073836D01*
X53491888Y-46223724D01*
X53681049Y-46340847D01*
X53681051Y-46340847D01*
X53681053Y-46340849D01*
X53681055Y-46340850D01*
X53870813Y-46414362D01*
X53888510Y-46421218D01*
X54107207Y-46462100D01*
X54107209Y-46462100D01*
X54329691Y-46462100D01*
X54329693Y-46462100D01*
X54548390Y-46421218D01*
X54741494Y-46346409D01*
X54755844Y-46340850D01*
X54755846Y-46340849D01*
X54755846Y-46340848D01*
X54755851Y-46340847D01*
X54945012Y-46223724D01*
X55109431Y-46073836D01*
X55243508Y-45896289D01*
X55342679Y-45697128D01*
X55345138Y-45688487D01*
X55384725Y-45622294D01*
X55452106Y-45584763D01*
X55529225Y-45585950D01*
X55595418Y-45625537D01*
X55631762Y-45688487D01*
X55634220Y-45697128D01*
X55733389Y-45896285D01*
X55733391Y-45896288D01*
X55733392Y-45896289D01*
X55867469Y-46073836D01*
X56031888Y-46223724D01*
X56221049Y-46340847D01*
X56221051Y-46340847D01*
X56221053Y-46340849D01*
X56221055Y-46340850D01*
X56410813Y-46414362D01*
X56428510Y-46421218D01*
X56647207Y-46462100D01*
X56647209Y-46462100D01*
X56869691Y-46462100D01*
X56869693Y-46462100D01*
X57088390Y-46421218D01*
X57281494Y-46346409D01*
X57295844Y-46340850D01*
X57295846Y-46340849D01*
X57295846Y-46340848D01*
X57295851Y-46340847D01*
X57485012Y-46223724D01*
X57649431Y-46073836D01*
X57783508Y-45896289D01*
X57882679Y-45697128D01*
X57943565Y-45483136D01*
X57964093Y-45261600D01*
X57959689Y-45214077D01*
X57943565Y-45040068D01*
X57943565Y-45040065D01*
X57882679Y-44826071D01*
X57783510Y-44626914D01*
X57766427Y-44604293D01*
X57649431Y-44449364D01*
X57635880Y-44437011D01*
X57485013Y-44299477D01*
X57485012Y-44299476D01*
X57295851Y-44182353D01*
X57295850Y-44182352D01*
X57295846Y-44182350D01*
X57295844Y-44182349D01*
X57088394Y-44101983D01*
X57088391Y-44101982D01*
X57088390Y-44101982D01*
X57033224Y-44091669D01*
X56869697Y-44061100D01*
X56869693Y-44061100D01*
X56647207Y-44061100D01*
X56647202Y-44061100D01*
X56428505Y-44101983D01*
X56221055Y-44182349D01*
X56221053Y-44182350D01*
X56031886Y-44299477D01*
X55867469Y-44449363D01*
X55733389Y-44626914D01*
X55634221Y-44826069D01*
X55631762Y-44834714D01*
X55592173Y-44900907D01*
X55524792Y-44938437D01*
X55447673Y-44937249D01*
X55381480Y-44897660D01*
X55345138Y-44834714D01*
X55342678Y-44826069D01*
X55243510Y-44626914D01*
X55226427Y-44604293D01*
X55109431Y-44449364D01*
X55095880Y-44437011D01*
X54945013Y-44299477D01*
X54945012Y-44299476D01*
X54755851Y-44182353D01*
X54755850Y-44182352D01*
X54755846Y-44182350D01*
X54755844Y-44182349D01*
X54548394Y-44101983D01*
X54548391Y-44101982D01*
X54548390Y-44101982D01*
X54493225Y-44091669D01*
X54329697Y-44061100D01*
X54329693Y-44061100D01*
X54107207Y-44061100D01*
X54107202Y-44061100D01*
X53888505Y-44101983D01*
X53681055Y-44182349D01*
X53681053Y-44182350D01*
X53491886Y-44299477D01*
X53327469Y-44449363D01*
X53193389Y-44626914D01*
X53094221Y-44826069D01*
X53091762Y-44834714D01*
X53052173Y-44900907D01*
X52984792Y-44938437D01*
X52907673Y-44937249D01*
X52841480Y-44897660D01*
X52805138Y-44834714D01*
X52802678Y-44826069D01*
X52703510Y-44626914D01*
X52686427Y-44604293D01*
X52569431Y-44449364D01*
X52555880Y-44437011D01*
X52405013Y-44299477D01*
X52405012Y-44299476D01*
X52215851Y-44182353D01*
X52215850Y-44182352D01*
X52215846Y-44182350D01*
X52215844Y-44182349D01*
X52008394Y-44101983D01*
X52008391Y-44101982D01*
X52008390Y-44101982D01*
X51953225Y-44091669D01*
X51789697Y-44061100D01*
X51789693Y-44061100D01*
X51567207Y-44061100D01*
X51567202Y-44061100D01*
X51348505Y-44101983D01*
X51141055Y-44182349D01*
X51141053Y-44182350D01*
X50951886Y-44299477D01*
X50787469Y-44449363D01*
X50653389Y-44626914D01*
X50554221Y-44826069D01*
X50551762Y-44834714D01*
X50512173Y-44900907D01*
X50444792Y-44938437D01*
X50367673Y-44937249D01*
X50301480Y-44897660D01*
X50265138Y-44834714D01*
X50262678Y-44826069D01*
X50163510Y-44626914D01*
X50146427Y-44604293D01*
X50029431Y-44449364D01*
X50015880Y-44437011D01*
X49865013Y-44299477D01*
X49865012Y-44299476D01*
X49675851Y-44182353D01*
X49675850Y-44182352D01*
X49675846Y-44182350D01*
X49675844Y-44182349D01*
X49468394Y-44101983D01*
X49468391Y-44101982D01*
X49468390Y-44101982D01*
X49413224Y-44091669D01*
X49249697Y-44061100D01*
X49249693Y-44061100D01*
X49027207Y-44061100D01*
X49027202Y-44061100D01*
X48808505Y-44101983D01*
X48601055Y-44182349D01*
X48601053Y-44182350D01*
X48411886Y-44299477D01*
X48247469Y-44449363D01*
X48113389Y-44626914D01*
X48014221Y-44826069D01*
X48011762Y-44834714D01*
X47972173Y-44900907D01*
X47904792Y-44938437D01*
X47827673Y-44937249D01*
X47761480Y-44897660D01*
X47725138Y-44834714D01*
X47722678Y-44826069D01*
X47623510Y-44626914D01*
X47606427Y-44604293D01*
X47489431Y-44449364D01*
X47475880Y-44437011D01*
X47325013Y-44299477D01*
X47325012Y-44299476D01*
X47135851Y-44182353D01*
X47135850Y-44182352D01*
X47135846Y-44182350D01*
X47135844Y-44182349D01*
X46928394Y-44101983D01*
X46928391Y-44101982D01*
X46928390Y-44101982D01*
X46873224Y-44091669D01*
X46709697Y-44061100D01*
X46709693Y-44061100D01*
X46487207Y-44061100D01*
X46487202Y-44061100D01*
X46268505Y-44101983D01*
X46061055Y-44182349D01*
X46061053Y-44182350D01*
X45871886Y-44299477D01*
X45707469Y-44449363D01*
X45573389Y-44626914D01*
X45474221Y-44826069D01*
X45471762Y-44834714D01*
X45432173Y-44900907D01*
X45364792Y-44938437D01*
X45287673Y-44937249D01*
X45221480Y-44897660D01*
X45185138Y-44834714D01*
X45182678Y-44826069D01*
X45083510Y-44626914D01*
X45066427Y-44604293D01*
X44949431Y-44449364D01*
X44935880Y-44437011D01*
X44785013Y-44299477D01*
X44785012Y-44299476D01*
X44595851Y-44182353D01*
X44595850Y-44182352D01*
X44595846Y-44182350D01*
X44595844Y-44182349D01*
X44388394Y-44101983D01*
X44388391Y-44101982D01*
X44388390Y-44101982D01*
X44205893Y-44067867D01*
X44136329Y-44034555D01*
X44092742Y-43970924D01*
X44086809Y-43894025D01*
X44120121Y-43824461D01*
X44176253Y-43783746D01*
X44244841Y-43755336D01*
X44337700Y-43684083D01*
X44341490Y-43681174D01*
X44370282Y-43659082D01*
X44391479Y-43631455D01*
X44397900Y-43624133D01*
X46375650Y-41646385D01*
X46570533Y-41451500D01*
X46577855Y-41445079D01*
X46605482Y-41423882D01*
X46701736Y-41298441D01*
X46762244Y-41152362D01*
X46777700Y-41034961D01*
X46782882Y-40995600D01*
X46778337Y-40961081D01*
X46777700Y-40951352D01*
X46777700Y-37077446D01*
X46778337Y-37067719D01*
X46782882Y-37033200D01*
X46782633Y-37031306D01*
X46762245Y-36876440D01*
X46701736Y-36730359D01*
X46629650Y-36636415D01*
X46605481Y-36604917D01*
X46577862Y-36583724D01*
X46570527Y-36577292D01*
X42162591Y-32169356D01*
X42124027Y-32102561D01*
X42118950Y-32063997D01*
X42118950Y-31285569D01*
X42138912Y-31211069D01*
X42189510Y-31158888D01*
X42245012Y-31124524D01*
X42409431Y-30974636D01*
X42543508Y-30797089D01*
X42642679Y-30597928D01*
X42645138Y-30589287D01*
X42684725Y-30523094D01*
X42752106Y-30485563D01*
X42829225Y-30486750D01*
X42895418Y-30526337D01*
X42931762Y-30589287D01*
X42934220Y-30597928D01*
X43033389Y-30797085D01*
X43033391Y-30797088D01*
X43033392Y-30797089D01*
X43167469Y-30974636D01*
X43331888Y-31124524D01*
X43387389Y-31158888D01*
X43440219Y-31215076D01*
X43457950Y-31285569D01*
X43457950Y-31517402D01*
X43457312Y-31527131D01*
X43453960Y-31552590D01*
X43452768Y-31561649D01*
X43452768Y-31561651D01*
X43457950Y-31601011D01*
X43473404Y-31718407D01*
X43533912Y-31864488D01*
X43533913Y-31864490D01*
X43533914Y-31864491D01*
X43630168Y-31989932D01*
X43630171Y-31989934D01*
X43657786Y-32011124D01*
X43665122Y-32017557D01*
X47717459Y-36069894D01*
X47756023Y-36136689D01*
X47761100Y-36175253D01*
X47761100Y-37446152D01*
X47760462Y-37455887D01*
X47755918Y-37490399D01*
X47755918Y-37490401D01*
X47761100Y-37529761D01*
X47776554Y-37647157D01*
X47837062Y-37793238D01*
X47837063Y-37793240D01*
X47837064Y-37793241D01*
X47933318Y-37918682D01*
X47933321Y-37918684D01*
X47960936Y-37939874D01*
X47968272Y-37946307D01*
X51664892Y-41642927D01*
X51671323Y-41650261D01*
X51692516Y-41677880D01*
X51692518Y-41677882D01*
X51701688Y-41684918D01*
X51781846Y-41746426D01*
X51796935Y-41758003D01*
X51817959Y-41774136D01*
X51817962Y-41774137D01*
X51817963Y-41774138D01*
X51817962Y-41774138D01*
X51964040Y-41834645D01*
X52120797Y-41855282D01*
X52120800Y-41855282D01*
X52120801Y-41855282D01*
X52129575Y-41854126D01*
X52155317Y-41850737D01*
X52165047Y-41850100D01*
X57703147Y-41850100D01*
X57777647Y-41870062D01*
X57808506Y-41893741D01*
X59198259Y-43283494D01*
X59236823Y-43350289D01*
X59241900Y-43388853D01*
X59241900Y-51657946D01*
X59221938Y-51732446D01*
X59198259Y-51763305D01*
X53626269Y-57335294D01*
X53618936Y-57341725D01*
X53591318Y-57362918D01*
X53591314Y-57362922D01*
X53478842Y-57509497D01*
X53469228Y-57550731D01*
X53434554Y-57634440D01*
X53418078Y-57759600D01*
X53413918Y-57791200D01*
X53418462Y-57825719D01*
X53419100Y-57835446D01*
X53419100Y-58397314D01*
X53399138Y-58471814D01*
X53344600Y-58526352D01*
X53327125Y-58534970D01*
X53316759Y-58539263D01*
X53316754Y-58539266D01*
X53191319Y-58635516D01*
X53191317Y-58635518D01*
X53095063Y-58760959D01*
X53034555Y-58907041D01*
X53032318Y-58924030D01*
X53002800Y-58995286D01*
X52941609Y-59042237D01*
X52865140Y-59052302D01*
X52848938Y-59049248D01*
X52809385Y-59039500D01*
X52651415Y-59039500D01*
X52599474Y-59052302D01*
X52498036Y-59077303D01*
X52358160Y-59150716D01*
X52239916Y-59255470D01*
X52150179Y-59385477D01*
X52094163Y-59533179D01*
X52075122Y-59690000D01*
X52094163Y-59846820D01*
X52150179Y-59994522D01*
X52150180Y-59994523D01*
X52239917Y-60124530D01*
X52358160Y-60229283D01*
X52498035Y-60302696D01*
X52651415Y-60340500D01*
X52651417Y-60340500D01*
X52809384Y-60340500D01*
X52809385Y-60340500D01*
X52849243Y-60330676D01*
X52926354Y-60332229D01*
X52992359Y-60372130D01*
X53029570Y-60439687D01*
X53032625Y-60455899D01*
X53034554Y-60470555D01*
X53034555Y-60470560D01*
X53095063Y-60616640D01*
X53174590Y-60720281D01*
X53191318Y-60742082D01*
X53316759Y-60838336D01*
X53462838Y-60898844D01*
X53462841Y-60898844D01*
X53462843Y-60898845D01*
X53462840Y-60898845D01*
X53527297Y-60907330D01*
X53580239Y-60914300D01*
X54458960Y-60914299D01*
X54576362Y-60898844D01*
X54722441Y-60838336D01*
X54847882Y-60742082D01*
X54944136Y-60616641D01*
X55004644Y-60470562D01*
X55005967Y-60460517D01*
X55012371Y-60411861D01*
X55020100Y-60353161D01*
X55020099Y-59024440D01*
X55004644Y-58907038D01*
X54944136Y-58760959D01*
X54847882Y-58635518D01*
X54847880Y-58635516D01*
X54722445Y-58539266D01*
X54722440Y-58539263D01*
X54712075Y-58534970D01*
X54650887Y-58488015D01*
X54621374Y-58416757D01*
X54620100Y-58397314D01*
X54620100Y-58101652D01*
X54640062Y-58027152D01*
X54663741Y-57996293D01*
X57420918Y-55239116D01*
X60235733Y-52424300D01*
X60243055Y-52417879D01*
X60270682Y-52396682D01*
X60366936Y-52271241D01*
X60427444Y-52125162D01*
X60442900Y-52007761D01*
X60448082Y-51968400D01*
X60448045Y-51968122D01*
X60443538Y-51933887D01*
X60442900Y-51924152D01*
X60442900Y-43122646D01*
X60443537Y-43112919D01*
X60448082Y-43078400D01*
X60448082Y-43078397D01*
X60427445Y-42921640D01*
X60366936Y-42775559D01*
X60294850Y-42681615D01*
X60280805Y-42663311D01*
X60270682Y-42650118D01*
X60244855Y-42630300D01*
X60243062Y-42628924D01*
X60235727Y-42622492D01*
X58469507Y-40856272D01*
X58463074Y-40848936D01*
X58441882Y-40821318D01*
X58316440Y-40725063D01*
X58220068Y-40685145D01*
X58170362Y-40664556D01*
X58170360Y-40664555D01*
X58170356Y-40664554D01*
X58170358Y-40664554D01*
X58052961Y-40649100D01*
X58013601Y-40643918D01*
X58013599Y-40643918D01*
X58004824Y-40645073D01*
X57979082Y-40648462D01*
X57969353Y-40649100D01*
X52431253Y-40649100D01*
X52356753Y-40629138D01*
X52325894Y-40605459D01*
X49005741Y-37285306D01*
X48967177Y-37218511D01*
X48962100Y-37179947D01*
X48962100Y-35909046D01*
X48962737Y-35899319D01*
X48967282Y-35864800D01*
X48966589Y-35859535D01*
X48946645Y-35708040D01*
X48886136Y-35561959D01*
X48814050Y-35468015D01*
X48789881Y-35436517D01*
X48762262Y-35415324D01*
X48754927Y-35408892D01*
X44723820Y-31377784D01*
X44685256Y-31310989D01*
X44685256Y-31233861D01*
X44723820Y-31167066D01*
X44750736Y-31145746D01*
X44785012Y-31124524D01*
X44949431Y-30974636D01*
X45083508Y-30797089D01*
X45182679Y-30597928D01*
X45185138Y-30589287D01*
X45224725Y-30523094D01*
X45292106Y-30485563D01*
X45369225Y-30486750D01*
X45435418Y-30526337D01*
X45471762Y-30589287D01*
X45474220Y-30597928D01*
X45573389Y-30797085D01*
X45573391Y-30797088D01*
X45573392Y-30797089D01*
X45707469Y-30974636D01*
X45871888Y-31124524D01*
X46061049Y-31241647D01*
X46061051Y-31241647D01*
X46061053Y-31241649D01*
X46061055Y-31241650D01*
X46240041Y-31310989D01*
X46268510Y-31322018D01*
X46487207Y-31362900D01*
X46487209Y-31362900D01*
X46709691Y-31362900D01*
X46709693Y-31362900D01*
X46928390Y-31322018D01*
X47054899Y-31273007D01*
X47135844Y-31241650D01*
X47135846Y-31241649D01*
X47135846Y-31241648D01*
X47135851Y-31241647D01*
X47325012Y-31124524D01*
X47489431Y-30974636D01*
X47623508Y-30797089D01*
X47722679Y-30597928D01*
X47725138Y-30589287D01*
X47764725Y-30523094D01*
X47832106Y-30485563D01*
X47909225Y-30486750D01*
X47975418Y-30526337D01*
X48011762Y-30589287D01*
X48014220Y-30597928D01*
X48113389Y-30797085D01*
X48113391Y-30797088D01*
X48113392Y-30797089D01*
X48247469Y-30974636D01*
X48411888Y-31124524D01*
X48467387Y-31158887D01*
X48520219Y-31215076D01*
X48537949Y-31285569D01*
X48537949Y-32533401D01*
X48537311Y-32543134D01*
X48532768Y-32577649D01*
X48532768Y-32577651D01*
X48537950Y-32617011D01*
X48553404Y-32734407D01*
X48613912Y-32880488D01*
X48613913Y-32880490D01*
X48613914Y-32880491D01*
X48710168Y-33005932D01*
X48710171Y-33005934D01*
X48737786Y-33027124D01*
X48745121Y-33033557D01*
X51527460Y-35815895D01*
X51566023Y-35882688D01*
X51571100Y-35921252D01*
X51571100Y-37192152D01*
X51570462Y-37201881D01*
X51568273Y-37218511D01*
X51565918Y-37236399D01*
X51565918Y-37236401D01*
X51571100Y-37275761D01*
X51586554Y-37393157D01*
X51647062Y-37539238D01*
X51647063Y-37539240D01*
X51647064Y-37539241D01*
X51743318Y-37664682D01*
X51743321Y-37664684D01*
X51770936Y-37685874D01*
X51778272Y-37692307D01*
X53544492Y-39458527D01*
X53550923Y-39465861D01*
X53572116Y-39493480D01*
X53572118Y-39493482D01*
X53572121Y-39493484D01*
X53676010Y-39573201D01*
X53697558Y-39589736D01*
X53697559Y-39589737D01*
X53843640Y-39650245D01*
X54000397Y-39670882D01*
X54000400Y-39670882D01*
X54000401Y-39670882D01*
X54009175Y-39669726D01*
X54034917Y-39666337D01*
X54044647Y-39665700D01*
X58820747Y-39665700D01*
X58895247Y-39685662D01*
X58926106Y-39709341D01*
X61382658Y-42165893D01*
X61421222Y-42232688D01*
X61426299Y-42271252D01*
X61426299Y-56331546D01*
X61406337Y-56406046D01*
X61382658Y-56436905D01*
X60465069Y-57354493D01*
X60457736Y-57360924D01*
X60430121Y-57382114D01*
X60430117Y-57382118D01*
X60405950Y-57413615D01*
X60333863Y-57507559D01*
X60333862Y-57507559D01*
X60273354Y-57653640D01*
X60252718Y-57810397D01*
X60252718Y-57810398D01*
X60257261Y-57844913D01*
X60257899Y-57854647D01*
X60257899Y-58356430D01*
X60237937Y-58430930D01*
X60183399Y-58485468D01*
X60165919Y-58494088D01*
X60053959Y-58540463D01*
X59928518Y-58636717D01*
X59928517Y-58636718D01*
X59832263Y-58762159D01*
X59771754Y-58908241D01*
X59770275Y-58919482D01*
X59740759Y-58990738D01*
X59679569Y-59037691D01*
X59603100Y-59047757D01*
X59586897Y-59044703D01*
X59565785Y-59039500D01*
X59407815Y-59039500D01*
X59355874Y-59052302D01*
X59254436Y-59077303D01*
X59114560Y-59150716D01*
X58996316Y-59255470D01*
X58906579Y-59385477D01*
X58850563Y-59533179D01*
X58831522Y-59690000D01*
X58850563Y-59846820D01*
X58906579Y-59994522D01*
X58906580Y-59994523D01*
X58996317Y-60124530D01*
X59114560Y-60229283D01*
X59254435Y-60302696D01*
X59407815Y-60340500D01*
X59407817Y-60340500D01*
X59565782Y-60340500D01*
X59565785Y-60340500D01*
X59586894Y-60335297D01*
X59664001Y-60336849D01*
X59730007Y-60376749D01*
X59767220Y-60444306D01*
X59770275Y-60460517D01*
X59771754Y-60471757D01*
X59771755Y-60471760D01*
X59832263Y-60617840D01*
X59910870Y-60720282D01*
X59928518Y-60743282D01*
X60053959Y-60839536D01*
X60200038Y-60900044D01*
X60200041Y-60900044D01*
X60200043Y-60900045D01*
X60200040Y-60900045D01*
X60264497Y-60908530D01*
X60317439Y-60915500D01*
X61196160Y-60915499D01*
X61313562Y-60900044D01*
X61459641Y-60839536D01*
X61585082Y-60743282D01*
X61681336Y-60617841D01*
X61741844Y-60471762D01*
X61742003Y-60470560D01*
X61757300Y-60354361D01*
X61757299Y-59025643D01*
X61757299Y-59025640D01*
X61741844Y-58908238D01*
X61681336Y-58762159D01*
X61585082Y-58636718D01*
X61585081Y-58636717D01*
X61585079Y-58636715D01*
X61517194Y-58584625D01*
X61470242Y-58523436D01*
X61458900Y-58466416D01*
X61458900Y-58120852D01*
X61478862Y-58046352D01*
X61502541Y-58015493D01*
X61915255Y-57602779D01*
X62420133Y-57097900D01*
X62427455Y-57091479D01*
X62455082Y-57070282D01*
X62551336Y-56944841D01*
X62611844Y-56798762D01*
X62627300Y-56681361D01*
X62632482Y-56642000D01*
X62627937Y-56607481D01*
X62627300Y-56597752D01*
X62627300Y-42005046D01*
X62627937Y-41995319D01*
X62632482Y-41960800D01*
X62623654Y-41893741D01*
X62611845Y-41804040D01*
X62551337Y-41657959D01*
X62526728Y-41625890D01*
X62507846Y-41601282D01*
X62455082Y-41532518D01*
X62455080Y-41532516D01*
X62427461Y-41511323D01*
X62420127Y-41504892D01*
X59587107Y-38671872D01*
X59580674Y-38664536D01*
X59559482Y-38636918D01*
X59434040Y-38540663D01*
X59319076Y-38493044D01*
X59287962Y-38480156D01*
X59287960Y-38480155D01*
X59287956Y-38480154D01*
X59287958Y-38480154D01*
X59170561Y-38464700D01*
X59131201Y-38459518D01*
X59131199Y-38459518D01*
X59122424Y-38460673D01*
X59096682Y-38464062D01*
X59086953Y-38464700D01*
X54310853Y-38464700D01*
X54236353Y-38444738D01*
X54205494Y-38421059D01*
X52815741Y-37031306D01*
X52777177Y-36964511D01*
X52772100Y-36925947D01*
X52772100Y-35655046D01*
X52772737Y-35645319D01*
X52777282Y-35610800D01*
X52777282Y-35610797D01*
X52756645Y-35454040D01*
X52696136Y-35307959D01*
X52624050Y-35214015D01*
X52599881Y-35182517D01*
X52572262Y-35161324D01*
X52564927Y-35154892D01*
X51242829Y-33832794D01*
X49782588Y-32372553D01*
X49744026Y-32305761D01*
X49738950Y-32267204D01*
X49738950Y-31285569D01*
X49758912Y-31211069D01*
X49809510Y-31158888D01*
X49865012Y-31124524D01*
X50029431Y-30974636D01*
X50163508Y-30797089D01*
X50262679Y-30597928D01*
X50323565Y-30383936D01*
X50344093Y-30162400D01*
X50323565Y-29940864D01*
X50262679Y-29726872D01*
X50236552Y-29674402D01*
X50163510Y-29527714D01*
X50029430Y-29350163D01*
X49865013Y-29200277D01*
X49865012Y-29200276D01*
X49675851Y-29083153D01*
X49675850Y-29083152D01*
X49675846Y-29083150D01*
X49675844Y-29083149D01*
X49468394Y-29002783D01*
X49468391Y-29002782D01*
X49468390Y-29002782D01*
X49413224Y-28992469D01*
X49249697Y-28961900D01*
X49249693Y-28961900D01*
X49027207Y-28961900D01*
X49027202Y-28961900D01*
X48808505Y-29002783D01*
X48601055Y-29083149D01*
X48601053Y-29083150D01*
X48411886Y-29200277D01*
X48247469Y-29350163D01*
X48113389Y-29527714D01*
X48014221Y-29726869D01*
X48011762Y-29735514D01*
X47972173Y-29801707D01*
X47904792Y-29839237D01*
X47827673Y-29838049D01*
X47761480Y-29798460D01*
X47725138Y-29735514D01*
X47722678Y-29726869D01*
X47623510Y-29527714D01*
X47489430Y-29350163D01*
X47325013Y-29200277D01*
X47325012Y-29200276D01*
X47135851Y-29083153D01*
X47135850Y-29083152D01*
X47135846Y-29083150D01*
X47135844Y-29083149D01*
X46928394Y-29002783D01*
X46928391Y-29002782D01*
X46928390Y-29002782D01*
X46873224Y-28992469D01*
X46709697Y-28961900D01*
X46709693Y-28961900D01*
X46487207Y-28961900D01*
X46487202Y-28961900D01*
X46268505Y-29002783D01*
X46061055Y-29083149D01*
X46061053Y-29083150D01*
X45871886Y-29200277D01*
X45707469Y-29350163D01*
X45573389Y-29527714D01*
X45474221Y-29726869D01*
X45471762Y-29735514D01*
X45432173Y-29801707D01*
X45364792Y-29839237D01*
X45287673Y-29838049D01*
X45221480Y-29798460D01*
X45185138Y-29735514D01*
X45182678Y-29726869D01*
X45083510Y-29527714D01*
X44949430Y-29350163D01*
X44785013Y-29200277D01*
X44785012Y-29200276D01*
X44595851Y-29083153D01*
X44595850Y-29083152D01*
X44595846Y-29083150D01*
X44595844Y-29083149D01*
X44388394Y-29002783D01*
X44388391Y-29002782D01*
X44388390Y-29002782D01*
X44333224Y-28992469D01*
X44169697Y-28961900D01*
X44169693Y-28961900D01*
X43947207Y-28961900D01*
X43947202Y-28961900D01*
X43728505Y-29002783D01*
X43521055Y-29083149D01*
X43521053Y-29083150D01*
X43331886Y-29200277D01*
X43167469Y-29350163D01*
X43033389Y-29527714D01*
X42934221Y-29726869D01*
X42931762Y-29735514D01*
X42892173Y-29801707D01*
X42824792Y-29839237D01*
X42747673Y-29838049D01*
X42681480Y-29798460D01*
X42645138Y-29735514D01*
X42642678Y-29726869D01*
X42543510Y-29527714D01*
X42409430Y-29350163D01*
X42245013Y-29200277D01*
X42245012Y-29200276D01*
X42055851Y-29083153D01*
X42055850Y-29083152D01*
X42055846Y-29083150D01*
X42055844Y-29083149D01*
X41848394Y-29002783D01*
X41848391Y-29002782D01*
X41848390Y-29002782D01*
X41793225Y-28992469D01*
X41629697Y-28961900D01*
X41629693Y-28961900D01*
X41407207Y-28961900D01*
X41407202Y-28961900D01*
X41188505Y-29002783D01*
X40981055Y-29083149D01*
X40981053Y-29083150D01*
X40791886Y-29200277D01*
X40627469Y-29350163D01*
X40493389Y-29527714D01*
X40461329Y-29592100D01*
X40410252Y-29649892D01*
X40337122Y-29674402D01*
X40261535Y-29659064D01*
X40203743Y-29607987D01*
X40179233Y-29534857D01*
X40178950Y-29525685D01*
X40178950Y-29279141D01*
X40178949Y-29279131D01*
X40169023Y-29211006D01*
X40169023Y-29211005D01*
X40117649Y-29105918D01*
X40034931Y-29023200D01*
X39929844Y-28971826D01*
X39861718Y-28961900D01*
X39861710Y-28961900D01*
X38095190Y-28961900D01*
X38095181Y-28961900D01*
X38027056Y-28971826D01*
X38027055Y-28971826D01*
X37921968Y-29023200D01*
X37839250Y-29105918D01*
X37787876Y-29211005D01*
X37787876Y-29211006D01*
X37777950Y-29279131D01*
X37777950Y-31045668D01*
X37787876Y-31113793D01*
X37787876Y-31113794D01*
X37839250Y-31218881D01*
X37921968Y-31301599D01*
X38027055Y-31352973D01*
X38095181Y-31362899D01*
X38095187Y-31362899D01*
X38095190Y-31362900D01*
X38228950Y-31362900D01*
X38303450Y-31382862D01*
X38357988Y-31437400D01*
X38377950Y-31511900D01*
X38377950Y-32533402D01*
X38377312Y-32543137D01*
X38372768Y-32577649D01*
X38372768Y-32577651D01*
X38377950Y-32617011D01*
X38393404Y-32734407D01*
X38453912Y-32880488D01*
X38453913Y-32880490D01*
X38453914Y-32880491D01*
X38550168Y-33005932D01*
X38550171Y-33005934D01*
X38577786Y-33027124D01*
X38585122Y-33033557D01*
X43602659Y-38051094D01*
X43641223Y-38117889D01*
X43646300Y-38156453D01*
X43646300Y-40227946D01*
X43626338Y-40302446D01*
X43602659Y-40333305D01*
X42466906Y-41469059D01*
X42400111Y-41507623D01*
X42361547Y-41512700D01*
X36518647Y-41512700D01*
X36508917Y-41512062D01*
X36483175Y-41508673D01*
X36474401Y-41507518D01*
X36474399Y-41507518D01*
X36435039Y-41512700D01*
X36317642Y-41528154D01*
X36171559Y-41588663D01*
X36046118Y-41684917D01*
X36024924Y-41712538D01*
X36018492Y-41719872D01*
X25413069Y-52325293D01*
X25405736Y-52331724D01*
X25378121Y-52352914D01*
X25378117Y-52352918D01*
X25353950Y-52384415D01*
X25281863Y-52478359D01*
X25281861Y-52478361D01*
X25269955Y-52507105D01*
X25223001Y-52568293D01*
X25151743Y-52597807D01*
X25075275Y-52587737D01*
X25014087Y-52540783D01*
X24984573Y-52469525D01*
X24983300Y-52450096D01*
X24983300Y-43434005D01*
X27151573Y-43434005D01*
X27170455Y-43698012D01*
X27170457Y-43698028D01*
X27226721Y-43956672D01*
X27226722Y-43956676D01*
X27226723Y-43956678D01*
X27319226Y-44204689D01*
X27339839Y-44242438D01*
X27446081Y-44437008D01*
X27541688Y-44564724D01*
X27604713Y-44648915D01*
X27791885Y-44836087D01*
X27874137Y-44897660D01*
X28003791Y-44994718D01*
X28119949Y-45058144D01*
X28236111Y-45121574D01*
X28484122Y-45214077D01*
X28742774Y-45270343D01*
X28742785Y-45270343D01*
X28742787Y-45270344D01*
X29006795Y-45289227D01*
X29006800Y-45289227D01*
X29006805Y-45289227D01*
X29270812Y-45270344D01*
X29270811Y-45270344D01*
X29270826Y-45270343D01*
X29529478Y-45214077D01*
X29777489Y-45121574D01*
X29963510Y-45019998D01*
X30009808Y-44994718D01*
X30009811Y-44994716D01*
X30221715Y-44836087D01*
X30408887Y-44648915D01*
X30567516Y-44437011D01*
X30588163Y-44399200D01*
X30621837Y-44337530D01*
X30694374Y-44204689D01*
X30786877Y-43956678D01*
X30843143Y-43698026D01*
X30845928Y-43659082D01*
X30862027Y-43434005D01*
X30862027Y-43433994D01*
X30843144Y-43169987D01*
X30843143Y-43169985D01*
X30843143Y-43169974D01*
X30786877Y-42911322D01*
X30783745Y-42902926D01*
X30776412Y-42826150D01*
X30808451Y-42755991D01*
X30817981Y-42745506D01*
X32936347Y-40627139D01*
X33003142Y-40588576D01*
X33041706Y-40583499D01*
X33229556Y-40583499D01*
X33229560Y-40583499D01*
X33346962Y-40568044D01*
X33493041Y-40507536D01*
X33618482Y-40411282D01*
X33714736Y-40285841D01*
X33775244Y-40139762D01*
X33778836Y-40112483D01*
X33790699Y-40022366D01*
X33790700Y-40022361D01*
X33790699Y-39268640D01*
X33775244Y-39151238D01*
X33714736Y-39005159D01*
X33618482Y-38879718D01*
X33608458Y-38872026D01*
X33493039Y-38783462D01*
X33401769Y-38745658D01*
X33340579Y-38698706D01*
X33311063Y-38627449D01*
X33321130Y-38550981D01*
X33368082Y-38489791D01*
X33401769Y-38470342D01*
X33416931Y-38464062D01*
X33493041Y-38432536D01*
X33618482Y-38336282D01*
X33700575Y-38229295D01*
X33761766Y-38182342D01*
X33818786Y-38171000D01*
X36447247Y-38171000D01*
X36521747Y-38190962D01*
X36552606Y-38214641D01*
X38135870Y-39797905D01*
X38169826Y-39850424D01*
X38180180Y-39877723D01*
X38269917Y-40007730D01*
X38388160Y-40112483D01*
X38528035Y-40185896D01*
X38681415Y-40223700D01*
X38681417Y-40223700D01*
X38839383Y-40223700D01*
X38839385Y-40223700D01*
X38992765Y-40185896D01*
X39132640Y-40112483D01*
X39250883Y-40007730D01*
X39340620Y-39877723D01*
X39396637Y-39730018D01*
X39415678Y-39573200D01*
X39396637Y-39416382D01*
X39340620Y-39268677D01*
X39250883Y-39138670D01*
X39132640Y-39033917D01*
X39132638Y-39033915D01*
X39021628Y-38975652D01*
X38985514Y-38949079D01*
X37213607Y-37177172D01*
X37207174Y-37169836D01*
X37185984Y-37142221D01*
X37185982Y-37142218D01*
X37060541Y-37045964D01*
X37060540Y-37045963D01*
X37060538Y-37045962D01*
X36971504Y-37009083D01*
X36914462Y-36985456D01*
X36914460Y-36985455D01*
X36914456Y-36985454D01*
X36914458Y-36985454D01*
X36797061Y-36970000D01*
X36757701Y-36964818D01*
X36757699Y-36964818D01*
X36748924Y-36965973D01*
X36723182Y-36969362D01*
X36713453Y-36970000D01*
X33818786Y-36970000D01*
X33744286Y-36950038D01*
X33700576Y-36911705D01*
X33618482Y-36804718D01*
X33618481Y-36804717D01*
X33493040Y-36708463D01*
X33413144Y-36675369D01*
X33346962Y-36647956D01*
X33346960Y-36647955D01*
X33346956Y-36647954D01*
X33346959Y-36647954D01*
X33229566Y-36632500D01*
X33229561Y-36632500D01*
X33041707Y-36632500D01*
X32967207Y-36612538D01*
X32936348Y-36588859D01*
X30829415Y-34481926D01*
X30790851Y-34415131D01*
X30789179Y-34344895D01*
X30843143Y-34096826D01*
X30862027Y-33832800D01*
X30843143Y-33568774D01*
X30786877Y-33310122D01*
X30694374Y-33062111D01*
X30595200Y-32880488D01*
X30567518Y-32829791D01*
X30496114Y-32734407D01*
X30408887Y-32617885D01*
X30221715Y-32430713D01*
X30087448Y-32330202D01*
X30009813Y-32272085D01*
X30009679Y-32272012D01*
X30008896Y-32271584D01*
X30008611Y-32271312D01*
X30005332Y-32269205D01*
X30005737Y-32268573D01*
X29953075Y-32218365D01*
X29931340Y-32144362D01*
X29949519Y-32069407D01*
X29974935Y-32035452D01*
X34700247Y-27310141D01*
X34767043Y-27271577D01*
X34805607Y-27266500D01*
X54297593Y-27266500D01*
X54372093Y-27286462D01*
X54402952Y-27310140D01*
X55864310Y-28771499D01*
X55902873Y-28838292D01*
X55907950Y-28876856D01*
X55907950Y-29248035D01*
X55887988Y-29322535D01*
X55869074Y-29348403D01*
X55867472Y-29350160D01*
X55733389Y-29527713D01*
X55634221Y-29726869D01*
X55631762Y-29735514D01*
X55592173Y-29801707D01*
X55524792Y-29839237D01*
X55447673Y-29838049D01*
X55381480Y-29798460D01*
X55345138Y-29735514D01*
X55342678Y-29726869D01*
X55243510Y-29527714D01*
X55109430Y-29350163D01*
X54945013Y-29200277D01*
X54945012Y-29200276D01*
X54755851Y-29083153D01*
X54755850Y-29083152D01*
X54755846Y-29083150D01*
X54755844Y-29083149D01*
X54548394Y-29002783D01*
X54548391Y-29002782D01*
X54548390Y-29002782D01*
X54493224Y-28992469D01*
X54329697Y-28961900D01*
X54329693Y-28961900D01*
X54107207Y-28961900D01*
X54107202Y-28961900D01*
X53888505Y-29002783D01*
X53681055Y-29083149D01*
X53681053Y-29083150D01*
X53491886Y-29200277D01*
X53327469Y-29350163D01*
X53193389Y-29527714D01*
X53094220Y-29726871D01*
X53033334Y-29940865D01*
X53033334Y-29940868D01*
X53012807Y-30162395D01*
X53012807Y-30162404D01*
X53033334Y-30383931D01*
X53033334Y-30383934D01*
X53094220Y-30597928D01*
X53193389Y-30797085D01*
X53193391Y-30797088D01*
X53193392Y-30797089D01*
X53327469Y-30974636D01*
X53491888Y-31124524D01*
X53681049Y-31241647D01*
X53681051Y-31241647D01*
X53681053Y-31241649D01*
X53681055Y-31241650D01*
X53860041Y-31310989D01*
X53888510Y-31322018D01*
X54107207Y-31362900D01*
X54107209Y-31362900D01*
X54329691Y-31362900D01*
X54329693Y-31362900D01*
X54548390Y-31322018D01*
X54674899Y-31273007D01*
X54755844Y-31241650D01*
X54755846Y-31241649D01*
X54755846Y-31241648D01*
X54755851Y-31241647D01*
X54945012Y-31124524D01*
X55109431Y-30974636D01*
X55243508Y-30797089D01*
X55342679Y-30597928D01*
X55345138Y-30589287D01*
X55384725Y-30523094D01*
X55452106Y-30485563D01*
X55529225Y-30486750D01*
X55595418Y-30526337D01*
X55631762Y-30589287D01*
X55634220Y-30597928D01*
X55733389Y-30797085D01*
X55733391Y-30797088D01*
X55733392Y-30797089D01*
X55867469Y-30974636D01*
X56031888Y-31124524D01*
X56221049Y-31241647D01*
X56221051Y-31241647D01*
X56221053Y-31241649D01*
X56221055Y-31241650D01*
X56400041Y-31310989D01*
X56428510Y-31322018D01*
X56647207Y-31362900D01*
X56647209Y-31362900D01*
X56869691Y-31362900D01*
X56869693Y-31362900D01*
X57088390Y-31322018D01*
X57214899Y-31273007D01*
X57295844Y-31241650D01*
X57295846Y-31241649D01*
X57295846Y-31241648D01*
X57295851Y-31241647D01*
X57485012Y-31124524D01*
X57649431Y-30974636D01*
X57783508Y-30797089D01*
X57882679Y-30597928D01*
X57943565Y-30383936D01*
X57964093Y-30162400D01*
X57943565Y-29940864D01*
X57882679Y-29726872D01*
X57882678Y-29726869D01*
X57783510Y-29527713D01*
X57738815Y-29468528D01*
X57649431Y-29350164D01*
X57649427Y-29350160D01*
X57647826Y-29348403D01*
X57647229Y-29347249D01*
X57645280Y-29344668D01*
X57645721Y-29344334D01*
X57612396Y-29279894D01*
X57608950Y-29248035D01*
X57608950Y-28500439D01*
X57609196Y-28494390D01*
X57609836Y-28486537D01*
X57613651Y-28439683D01*
X57602720Y-28359457D01*
X57593964Y-28278940D01*
X57593961Y-28278933D01*
X57592226Y-28271045D01*
X57592354Y-28271016D01*
X57590755Y-28264193D01*
X57590627Y-28264225D01*
X57588677Y-28256386D01*
X57588677Y-28256382D01*
X57560749Y-28180363D01*
X57534894Y-28103629D01*
X57534888Y-28103620D01*
X57531504Y-28096303D01*
X57531622Y-28096248D01*
X57528583Y-28089906D01*
X57528468Y-28089964D01*
X57524881Y-28082732D01*
X57481265Y-28014496D01*
X57439522Y-27945117D01*
X57434631Y-27938683D01*
X57434735Y-27938603D01*
X57430415Y-27933077D01*
X57430313Y-27933160D01*
X57425252Y-27926864D01*
X57425250Y-27926861D01*
X57367989Y-27869600D01*
X57361258Y-27862494D01*
X57312301Y-27810810D01*
X57306144Y-27805581D01*
X57306227Y-27805482D01*
X57292651Y-27794262D01*
X57015193Y-27516804D01*
X63715585Y-27516804D01*
X63734402Y-27719878D01*
X63790216Y-27916045D01*
X63790217Y-27916047D01*
X63790218Y-27916050D01*
X63824579Y-27985057D01*
X63881128Y-28098623D01*
X63939784Y-28176296D01*
X64004036Y-28261379D01*
X64111623Y-28359457D01*
X64154758Y-28398780D01*
X64154763Y-28398784D01*
X64328158Y-28506145D01*
X64328167Y-28506150D01*
X64338108Y-28510000D01*
X64359287Y-28518205D01*
X64362562Y-28519587D01*
X64362803Y-28519670D01*
X64362804Y-28519671D01*
X64363605Y-28519948D01*
X64365305Y-28520537D01*
X64367306Y-28521312D01*
X64518344Y-28579824D01*
X64550920Y-28585913D01*
X64554735Y-28586733D01*
X64560865Y-28588220D01*
X64560875Y-28588224D01*
X64569456Y-28589457D01*
X64571293Y-28589722D01*
X64655694Y-28605499D01*
X64718824Y-28617300D01*
X64718827Y-28617300D01*
X64752450Y-28617300D01*
X64761211Y-28617926D01*
X64761222Y-28617713D01*
X64765311Y-28617907D01*
X64766112Y-28618162D01*
X64782450Y-28617384D01*
X64785998Y-28617300D01*
X64922774Y-28617300D01*
X64922776Y-28617300D01*
X64959089Y-28610512D01*
X64966376Y-28611074D01*
X64991926Y-28607400D01*
X65031793Y-28605499D01*
X65066041Y-28590519D01*
X65123256Y-28579824D01*
X65156456Y-28566962D01*
X65165316Y-28566003D01*
X65168439Y-28564577D01*
X65195208Y-28555312D01*
X65232087Y-28546364D01*
X65261628Y-28526218D01*
X65313437Y-28506148D01*
X65343277Y-28487671D01*
X65354019Y-28484435D01*
X65360461Y-28479848D01*
X65385001Y-28465679D01*
X65417673Y-28450758D01*
X65441789Y-28426675D01*
X65486841Y-28398781D01*
X65512883Y-28375040D01*
X65524793Y-28368878D01*
X65532960Y-28360314D01*
X65554367Y-28341765D01*
X65581989Y-28322094D01*
X65600253Y-28295391D01*
X65637564Y-28261379D01*
X65659182Y-28232752D01*
X65671442Y-28223192D01*
X65679730Y-28210296D01*
X65697246Y-28188023D01*
X65719189Y-28165010D01*
X65731483Y-28137009D01*
X65760473Y-28098621D01*
X65776921Y-28065588D01*
X65788561Y-28052416D01*
X65795453Y-28035203D01*
X65808433Y-28010026D01*
X65824478Y-27985057D01*
X65830960Y-27957063D01*
X65851382Y-27916050D01*
X65861847Y-27879267D01*
X65871878Y-27862494D01*
X65875945Y-27841394D01*
X65883928Y-27814210D01*
X65894135Y-27788715D01*
X65895244Y-27761890D01*
X65907197Y-27719883D01*
X65914111Y-27645263D01*
X65915138Y-27638056D01*
X65925764Y-27582922D01*
X65922170Y-27558288D01*
X65926015Y-27516800D01*
X65922170Y-27475309D01*
X65926092Y-27452377D01*
X65915138Y-27395543D01*
X65914111Y-27388333D01*
X65907197Y-27313717D01*
X65895244Y-27271710D01*
X65894859Y-27246689D01*
X65883927Y-27219383D01*
X65875946Y-27192203D01*
X65872129Y-27172404D01*
X65861847Y-27154331D01*
X65851382Y-27117550D01*
X65851379Y-27117545D01*
X65851378Y-27117540D01*
X65830959Y-27076534D01*
X65825647Y-27050360D01*
X65808433Y-27023573D01*
X65795453Y-26998396D01*
X65788981Y-26982231D01*
X65776923Y-26968015D01*
X65760473Y-26934979D01*
X65731480Y-26896586D01*
X65720833Y-26870313D01*
X65697246Y-26845576D01*
X65679732Y-26823306D01*
X65671953Y-26811201D01*
X65659185Y-26800851D01*
X65637564Y-26772221D01*
X65600249Y-26738204D01*
X65584111Y-26713015D01*
X65554365Y-26691832D01*
X65532962Y-26673286D01*
X65525322Y-26665274D01*
X65512883Y-26658559D01*
X65486841Y-26634819D01*
X65486836Y-26634815D01*
X65441785Y-26606921D01*
X65420246Y-26584013D01*
X65384999Y-26567917D01*
X65360464Y-26553752D01*
X65354512Y-26549513D01*
X65343281Y-26545930D01*
X65313437Y-26527452D01*
X65313433Y-26527450D01*
X65313431Y-26527449D01*
X65261620Y-26507377D01*
X65235059Y-26487954D01*
X65195210Y-26478286D01*
X65168448Y-26469024D01*
X65165722Y-26467779D01*
X65156456Y-26466637D01*
X65123261Y-26453777D01*
X65123250Y-26453775D01*
X65112791Y-26451819D01*
X65066028Y-26443078D01*
X65035065Y-26428250D01*
X64991917Y-26426195D01*
X64966869Y-26422594D01*
X64959098Y-26423089D01*
X64922778Y-26416300D01*
X64922776Y-26416300D01*
X64785917Y-26416300D01*
X64782399Y-26416216D01*
X64768341Y-26415547D01*
X64768340Y-26415547D01*
X64766220Y-26415446D01*
X64765351Y-26415690D01*
X64761266Y-26415885D01*
X64761255Y-26415670D01*
X64752450Y-26416300D01*
X64718824Y-26416300D01*
X64718821Y-26416300D01*
X64718815Y-26416301D01*
X64571443Y-26443848D01*
X64560955Y-26445355D01*
X64554726Y-26446866D01*
X64550865Y-26447695D01*
X64518345Y-26453775D01*
X64365291Y-26513068D01*
X64362559Y-26514014D01*
X64359272Y-26515400D01*
X64328157Y-26527454D01*
X64154759Y-26634819D01*
X64154758Y-26634819D01*
X64004034Y-26772223D01*
X63881128Y-26934976D01*
X63790216Y-27117554D01*
X63746393Y-27271577D01*
X63735421Y-27310141D01*
X63734402Y-27313721D01*
X63715585Y-27516795D01*
X63715585Y-27516804D01*
X57015193Y-27516804D01*
X55339571Y-25841182D01*
X55335485Y-25836751D01*
X55299937Y-25794900D01*
X55299934Y-25794898D01*
X55299932Y-25794895D01*
X55235492Y-25745909D01*
X55207649Y-25723529D01*
X55172354Y-25695158D01*
X55172350Y-25695156D01*
X55172349Y-25695155D01*
X55165544Y-25690805D01*
X55165613Y-25690695D01*
X55159652Y-25686998D01*
X55159585Y-25687110D01*
X55152660Y-25682943D01*
X55079160Y-25648939D01*
X55006621Y-25612964D01*
X55006619Y-25612963D01*
X55006616Y-25612962D01*
X54999041Y-25610179D01*
X54999086Y-25610056D01*
X54992459Y-25607723D01*
X54992418Y-25607846D01*
X54984764Y-25605266D01*
X54905673Y-25587858D01*
X54827096Y-25568316D01*
X54819095Y-25567226D01*
X54819112Y-25567098D01*
X54812138Y-25566244D01*
X54812125Y-25566373D01*
X54804097Y-25565500D01*
X54804096Y-25565500D01*
X54723132Y-25565500D01*
X54642173Y-25563306D01*
X54634115Y-25563963D01*
X54634104Y-25563833D01*
X54616572Y-25565500D01*
X34429189Y-25565500D01*
X34423147Y-25565254D01*
X34409017Y-25564103D01*
X34368432Y-25560798D01*
X34296797Y-25570558D01*
X34288207Y-25571729D01*
X34247948Y-25576107D01*
X34207689Y-25580486D01*
X34199800Y-25582223D01*
X34199772Y-25582097D01*
X34192941Y-25583698D01*
X34192972Y-25583823D01*
X34185136Y-25585771D01*
X34140218Y-25602272D01*
X34109113Y-25613700D01*
X34089929Y-25620164D01*
X34032376Y-25639556D01*
X34025047Y-25642947D01*
X34024993Y-25642832D01*
X34018664Y-25645864D01*
X34018721Y-25645978D01*
X34011485Y-25649566D01*
X33943259Y-25693176D01*
X33873865Y-25734929D01*
X33867432Y-25739819D01*
X33867355Y-25739717D01*
X33861819Y-25744045D01*
X33861900Y-25744146D01*
X33855610Y-25749201D01*
X33798369Y-25806442D01*
X33739558Y-25862150D01*
X33734332Y-25868304D01*
X33734234Y-25868220D01*
X33723013Y-25881797D01*
X28431986Y-31172823D01*
X28427536Y-31176925D01*
X28385704Y-31212458D01*
X28385696Y-31212466D01*
X28336709Y-31276907D01*
X28285955Y-31340049D01*
X28281604Y-31346856D01*
X28281497Y-31346787D01*
X28277799Y-31352749D01*
X28277909Y-31352816D01*
X28273747Y-31359732D01*
X28263046Y-31382862D01*
X28239739Y-31433239D01*
X28230745Y-31451373D01*
X28203764Y-31505776D01*
X28200981Y-31513355D01*
X28200858Y-31513310D01*
X28198525Y-31519936D01*
X28198647Y-31519978D01*
X28196067Y-31527633D01*
X28178658Y-31606726D01*
X28159114Y-31685309D01*
X28158025Y-31693307D01*
X28157898Y-31693289D01*
X28157044Y-31700265D01*
X28157173Y-31700280D01*
X28156299Y-31708308D01*
X28156299Y-31789267D01*
X28154106Y-31870227D01*
X28154763Y-31878289D01*
X28154632Y-31878299D01*
X28156300Y-31895828D01*
X28156300Y-32100400D01*
X28136338Y-32174900D01*
X28081800Y-32229438D01*
X28078709Y-32231174D01*
X28003789Y-32272083D01*
X27791886Y-32430712D01*
X27791884Y-32430713D01*
X27604713Y-32617884D01*
X27604712Y-32617886D01*
X27446081Y-32829791D01*
X27319227Y-33062109D01*
X27226721Y-33310127D01*
X27170457Y-33568771D01*
X27170455Y-33568787D01*
X27151573Y-33832794D01*
X27151573Y-33832805D01*
X27170455Y-34096812D01*
X27170457Y-34096828D01*
X27226721Y-34355472D01*
X27226722Y-34355476D01*
X27226723Y-34355478D01*
X27319226Y-34603489D01*
X27319227Y-34603490D01*
X27446081Y-34835808D01*
X27541688Y-34963524D01*
X27604713Y-35047715D01*
X27791885Y-35234887D01*
X27889498Y-35307959D01*
X28003791Y-35393518D01*
X28114626Y-35454038D01*
X28236111Y-35520374D01*
X28484122Y-35612877D01*
X28742774Y-35669143D01*
X28742785Y-35669143D01*
X28742787Y-35669144D01*
X29006795Y-35688027D01*
X29006800Y-35688027D01*
X29006805Y-35688027D01*
X29270812Y-35669144D01*
X29270811Y-35669144D01*
X29270826Y-35669143D01*
X29470765Y-35625649D01*
X29547806Y-35629319D01*
X29607796Y-35665885D01*
X31596059Y-37654147D01*
X31634623Y-37720942D01*
X31639700Y-37759505D01*
X31639700Y-37947356D01*
X31639701Y-37947360D01*
X31655156Y-38064762D01*
X31667571Y-38094735D01*
X31715663Y-38210840D01*
X31715664Y-38210841D01*
X31811918Y-38336282D01*
X31937359Y-38432536D01*
X32013469Y-38464062D01*
X32028631Y-38470342D01*
X32089821Y-38517294D01*
X32119336Y-38588551D01*
X32109269Y-38665020D01*
X32062317Y-38726210D01*
X32028631Y-38745658D01*
X31937359Y-38783463D01*
X31811918Y-38879717D01*
X31811917Y-38879718D01*
X31715663Y-39005159D01*
X31655154Y-39151242D01*
X31639700Y-39268633D01*
X31639700Y-39456492D01*
X31619738Y-39530992D01*
X31596059Y-39561851D01*
X29566072Y-41591837D01*
X29499277Y-41630401D01*
X29429042Y-41632073D01*
X29270832Y-41597658D01*
X29270827Y-41597657D01*
X29270826Y-41597657D01*
X29270824Y-41597656D01*
X29270812Y-41597655D01*
X29006805Y-41578773D01*
X29006795Y-41578773D01*
X28742787Y-41597655D01*
X28742771Y-41597657D01*
X28484127Y-41653921D01*
X28419885Y-41677882D01*
X28236111Y-41746426D01*
X28236109Y-41746426D01*
X28236109Y-41746427D01*
X28003791Y-41873281D01*
X27791886Y-42031912D01*
X27791884Y-42031913D01*
X27604713Y-42219084D01*
X27604712Y-42219086D01*
X27446081Y-42430991D01*
X27319227Y-42663309D01*
X27226721Y-42911327D01*
X27170457Y-43169971D01*
X27170455Y-43169987D01*
X27151573Y-43433994D01*
X27151573Y-43434005D01*
X24983300Y-43434005D01*
X24983300Y-38608005D01*
X27151573Y-38608005D01*
X27170455Y-38872012D01*
X27170457Y-38872028D01*
X27226721Y-39130672D01*
X27226722Y-39130676D01*
X27226723Y-39130678D01*
X27319226Y-39378689D01*
X27339808Y-39416382D01*
X27446081Y-39611008D01*
X27501967Y-39685662D01*
X27604713Y-39822915D01*
X27791885Y-40010087D01*
X27918646Y-40104979D01*
X28003791Y-40168718D01*
X28104484Y-40223700D01*
X28236111Y-40295574D01*
X28484122Y-40388077D01*
X28742774Y-40444343D01*
X28742785Y-40444343D01*
X28742787Y-40444344D01*
X29006795Y-40463227D01*
X29006800Y-40463227D01*
X29006805Y-40463227D01*
X29270812Y-40444344D01*
X29270811Y-40444344D01*
X29270826Y-40444343D01*
X29529478Y-40388077D01*
X29777489Y-40295574D01*
X29963510Y-40193998D01*
X30009808Y-40168718D01*
X30009811Y-40168716D01*
X30221715Y-40010087D01*
X30408887Y-39822915D01*
X30567516Y-39611011D01*
X30588163Y-39573200D01*
X30592798Y-39564710D01*
X30694374Y-39378689D01*
X30786877Y-39130678D01*
X30843143Y-38872026D01*
X30849477Y-38783463D01*
X30862027Y-38608005D01*
X30862027Y-38607994D01*
X30843144Y-38343987D01*
X30843143Y-38343985D01*
X30843143Y-38343974D01*
X30786877Y-38085322D01*
X30694374Y-37837311D01*
X30630831Y-37720942D01*
X30567518Y-37604991D01*
X30427328Y-37417720D01*
X30408887Y-37393085D01*
X30221715Y-37205913D01*
X30050103Y-37077446D01*
X30009808Y-37047281D01*
X29831719Y-36950038D01*
X29777489Y-36920426D01*
X29529478Y-36827923D01*
X29529476Y-36827922D01*
X29529472Y-36827921D01*
X29270828Y-36771657D01*
X29270812Y-36771655D01*
X29006805Y-36752773D01*
X29006795Y-36752773D01*
X28742787Y-36771655D01*
X28742771Y-36771657D01*
X28484127Y-36827921D01*
X28484121Y-36827923D01*
X28484122Y-36827923D01*
X28236111Y-36920426D01*
X28236109Y-36920426D01*
X28236109Y-36920427D01*
X28003791Y-37047281D01*
X27791886Y-37205912D01*
X27791884Y-37205913D01*
X27604713Y-37393084D01*
X27604712Y-37393086D01*
X27446081Y-37604991D01*
X27343290Y-37793241D01*
X27319226Y-37837311D01*
X27278180Y-37947360D01*
X27226721Y-38085327D01*
X27170457Y-38343971D01*
X27170455Y-38343987D01*
X27151573Y-38607994D01*
X27151573Y-38608005D01*
X24983300Y-38608005D01*
X24983300Y-27485047D01*
X24983368Y-27482804D01*
X26377585Y-27482804D01*
X26396402Y-27685878D01*
X26396402Y-27685880D01*
X26396403Y-27685883D01*
X26406077Y-27719883D01*
X26452216Y-27882045D01*
X26452217Y-27882047D01*
X26452218Y-27882050D01*
X26486579Y-27951057D01*
X26543128Y-28064623D01*
X26597791Y-28137008D01*
X26666036Y-28227379D01*
X26769934Y-28322094D01*
X26816758Y-28364780D01*
X26816763Y-28364784D01*
X26990158Y-28472145D01*
X26990167Y-28472150D01*
X27000108Y-28476000D01*
X27021287Y-28484205D01*
X27024562Y-28485587D01*
X27024803Y-28485670D01*
X27024804Y-28485671D01*
X27025605Y-28485948D01*
X27027305Y-28486537D01*
X27041967Y-28492217D01*
X27180344Y-28545824D01*
X27212920Y-28551913D01*
X27216735Y-28552733D01*
X27222865Y-28554220D01*
X27222875Y-28554224D01*
X27231456Y-28555457D01*
X27233293Y-28555722D01*
X27293428Y-28566963D01*
X27380824Y-28583300D01*
X27380827Y-28583300D01*
X27414450Y-28583300D01*
X27423211Y-28583926D01*
X27423222Y-28583713D01*
X27427311Y-28583907D01*
X27428112Y-28584162D01*
X27444450Y-28583384D01*
X27447998Y-28583300D01*
X27584774Y-28583300D01*
X27584776Y-28583300D01*
X27621089Y-28576512D01*
X27628376Y-28577074D01*
X27653926Y-28573400D01*
X27693793Y-28571499D01*
X27728041Y-28556519D01*
X27785256Y-28545824D01*
X27818456Y-28532962D01*
X27827316Y-28532003D01*
X27830439Y-28530577D01*
X27857208Y-28521312D01*
X27894087Y-28512364D01*
X27923628Y-28492218D01*
X27975437Y-28472148D01*
X28005277Y-28453671D01*
X28016019Y-28450435D01*
X28022461Y-28445848D01*
X28047001Y-28431679D01*
X28079673Y-28416758D01*
X28103789Y-28392675D01*
X28148841Y-28364781D01*
X28174883Y-28341040D01*
X28186793Y-28334878D01*
X28194960Y-28326314D01*
X28216367Y-28307765D01*
X28243989Y-28288094D01*
X28262253Y-28261391D01*
X28299564Y-28227379D01*
X28321182Y-28198752D01*
X28333442Y-28189192D01*
X28341730Y-28176296D01*
X28359246Y-28154023D01*
X28381189Y-28131010D01*
X28393483Y-28103009D01*
X28422473Y-28064621D01*
X28438921Y-28031588D01*
X28450561Y-28018416D01*
X28457453Y-28001203D01*
X28470433Y-27976026D01*
X28486478Y-27951057D01*
X28492960Y-27923063D01*
X28513382Y-27882050D01*
X28523847Y-27845267D01*
X28533878Y-27828494D01*
X28537945Y-27807394D01*
X28545928Y-27780210D01*
X28556135Y-27754715D01*
X28557244Y-27727890D01*
X28569197Y-27685883D01*
X28576111Y-27611263D01*
X28577138Y-27604056D01*
X28587764Y-27548922D01*
X28584170Y-27524288D01*
X28588015Y-27482800D01*
X28587806Y-27480549D01*
X28585196Y-27452377D01*
X28584170Y-27441309D01*
X28588092Y-27418377D01*
X28577138Y-27361543D01*
X28576111Y-27354333D01*
X28569197Y-27279717D01*
X28557244Y-27237710D01*
X28556859Y-27212689D01*
X28545927Y-27185383D01*
X28537946Y-27158203D01*
X28534129Y-27138404D01*
X28523847Y-27120331D01*
X28513382Y-27083550D01*
X28513379Y-27083545D01*
X28513378Y-27083540D01*
X28492959Y-27042534D01*
X28487647Y-27016360D01*
X28470433Y-26989573D01*
X28457453Y-26964396D01*
X28450981Y-26948231D01*
X28438923Y-26934015D01*
X28422473Y-26900979D01*
X28402975Y-26875160D01*
X28393480Y-26862586D01*
X28382833Y-26836313D01*
X28359246Y-26811576D01*
X28341732Y-26789306D01*
X28333953Y-26777201D01*
X28321185Y-26766851D01*
X28299564Y-26738221D01*
X28299546Y-26738205D01*
X28262250Y-26704205D01*
X28246111Y-26679015D01*
X28216365Y-26657832D01*
X28194962Y-26639286D01*
X28187322Y-26631274D01*
X28174883Y-26624559D01*
X28148841Y-26600819D01*
X28148836Y-26600815D01*
X28103785Y-26572921D01*
X28082246Y-26550013D01*
X28046999Y-26533917D01*
X28022464Y-26519752D01*
X28016512Y-26515513D01*
X28005281Y-26511930D01*
X27975437Y-26493452D01*
X27975433Y-26493450D01*
X27975431Y-26493449D01*
X27923620Y-26473377D01*
X27897059Y-26453954D01*
X27857210Y-26444286D01*
X27830448Y-26435024D01*
X27827722Y-26433779D01*
X27818456Y-26432637D01*
X27785261Y-26419777D01*
X27785250Y-26419775D01*
X27774791Y-26417819D01*
X27728028Y-26409078D01*
X27697065Y-26394250D01*
X27653917Y-26392195D01*
X27628869Y-26388594D01*
X27621098Y-26389089D01*
X27584778Y-26382300D01*
X27584776Y-26382300D01*
X27447917Y-26382300D01*
X27444399Y-26382216D01*
X27430341Y-26381547D01*
X27430340Y-26381547D01*
X27428220Y-26381446D01*
X27427351Y-26381690D01*
X27423266Y-26381885D01*
X27423255Y-26381670D01*
X27414450Y-26382300D01*
X27380824Y-26382300D01*
X27380821Y-26382300D01*
X27380815Y-26382301D01*
X27233443Y-26409848D01*
X27222955Y-26411355D01*
X27216726Y-26412866D01*
X27212865Y-26413695D01*
X27180345Y-26419775D01*
X27027291Y-26479068D01*
X27024559Y-26480014D01*
X27021272Y-26481400D01*
X26990157Y-26493454D01*
X26816759Y-26600819D01*
X26816758Y-26600819D01*
X26666034Y-26738223D01*
X26543128Y-26900976D01*
X26452216Y-27083554D01*
X26396402Y-27279721D01*
X26377585Y-27482795D01*
X26377585Y-27482804D01*
X24983368Y-27482804D01*
X24983436Y-27480549D01*
X24983753Y-27475312D01*
X24989286Y-27383828D01*
X24989669Y-27378001D01*
X25002836Y-27177109D01*
X25003890Y-27168603D01*
X25028643Y-27033532D01*
X25061615Y-26867772D01*
X25063541Y-26860205D01*
X25106722Y-26721634D01*
X25158766Y-26568319D01*
X25161362Y-26561725D01*
X25222320Y-26426281D01*
X25292772Y-26283420D01*
X25295824Y-26277849D01*
X25372740Y-26150614D01*
X25374505Y-26147839D01*
X25461542Y-26017579D01*
X25464808Y-26013069D01*
X25556942Y-25895468D01*
X25559502Y-25892381D01*
X25662435Y-25775009D01*
X25665716Y-25771505D01*
X25771505Y-25665716D01*
X25775009Y-25662435D01*
X25892381Y-25559502D01*
X25895468Y-25556942D01*
X26013069Y-25464808D01*
X26017579Y-25461542D01*
X26147839Y-25374505D01*
X26150614Y-25372740D01*
X26277850Y-25295823D01*
X26283420Y-25292772D01*
X26426281Y-25222320D01*
X26561725Y-25161362D01*
X26568319Y-25158766D01*
X26721612Y-25106729D01*
X26860205Y-25063541D01*
X26867772Y-25061615D01*
X27033532Y-25028643D01*
X27168603Y-25003890D01*
X27177109Y-25002836D01*
X27383827Y-24989286D01*
X27480553Y-24983435D01*
X27485049Y-24983300D01*
X27544900Y-24983300D01*
X27544995Y-24983285D01*
X64818657Y-24975269D01*
X64822929Y-24975391D01*
G37*
%TD.AperFunction*%
%TD*%
M02*
