%TF.GenerationSoftware,KiCad,Pcbnew,7.0.7*%
%TF.CreationDate,2024-01-07T22:57:32-05:00*%
%TF.ProjectId,ESP32-C3_hat,45535033-322d-4433-935f-6861742e6b69,rev?*%
%TF.SameCoordinates,Original*%
%TF.FileFunction,Copper,L1,Top*%
%TF.FilePolarity,Positive*%
%FSLAX46Y46*%
G04 Gerber Fmt 4.6, Leading zero omitted, Abs format (unit mm)*
G04 Created by KiCad (PCBNEW 7.0.7) date 2024-01-07 22:57:32*
%MOMM*%
%LPD*%
G01*
G04 APERTURE LIST*
G04 Aperture macros list*
%AMRoundRect*
0 Rectangle with rounded corners*
0 $1 Rounding radius*
0 $2 $3 $4 $5 $6 $7 $8 $9 X,Y pos of 4 corners*
0 Add a 4 corners polygon primitive as box body*
4,1,4,$2,$3,$4,$5,$6,$7,$8,$9,$2,$3,0*
0 Add four circle primitives for the rounded corners*
1,1,$1+$1,$2,$3*
1,1,$1+$1,$4,$5*
1,1,$1+$1,$6,$7*
1,1,$1+$1,$8,$9*
0 Add four rect primitives between the rounded corners*
20,1,$1+$1,$2,$3,$4,$5,0*
20,1,$1+$1,$4,$5,$6,$7,0*
20,1,$1+$1,$6,$7,$8,$9,0*
20,1,$1+$1,$8,$9,$2,$3,0*%
G04 Aperture macros list end*
%TA.AperFunction,SMDPad,CuDef*%
%ADD10R,0.650000X0.400000*%
%TD*%
%TA.AperFunction,SMDPad,CuDef*%
%ADD11R,1.000000X1.700000*%
%TD*%
%TA.AperFunction,ComponentPad*%
%ADD12C,3.000000*%
%TD*%
%TA.AperFunction,SMDPad,CuDef*%
%ADD13RoundRect,0.250000X-0.412500X-0.650000X0.412500X-0.650000X0.412500X0.650000X-0.412500X0.650000X0*%
%TD*%
%TA.AperFunction,SMDPad,CuDef*%
%ADD14RoundRect,0.250000X0.400000X0.625000X-0.400000X0.625000X-0.400000X-0.625000X0.400000X-0.625000X0*%
%TD*%
%TA.AperFunction,SMDPad,CuDef*%
%ADD15RoundRect,0.110875X0.110875X-1.214125X0.110875X1.214125X-0.110875X1.214125X-0.110875X-1.214125X0*%
%TD*%
%TA.AperFunction,ComponentPad*%
%ADD16C,2.000000*%
%TD*%
%TA.AperFunction,ComponentPad*%
%ADD17R,3.200000X2.000000*%
%TD*%
%TA.AperFunction,ComponentPad*%
%ADD18R,2.000000X2.000000*%
%TD*%
%TA.AperFunction,ComponentPad*%
%ADD19O,1.700000X1.700000*%
%TD*%
%TA.AperFunction,ComponentPad*%
%ADD20R,1.700000X1.700000*%
%TD*%
%TA.AperFunction,ViaPad*%
%ADD21C,0.600000*%
%TD*%
%TA.AperFunction,Conductor*%
%ADD22C,0.250000*%
%TD*%
%TA.AperFunction,Conductor*%
%ADD23C,0.500000*%
%TD*%
%TA.AperFunction,Conductor*%
%ADD24C,1.000000*%
%TD*%
G04 APERTURE END LIST*
D10*
%TO.P,U1,6,VCCB*%
%TO.N,+5V*%
X39776400Y-39908000D03*
%TO.P,U1,5,DIR*%
X39776400Y-39258000D03*
%TO.P,U1,4,B*%
%TO.N,Net-(U1-B)*%
X39776400Y-38608000D03*
%TO.P,U1,3,A*%
%TO.N,/Neo_In*%
X41676400Y-38608000D03*
%TO.P,U1,2,GND*%
%TO.N,GND*%
X41676400Y-39258000D03*
%TO.P,U1,1,VCCA*%
%TO.N,+3.3V*%
X41676400Y-39908000D03*
%TD*%
D11*
%TO.P,S3,1,COM_2*%
%TO.N,/BTN3*%
X60482400Y-68477200D03*
X60482400Y-62177200D03*
%TO.P,S3,2,NO_1*%
%TO.N,GND*%
X64282400Y-62177200D03*
X64282400Y-68477200D03*
%TD*%
%TO.P,S2,1,COM_1*%
%TO.N,/BTN2*%
X53695600Y-68478400D03*
X53695600Y-62178400D03*
%TO.P,S2,2,NO_2*%
%TO.N,GND*%
X57495600Y-62178400D03*
X57495600Y-68478400D03*
%TD*%
D12*
%TO.P,J5,1,Pin_1*%
%TO.N,GND*%
X29006800Y-43434000D03*
%TD*%
%TO.P,J4,1,Pin_1*%
%TO.N,+5V*%
X29006800Y-33832800D03*
%TD*%
%TO.P,J3,1,Pin_1*%
%TO.N,Net-(J3-Pin_1)*%
X29006800Y-38608000D03*
%TD*%
D13*
%TO.P,C4,1*%
%TO.N,/BTN1*%
X47205500Y-59690000D03*
%TO.P,C4,2*%
%TO.N,GND*%
X50330500Y-59690000D03*
%TD*%
%TO.P,C3,1*%
%TO.N,/BTN2*%
X54033100Y-59689600D03*
%TO.P,C3,2*%
%TO.N,GND*%
X57158100Y-59689600D03*
%TD*%
D14*
%TO.P,R3,2*%
%TO.N,Net-(J3-Pin_1)*%
X33400400Y-38608000D03*
%TO.P,R3,1*%
%TO.N,Net-(U1-B)*%
X36500400Y-38608000D03*
%TD*%
D15*
%TO.P,D1,12,GND*%
%TO.N,GND*%
X44785650Y-53797200D03*
%TO.P,D1,11,RST*%
%TO.N,/RST*%
X45485650Y-53797200D03*
%TO.P,D1,10,MOSI*%
%TO.N,/MOSI*%
X46182400Y-53797200D03*
%TO.P,D1,9,SCLK*%
%TO.N,/SCLK*%
X46885650Y-53797200D03*
%TO.P,D1,8,CS*%
%TO.N,/DRVR_ON*%
X47582400Y-53797200D03*
%TO.P,D1,7,D/C*%
%TO.N,/D{slash}C*%
X48285650Y-53797200D03*
%TO.P,D1,6,GND*%
%TO.N,GND*%
X48985650Y-53797200D03*
%TO.P,D1,5,GND*%
X49682400Y-53797200D03*
%TO.P,D1,4,VDD*%
%TO.N,+3.3V*%
X50385650Y-53797200D03*
%TO.P,D1,3,LEDA*%
%TO.N,Net-(D1-LEDA)*%
X51082400Y-53797200D03*
%TO.P,D1,2,LEDC*%
%TO.N,GND*%
X51785650Y-53797200D03*
%TO.P,D1,1,GND*%
X52482400Y-53797200D03*
%TD*%
D13*
%TO.P,C1,1*%
%TO.N,/BTN3*%
X60789500Y-59688800D03*
%TO.P,C1,2*%
%TO.N,GND*%
X63914500Y-59688800D03*
%TD*%
D11*
%TO.P,S1,1,COM_2*%
%TO.N,/BTN1*%
X46898400Y-68479200D03*
X46898400Y-62179200D03*
%TO.P,S1,2,NO_1*%
%TO.N,GND*%
X50698400Y-68479200D03*
X50698400Y-62179200D03*
%TD*%
D16*
%TO.P,SW1,S2,S2*%
%TO.N,GND*%
X28477250Y-67319600D03*
%TO.P,SW1,S1,S1*%
%TO.N,/SW1*%
X28477250Y-62319600D03*
D17*
%TO.P,SW1,MP*%
%TO.N,N/C*%
X35477250Y-59219600D03*
X35477250Y-70419600D03*
D16*
%TO.P,SW1,C,C*%
%TO.N,GND*%
X42977250Y-64819600D03*
%TO.P,SW1,B,B*%
%TO.N,/ENC1B*%
X42977250Y-62319600D03*
D18*
%TO.P,SW1,A,A*%
%TO.N,/ENC1A*%
X42977250Y-67319600D03*
%TD*%
D19*
%TO.P,J1,8,Pin_8*%
%TO.N,+5V*%
X56758450Y-30162400D03*
%TO.P,J1,7,Pin_7*%
%TO.N,GND*%
X54218450Y-30162400D03*
%TO.P,J1,6,Pin_6*%
%TO.N,+3.3V*%
X51678450Y-30162400D03*
%TO.P,J1,5,Pin_5*%
%TO.N,/BTN3*%
X49138450Y-30162400D03*
%TO.P,J1,4,Pin_4*%
%TO.N,/Neo_In*%
X46598450Y-30162400D03*
%TO.P,J1,3,Pin_3*%
%TO.N,/BTN2*%
X44058450Y-30162400D03*
%TO.P,J1,2,Pin_2*%
%TO.N,/ENC1B*%
X41518450Y-30162400D03*
D20*
%TO.P,J1,1,Pin_1*%
%TO.N,/ENC1A*%
X38978450Y-30162400D03*
%TD*%
D19*
%TO.P,J2,8,Pin_8*%
%TO.N,/DRVR_ON*%
X56758450Y-45261600D03*
%TO.P,J2,7,Pin_7*%
%TO.N,/SCLK*%
X54218450Y-45261600D03*
%TO.P,J2,6,Pin_6*%
%TO.N,/MOSI*%
X51678450Y-45261600D03*
%TO.P,J2,5,Pin_5*%
%TO.N,/RST*%
X49138450Y-45261600D03*
%TO.P,J2,4,Pin_4*%
%TO.N,/D{slash}C*%
X46598450Y-45261600D03*
%TO.P,J2,3,Pin_3*%
%TO.N,/TFT_ON*%
X44058450Y-45261600D03*
%TO.P,J2,2,Pin_2*%
%TO.N,/BTN1*%
X41518450Y-45261600D03*
D20*
%TO.P,J2,1,Pin_1*%
%TO.N,/SW1*%
X38978450Y-45261600D03*
%TD*%
D21*
%TO.N,+3.3V*%
X41706800Y-40792400D03*
%TO.N,/ENC1B*%
X40233600Y-57759600D03*
X35915600Y-50495200D03*
%TO.N,+5V*%
X38760400Y-39573200D03*
%TO.N,/BTN3*%
X59486800Y-59690000D03*
%TO.N,/BTN2*%
X52730400Y-59690000D03*
%TO.N,/BTN1*%
X45923200Y-59690000D03*
%TO.N,/D{slash}C*%
X44754800Y-50444400D03*
X48260000Y-55778400D03*
%TO.N,+3.3V*%
X49936400Y-51663600D03*
%TO.N,GND*%
X53949600Y-50698400D03*
X53949600Y-50038000D03*
%TO.N,Net-(D1-LEDA)*%
X51054000Y-51663600D03*
%TD*%
D22*
%TO.N,+3.3V*%
X50385650Y-52112850D02*
X49936400Y-51663600D01*
X50385650Y-53797200D02*
X50385650Y-52112850D01*
D23*
X41706800Y-39958000D02*
X41676400Y-39958000D01*
X41706800Y-40792400D02*
X41706800Y-39958000D01*
%TO.N,GND*%
X42915600Y-39258000D02*
X43383200Y-39725600D01*
X41676400Y-39258000D02*
X42915600Y-39258000D01*
%TO.N,/BTN1*%
X41518450Y-54828050D02*
X45923200Y-59232800D01*
X41518450Y-45261600D02*
X41518450Y-54828050D01*
X45923200Y-59232800D02*
X45923200Y-59690000D01*
%TO.N,/ENC1B*%
X40233600Y-56184800D02*
X40233600Y-57759600D01*
X35915600Y-50495200D02*
X35915600Y-51866800D01*
X35915600Y-51866800D02*
X40233600Y-56184800D01*
%TO.N,+5V*%
X39441600Y-39573200D02*
X39776400Y-39908000D01*
X38760400Y-39573200D02*
X39441600Y-39573200D01*
X39776400Y-39908000D02*
X39776400Y-39308000D01*
X39095200Y-39908000D02*
X38760400Y-39573200D01*
X39776400Y-39908000D02*
X39095200Y-39908000D01*
X39025600Y-39308000D02*
X39776400Y-39308000D01*
X38760400Y-39573200D02*
X39025600Y-39308000D01*
D24*
%TO.N,Net-(J3-Pin_1)*%
X33274000Y-38608000D02*
X29006800Y-38608000D01*
%TO.N,+5V*%
X29108400Y-33731200D02*
X29006800Y-33832800D01*
X29108400Y-31699200D02*
X29108400Y-33731200D01*
X56758450Y-30162400D02*
X56758450Y-28462850D01*
X56758450Y-28462850D02*
X54711600Y-26416000D01*
X54711600Y-26416000D02*
X34391600Y-26416000D01*
X34391600Y-26416000D02*
X29108400Y-31699200D01*
D22*
%TO.N,/Neo_In*%
X46598450Y-35392750D02*
X46598450Y-30162400D01*
X43383200Y-38608000D02*
X46598450Y-35392750D01*
X41676400Y-38608000D02*
X43383200Y-38608000D01*
D23*
%TO.N,Net-(U1-B)*%
X39776400Y-38608000D02*
X36374000Y-38608000D01*
%TO.N,/BTN1*%
X46898400Y-68479200D02*
X46898400Y-62179200D01*
%TO.N,/BTN2*%
X53695600Y-68478400D02*
X53695600Y-62178400D01*
%TO.N,/BTN3*%
X60482400Y-68477200D02*
X60482400Y-62177200D01*
X60482400Y-61031200D02*
X60482400Y-62177200D01*
X60756800Y-60756800D02*
X60482400Y-61031200D01*
X60789500Y-59688800D02*
X60756800Y-59721500D01*
X60756800Y-59721500D02*
X60756800Y-60756800D01*
%TO.N,/BTN2*%
X53695600Y-61061600D02*
X53695600Y-62178400D01*
X54051200Y-60706000D02*
X53695600Y-61061600D01*
X54051200Y-59707700D02*
X54051200Y-60706000D01*
X54033100Y-59689600D02*
X54051200Y-59707700D01*
%TO.N,/BTN1*%
X46898400Y-61051600D02*
X46898400Y-62179200D01*
X47205500Y-60744500D02*
X46898400Y-61051600D01*
X47205500Y-59690000D02*
X47205500Y-60744500D01*
X45923200Y-59690000D02*
X47205500Y-59690000D01*
%TO.N,/BTN2*%
X54032700Y-59690000D02*
X54033100Y-59689600D01*
X52730400Y-59690000D02*
X54032700Y-59690000D01*
%TO.N,/BTN3*%
X60788300Y-59690000D02*
X60789500Y-59688800D01*
X59486800Y-59690000D02*
X60788300Y-59690000D01*
D22*
%TO.N,/D{slash}C*%
X46598450Y-48600750D02*
X46598450Y-45261600D01*
X44754800Y-50444400D02*
X46598450Y-48600750D01*
X48285650Y-55752750D02*
X48260000Y-55778400D01*
X48285650Y-53797200D02*
X48285650Y-55752750D01*
%TO.N,/DRVR_ON*%
X50444400Y-48971200D02*
X54762400Y-48971200D01*
X54762400Y-48971200D02*
X56758450Y-46975150D01*
X47582400Y-51833200D02*
X50444400Y-48971200D01*
X56758450Y-46975150D02*
X56758450Y-45261600D01*
X47582400Y-53797200D02*
X47582400Y-51833200D01*
%TO.N,/SCLK*%
X50190400Y-48412400D02*
X52781200Y-48412400D01*
X54218450Y-46975150D02*
X54218450Y-45261600D01*
X46885650Y-53797200D02*
X46885650Y-51717150D01*
X46885650Y-51717150D02*
X50190400Y-48412400D01*
X52781200Y-48412400D02*
X54218450Y-46975150D01*
%TO.N,/MOSI*%
X50393600Y-47904400D02*
X51678450Y-46619550D01*
X49834800Y-47904400D02*
X50393600Y-47904400D01*
X46182400Y-51556800D02*
X49834800Y-47904400D01*
X51678450Y-46619550D02*
X51678450Y-45261600D01*
X46182400Y-53797200D02*
X46182400Y-51556800D01*
%TO.N,/RST*%
X45485650Y-51389950D02*
X45485650Y-53797200D01*
X49138450Y-47737150D02*
X45485650Y-51389950D01*
X49138450Y-45261600D02*
X49138450Y-47737150D01*
D23*
%TO.N,Net-(D1-LEDA)*%
X51082400Y-51692000D02*
X51082400Y-53797200D01*
X51054000Y-51663600D02*
X51082400Y-51692000D01*
%TD*%
%TA.AperFunction,Conductor*%
%TO.N,GND*%
G36*
X64822929Y-24975391D02*
G01*
X64933660Y-24981768D01*
X65115555Y-24993052D01*
X65123697Y-24994012D01*
X65260382Y-25017838D01*
X65414577Y-25046832D01*
X65421932Y-25048605D01*
X65560042Y-25089464D01*
X65705068Y-25135882D01*
X65711501Y-25138275D01*
X65846223Y-25195663D01*
X65982781Y-25258900D01*
X65988340Y-25261764D01*
X66048140Y-25295824D01*
X66116741Y-25334897D01*
X66243880Y-25414178D01*
X66248497Y-25417304D01*
X66366883Y-25504131D01*
X66369754Y-25506346D01*
X66484602Y-25599501D01*
X66488289Y-25602700D01*
X66596119Y-25702723D01*
X66599166Y-25705717D01*
X66701521Y-25812248D01*
X66704386Y-25815408D01*
X66799992Y-25927117D01*
X66803081Y-25930978D01*
X66891551Y-26049432D01*
X66893650Y-26052389D01*
X66932500Y-26110059D01*
X66975677Y-26174152D01*
X66978619Y-26178895D01*
X67034961Y-26277849D01*
X67052758Y-26309106D01*
X67120694Y-26440315D01*
X67123338Y-26445994D01*
X67151557Y-26513929D01*
X67180965Y-26584728D01*
X67181074Y-26584989D01*
X67233013Y-26721851D01*
X67235165Y-26728426D01*
X67245790Y-26766847D01*
X67275741Y-26875160D01*
X67311044Y-27014783D01*
X67312526Y-27022220D01*
X67335339Y-27177484D01*
X67353675Y-27314949D01*
X67354311Y-27323168D01*
X67358320Y-27505556D01*
X67360262Y-27616234D01*
X67360214Y-27620518D01*
X67358464Y-27664253D01*
X67360245Y-27678957D01*
X67320355Y-72429459D01*
X67320300Y-72429663D01*
X67320300Y-72489350D01*
X67320164Y-72493849D01*
X67314317Y-72590499D01*
X67300765Y-72797263D01*
X67299703Y-72805826D01*
X67274967Y-72940809D01*
X67241992Y-73106588D01*
X67240048Y-73114223D01*
X67196879Y-73252757D01*
X67144835Y-73406071D01*
X67142224Y-73412702D01*
X67081291Y-73548092D01*
X67010836Y-73690957D01*
X67007774Y-73696550D01*
X66930878Y-73823752D01*
X66929066Y-73826601D01*
X66842075Y-73956792D01*
X66838775Y-73961348D01*
X66746695Y-74078881D01*
X66744061Y-74082058D01*
X66641185Y-74199365D01*
X66637852Y-74202924D01*
X66532124Y-74308652D01*
X66528565Y-74311985D01*
X66411258Y-74414861D01*
X66408081Y-74417495D01*
X66290548Y-74509575D01*
X66285992Y-74512875D01*
X66155801Y-74599866D01*
X66152952Y-74601678D01*
X66025750Y-74678574D01*
X66020157Y-74681636D01*
X65877292Y-74752091D01*
X65741902Y-74813024D01*
X65735271Y-74815635D01*
X65581957Y-74867679D01*
X65443423Y-74910848D01*
X65435788Y-74912792D01*
X65270009Y-74945767D01*
X65135026Y-74970503D01*
X65126463Y-74971565D01*
X64919699Y-74985117D01*
X64827696Y-74990682D01*
X64823047Y-74990964D01*
X64818550Y-74991100D01*
X27485050Y-74991100D01*
X27480552Y-74990964D01*
X27475522Y-74990659D01*
X27383900Y-74985117D01*
X27177135Y-74971565D01*
X27168572Y-74970503D01*
X27033590Y-74945767D01*
X26867803Y-74912790D01*
X26860175Y-74910848D01*
X26721642Y-74867679D01*
X26568327Y-74815635D01*
X26561696Y-74813024D01*
X26426307Y-74752091D01*
X26283441Y-74681636D01*
X26277849Y-74678574D01*
X26150646Y-74601678D01*
X26147797Y-74599866D01*
X26017606Y-74512875D01*
X26013050Y-74509575D01*
X25895517Y-74417495D01*
X25892340Y-74414861D01*
X25775033Y-74311985D01*
X25771474Y-74308652D01*
X25665746Y-74202924D01*
X25662413Y-74199365D01*
X25559537Y-74082058D01*
X25556914Y-74078894D01*
X25464823Y-73961348D01*
X25461523Y-73956792D01*
X25374532Y-73826601D01*
X25372720Y-73823752D01*
X25295824Y-73696549D01*
X25292762Y-73690956D01*
X25244382Y-73592853D01*
X25222308Y-73548092D01*
X25161371Y-73412695D01*
X25158763Y-73406070D01*
X25106720Y-73252757D01*
X25100354Y-73232328D01*
X25063544Y-73114203D01*
X25061613Y-73106618D01*
X25028631Y-72940803D01*
X25003891Y-72805800D01*
X25002835Y-72797286D01*
X24989282Y-72590499D01*
X24983435Y-72493846D01*
X24983300Y-72489351D01*
X24983300Y-72457604D01*
X26377585Y-72457604D01*
X26396402Y-72660678D01*
X26396402Y-72660680D01*
X26396403Y-72660683D01*
X26406077Y-72694683D01*
X26452216Y-72856845D01*
X26452217Y-72856847D01*
X26452218Y-72856850D01*
X26495191Y-72943151D01*
X26543128Y-73039423D01*
X26610640Y-73128823D01*
X26666036Y-73202179D01*
X26769934Y-73296894D01*
X26816758Y-73339580D01*
X26816763Y-73339584D01*
X26990158Y-73446945D01*
X26990167Y-73446950D01*
X27000108Y-73450800D01*
X27021287Y-73459005D01*
X27024562Y-73460387D01*
X27024803Y-73460470D01*
X27024804Y-73460471D01*
X27025605Y-73460748D01*
X27027305Y-73461337D01*
X27041967Y-73467017D01*
X27180344Y-73520624D01*
X27212920Y-73526713D01*
X27216735Y-73527533D01*
X27222865Y-73529020D01*
X27222875Y-73529024D01*
X27231456Y-73530257D01*
X27233293Y-73530522D01*
X27293428Y-73541763D01*
X27380824Y-73558100D01*
X27380827Y-73558100D01*
X27414450Y-73558100D01*
X27423211Y-73558726D01*
X27423222Y-73558513D01*
X27427311Y-73558707D01*
X27428112Y-73558962D01*
X27444450Y-73558184D01*
X27447998Y-73558100D01*
X27584774Y-73558100D01*
X27584776Y-73558100D01*
X27621089Y-73551312D01*
X27628376Y-73551874D01*
X27653926Y-73548200D01*
X27693793Y-73546299D01*
X27728041Y-73531319D01*
X27785256Y-73520624D01*
X27818456Y-73507762D01*
X27827316Y-73506803D01*
X27830439Y-73505377D01*
X27857208Y-73496112D01*
X27894087Y-73487164D01*
X27923628Y-73467018D01*
X27975437Y-73446948D01*
X28005277Y-73428471D01*
X28016019Y-73425235D01*
X28022461Y-73420648D01*
X28047001Y-73406479D01*
X28079673Y-73391558D01*
X28103789Y-73367475D01*
X28148841Y-73339581D01*
X28174883Y-73315840D01*
X28186793Y-73309678D01*
X28194960Y-73301114D01*
X28216367Y-73282565D01*
X28243989Y-73262894D01*
X28262253Y-73236191D01*
X28299564Y-73202179D01*
X28321182Y-73173552D01*
X28333442Y-73163992D01*
X28341730Y-73151096D01*
X28359246Y-73128823D01*
X28381189Y-73105810D01*
X28393483Y-73077809D01*
X28422473Y-73039421D01*
X28438921Y-73006388D01*
X28450561Y-72993216D01*
X28457453Y-72976003D01*
X28470433Y-72950826D01*
X28486478Y-72925857D01*
X28492960Y-72897863D01*
X28513382Y-72856850D01*
X28523847Y-72820067D01*
X28533878Y-72803294D01*
X28537945Y-72782194D01*
X28545928Y-72755010D01*
X28556135Y-72729515D01*
X28557244Y-72702690D01*
X28569197Y-72660683D01*
X28576111Y-72586063D01*
X28577138Y-72578856D01*
X28587764Y-72523722D01*
X28584170Y-72499088D01*
X28584864Y-72491604D01*
X63715585Y-72491604D01*
X63734402Y-72694678D01*
X63790216Y-72890845D01*
X63790217Y-72890847D01*
X63790218Y-72890850D01*
X63824579Y-72959857D01*
X63881128Y-73073423D01*
X63939784Y-73151096D01*
X64004036Y-73236179D01*
X64112460Y-73335020D01*
X64154758Y-73373580D01*
X64154763Y-73373584D01*
X64328158Y-73480945D01*
X64328167Y-73480950D01*
X64338108Y-73484800D01*
X64359287Y-73493005D01*
X64362562Y-73494387D01*
X64362803Y-73494470D01*
X64362804Y-73494471D01*
X64363605Y-73494748D01*
X64365305Y-73495337D01*
X64367306Y-73496112D01*
X64518344Y-73554624D01*
X64550920Y-73560713D01*
X64554735Y-73561533D01*
X64560865Y-73563020D01*
X64560875Y-73563024D01*
X64569456Y-73564257D01*
X64571293Y-73564522D01*
X64655694Y-73580299D01*
X64718824Y-73592100D01*
X64718827Y-73592100D01*
X64752450Y-73592100D01*
X64761211Y-73592726D01*
X64761222Y-73592513D01*
X64765311Y-73592707D01*
X64766112Y-73592962D01*
X64782450Y-73592184D01*
X64785998Y-73592100D01*
X64922774Y-73592100D01*
X64922776Y-73592100D01*
X64959089Y-73585312D01*
X64966376Y-73585874D01*
X64991926Y-73582200D01*
X65031793Y-73580299D01*
X65066041Y-73565319D01*
X65123256Y-73554624D01*
X65156456Y-73541762D01*
X65165316Y-73540803D01*
X65168439Y-73539377D01*
X65195208Y-73530112D01*
X65232087Y-73521164D01*
X65261628Y-73501018D01*
X65313437Y-73480948D01*
X65343277Y-73462471D01*
X65354019Y-73459235D01*
X65360461Y-73454648D01*
X65385001Y-73440479D01*
X65417673Y-73425558D01*
X65441789Y-73401475D01*
X65486841Y-73373581D01*
X65512883Y-73349840D01*
X65524793Y-73343678D01*
X65532960Y-73335114D01*
X65554367Y-73316565D01*
X65581989Y-73296894D01*
X65600253Y-73270191D01*
X65637564Y-73236179D01*
X65659182Y-73207552D01*
X65671442Y-73197992D01*
X65679730Y-73185096D01*
X65697246Y-73162823D01*
X65719189Y-73139810D01*
X65731483Y-73111809D01*
X65760473Y-73073421D01*
X65776921Y-73040388D01*
X65788561Y-73027216D01*
X65795453Y-73010003D01*
X65808433Y-72984826D01*
X65824478Y-72959857D01*
X65830960Y-72931863D01*
X65851382Y-72890850D01*
X65861847Y-72854067D01*
X65871878Y-72837294D01*
X65875945Y-72816194D01*
X65883928Y-72789010D01*
X65894135Y-72763515D01*
X65895244Y-72736690D01*
X65907197Y-72694683D01*
X65914111Y-72620063D01*
X65915138Y-72612856D01*
X65925764Y-72557722D01*
X65922170Y-72533088D01*
X65926015Y-72491600D01*
X65922170Y-72450109D01*
X65926092Y-72427177D01*
X65915138Y-72370343D01*
X65914111Y-72363133D01*
X65907197Y-72288517D01*
X65895244Y-72246510D01*
X65894859Y-72221489D01*
X65883927Y-72194183D01*
X65875946Y-72167003D01*
X65872129Y-72147204D01*
X65861847Y-72129131D01*
X65851382Y-72092350D01*
X65851379Y-72092345D01*
X65851378Y-72092340D01*
X65830959Y-72051334D01*
X65825647Y-72025160D01*
X65808433Y-71998373D01*
X65795453Y-71973196D01*
X65788981Y-71957031D01*
X65776923Y-71942815D01*
X65760473Y-71909779D01*
X65731480Y-71871386D01*
X65720833Y-71845113D01*
X65697246Y-71820376D01*
X65679732Y-71798106D01*
X65671953Y-71786001D01*
X65659185Y-71775651D01*
X65637564Y-71747021D01*
X65600249Y-71713004D01*
X65584111Y-71687815D01*
X65554365Y-71666632D01*
X65532962Y-71648086D01*
X65525322Y-71640074D01*
X65512883Y-71633359D01*
X65486841Y-71609619D01*
X65486836Y-71609615D01*
X65441785Y-71581721D01*
X65420246Y-71558813D01*
X65384999Y-71542717D01*
X65360464Y-71528552D01*
X65354512Y-71524313D01*
X65343281Y-71520730D01*
X65313437Y-71502252D01*
X65313433Y-71502250D01*
X65313431Y-71502249D01*
X65261620Y-71482177D01*
X65235059Y-71462754D01*
X65195210Y-71453086D01*
X65168448Y-71443824D01*
X65165722Y-71442579D01*
X65156456Y-71441437D01*
X65123261Y-71428577D01*
X65123250Y-71428575D01*
X65112791Y-71426619D01*
X65066028Y-71417878D01*
X65035065Y-71403050D01*
X64991917Y-71400995D01*
X64966869Y-71397394D01*
X64959098Y-71397889D01*
X64922778Y-71391100D01*
X64922776Y-71391100D01*
X64785917Y-71391100D01*
X64782399Y-71391016D01*
X64768341Y-71390347D01*
X64768340Y-71390347D01*
X64766220Y-71390246D01*
X64765351Y-71390490D01*
X64761266Y-71390685D01*
X64761255Y-71390470D01*
X64752450Y-71391100D01*
X64718824Y-71391100D01*
X64718821Y-71391100D01*
X64718815Y-71391101D01*
X64571443Y-71418648D01*
X64560955Y-71420155D01*
X64554726Y-71421666D01*
X64550865Y-71422495D01*
X64518345Y-71428575D01*
X64365291Y-71487868D01*
X64362559Y-71488814D01*
X64359272Y-71490200D01*
X64328157Y-71502254D01*
X64154759Y-71609619D01*
X64154758Y-71609619D01*
X64004034Y-71747023D01*
X63881128Y-71909776D01*
X63790216Y-72092354D01*
X63734402Y-72288521D01*
X63715585Y-72491595D01*
X63715585Y-72491604D01*
X28584864Y-72491604D01*
X28588015Y-72457600D01*
X28584170Y-72416109D01*
X28588092Y-72393177D01*
X28577138Y-72336343D01*
X28576111Y-72329133D01*
X28569197Y-72254517D01*
X28557244Y-72212510D01*
X28556859Y-72187489D01*
X28545927Y-72160183D01*
X28537946Y-72133003D01*
X28534129Y-72113204D01*
X28523847Y-72095131D01*
X28513382Y-72058350D01*
X28513379Y-72058345D01*
X28513378Y-72058340D01*
X28492959Y-72017334D01*
X28487647Y-71991160D01*
X28470433Y-71964373D01*
X28457453Y-71939196D01*
X28450981Y-71923031D01*
X28438923Y-71908815D01*
X28422473Y-71875779D01*
X28393480Y-71837386D01*
X28382833Y-71811113D01*
X28359246Y-71786376D01*
X28341732Y-71764106D01*
X28333953Y-71752001D01*
X28321185Y-71741651D01*
X28299564Y-71713021D01*
X28299546Y-71713005D01*
X28262250Y-71679005D01*
X28246111Y-71653815D01*
X28216365Y-71632632D01*
X28194962Y-71614086D01*
X28187322Y-71606074D01*
X28174883Y-71599359D01*
X28148841Y-71575619D01*
X28148836Y-71575615D01*
X28103785Y-71547721D01*
X28082246Y-71524813D01*
X28046999Y-71508717D01*
X28022464Y-71494552D01*
X28016512Y-71490313D01*
X28005281Y-71486730D01*
X27975437Y-71468252D01*
X27975433Y-71468250D01*
X27975431Y-71468249D01*
X27935729Y-71452868D01*
X33526750Y-71452868D01*
X33536676Y-71520993D01*
X33536676Y-71520994D01*
X33588050Y-71626081D01*
X33670768Y-71708799D01*
X33775855Y-71760173D01*
X33843981Y-71770099D01*
X33843987Y-71770099D01*
X33843990Y-71770100D01*
X33843991Y-71770100D01*
X37110509Y-71770100D01*
X37110510Y-71770100D01*
X37110513Y-71770099D01*
X37110518Y-71770099D01*
X37178643Y-71760173D01*
X37178644Y-71760173D01*
X37283731Y-71708799D01*
X37283731Y-71708798D01*
X37283733Y-71708798D01*
X37366448Y-71626083D01*
X37376230Y-71606074D01*
X37417823Y-71520994D01*
X37417823Y-71520993D01*
X37427749Y-71452868D01*
X37427750Y-71452858D01*
X37427750Y-69386341D01*
X37427749Y-69386331D01*
X37417823Y-69318206D01*
X37417823Y-69318205D01*
X37366449Y-69213118D01*
X37283731Y-69130400D01*
X37178644Y-69079026D01*
X37110518Y-69069100D01*
X37110510Y-69069100D01*
X33843990Y-69069100D01*
X33843981Y-69069100D01*
X33775856Y-69079026D01*
X33775855Y-69079026D01*
X33670768Y-69130400D01*
X33588050Y-69213118D01*
X33536676Y-69318205D01*
X33536676Y-69318206D01*
X33526750Y-69386331D01*
X33526750Y-71452868D01*
X27935729Y-71452868D01*
X27923620Y-71448177D01*
X27897059Y-71428754D01*
X27857210Y-71419086D01*
X27830448Y-71409824D01*
X27827722Y-71408579D01*
X27818456Y-71407437D01*
X27785261Y-71394577D01*
X27785250Y-71394575D01*
X27774791Y-71392619D01*
X27728028Y-71383878D01*
X27697065Y-71369050D01*
X27653917Y-71366995D01*
X27628869Y-71363394D01*
X27621098Y-71363889D01*
X27584778Y-71357100D01*
X27584776Y-71357100D01*
X27447917Y-71357100D01*
X27444399Y-71357016D01*
X27430341Y-71356347D01*
X27430340Y-71356347D01*
X27428220Y-71356246D01*
X27427351Y-71356490D01*
X27423266Y-71356685D01*
X27423255Y-71356470D01*
X27414450Y-71357100D01*
X27380824Y-71357100D01*
X27380821Y-71357100D01*
X27380815Y-71357101D01*
X27233443Y-71384648D01*
X27222955Y-71386155D01*
X27216726Y-71387666D01*
X27212865Y-71388495D01*
X27180345Y-71394575D01*
X27027291Y-71453868D01*
X27024559Y-71454814D01*
X27021272Y-71456200D01*
X26990157Y-71468254D01*
X26816759Y-71575619D01*
X26816758Y-71575619D01*
X26753421Y-71633359D01*
X26670669Y-71708798D01*
X26666034Y-71713023D01*
X26543128Y-71875776D01*
X26452216Y-72058354D01*
X26396402Y-72254521D01*
X26377585Y-72457595D01*
X26377585Y-72457604D01*
X24983300Y-72457604D01*
X24983300Y-68352868D01*
X41626750Y-68352868D01*
X41636676Y-68420993D01*
X41636676Y-68420994D01*
X41688050Y-68526081D01*
X41770768Y-68608799D01*
X41875855Y-68660173D01*
X41943981Y-68670099D01*
X41943987Y-68670099D01*
X41943990Y-68670100D01*
X41943991Y-68670100D01*
X44010509Y-68670100D01*
X44010510Y-68670100D01*
X44010513Y-68670099D01*
X44010518Y-68670099D01*
X44078643Y-68660173D01*
X44078644Y-68660173D01*
X44183731Y-68608799D01*
X44183731Y-68608798D01*
X44183733Y-68608798D01*
X44266448Y-68526083D01*
X44317823Y-68420993D01*
X44327750Y-68352860D01*
X44327750Y-66286340D01*
X44317823Y-66218207D01*
X44317823Y-66218206D01*
X44317823Y-66218205D01*
X44266449Y-66113118D01*
X44183731Y-66030400D01*
X44078644Y-65979026D01*
X44010518Y-65969100D01*
X44010510Y-65969100D01*
X41943990Y-65969100D01*
X41943981Y-65969100D01*
X41875856Y-65979026D01*
X41875855Y-65979026D01*
X41770768Y-66030400D01*
X41688050Y-66113118D01*
X41636676Y-66218205D01*
X41636676Y-66218206D01*
X41626750Y-66286331D01*
X41626750Y-68352868D01*
X24983300Y-68352868D01*
X24983300Y-62319600D01*
X27121591Y-62319600D01*
X27142187Y-62555008D01*
X27203347Y-62783263D01*
X27303215Y-62997430D01*
X27438755Y-63191001D01*
X27605849Y-63358095D01*
X27799420Y-63493635D01*
X28013587Y-63593503D01*
X28241842Y-63654663D01*
X28477250Y-63675259D01*
X28712658Y-63654663D01*
X28940913Y-63593503D01*
X29155080Y-63493635D01*
X29348651Y-63358095D01*
X29515745Y-63191001D01*
X29651285Y-62997430D01*
X29751153Y-62783263D01*
X29812313Y-62555008D01*
X29832909Y-62319600D01*
X41621591Y-62319600D01*
X41642187Y-62555008D01*
X41703347Y-62783263D01*
X41803215Y-62997430D01*
X41938755Y-63191001D01*
X42105849Y-63358095D01*
X42299420Y-63493635D01*
X42513587Y-63593503D01*
X42741842Y-63654663D01*
X42977250Y-63675259D01*
X43212658Y-63654663D01*
X43440913Y-63593503D01*
X43655080Y-63493635D01*
X43848651Y-63358095D01*
X44015745Y-63191001D01*
X44151285Y-62997430D01*
X44251153Y-62783263D01*
X44312313Y-62555008D01*
X44332909Y-62319600D01*
X44312313Y-62084192D01*
X44251153Y-61855937D01*
X44151285Y-61641771D01*
X44015745Y-61448199D01*
X43848651Y-61281105D01*
X43655080Y-61145565D01*
X43440913Y-61045697D01*
X43440911Y-61045696D01*
X43212659Y-60984537D01*
X42977250Y-60963941D01*
X42741840Y-60984537D01*
X42513590Y-61045696D01*
X42513589Y-61045696D01*
X42513587Y-61045697D01*
X42299421Y-61145565D01*
X42299418Y-61145566D01*
X42299418Y-61145567D01*
X42105846Y-61281107D01*
X41938757Y-61448196D01*
X41938754Y-61448199D01*
X41938755Y-61448199D01*
X41803215Y-61641771D01*
X41703347Y-61855937D01*
X41703346Y-61855940D01*
X41642187Y-62084190D01*
X41642186Y-62084192D01*
X41642187Y-62084192D01*
X41621591Y-62319600D01*
X29832909Y-62319600D01*
X29812313Y-62084192D01*
X29751153Y-61855937D01*
X29651285Y-61641771D01*
X29515745Y-61448199D01*
X29348651Y-61281105D01*
X29155080Y-61145565D01*
X28940913Y-61045697D01*
X28940911Y-61045696D01*
X28712659Y-60984537D01*
X28477250Y-60963941D01*
X28241840Y-60984537D01*
X28013590Y-61045696D01*
X28013589Y-61045696D01*
X28013587Y-61045697D01*
X27799421Y-61145565D01*
X27799418Y-61145566D01*
X27799418Y-61145567D01*
X27605846Y-61281107D01*
X27438757Y-61448196D01*
X27438754Y-61448199D01*
X27438755Y-61448199D01*
X27303215Y-61641771D01*
X27203347Y-61855937D01*
X27203346Y-61855940D01*
X27142187Y-62084190D01*
X27142186Y-62084192D01*
X27142187Y-62084192D01*
X27121591Y-62319600D01*
X24983300Y-62319600D01*
X24983300Y-60252868D01*
X33526750Y-60252868D01*
X33536676Y-60320993D01*
X33536676Y-60320994D01*
X33588050Y-60426081D01*
X33670768Y-60508799D01*
X33775855Y-60560173D01*
X33843981Y-60570099D01*
X33843987Y-60570099D01*
X33843990Y-60570100D01*
X33843991Y-60570100D01*
X37110509Y-60570100D01*
X37110510Y-60570100D01*
X37110513Y-60570099D01*
X37110518Y-60570099D01*
X37178643Y-60560173D01*
X37178644Y-60560173D01*
X37283731Y-60508799D01*
X37283731Y-60508798D01*
X37283733Y-60508798D01*
X37366448Y-60426083D01*
X37366449Y-60426081D01*
X37417823Y-60320994D01*
X37417823Y-60320993D01*
X37427749Y-60252868D01*
X37427750Y-60252858D01*
X37427750Y-58186341D01*
X37427749Y-58186331D01*
X37417823Y-58118206D01*
X37417823Y-58118205D01*
X37366449Y-58013118D01*
X37283731Y-57930400D01*
X37178644Y-57879026D01*
X37110518Y-57869100D01*
X37110510Y-57869100D01*
X33843990Y-57869100D01*
X33843981Y-57869100D01*
X33775856Y-57879026D01*
X33775855Y-57879026D01*
X33670768Y-57930400D01*
X33588050Y-58013118D01*
X33536676Y-58118205D01*
X33536676Y-58118206D01*
X33526750Y-58186331D01*
X33526750Y-60252868D01*
X24983300Y-60252868D01*
X24983300Y-50495200D01*
X35260322Y-50495200D01*
X35279363Y-50652019D01*
X35305417Y-50720715D01*
X35315100Y-50773552D01*
X35315100Y-51822552D01*
X35314462Y-51832281D01*
X35311110Y-51857740D01*
X35309918Y-51866799D01*
X35309918Y-51866801D01*
X35315100Y-51906161D01*
X35330554Y-52023557D01*
X35391062Y-52169638D01*
X35391063Y-52169640D01*
X35391064Y-52169641D01*
X35487318Y-52295082D01*
X35487321Y-52295084D01*
X35514936Y-52316274D01*
X35522272Y-52322707D01*
X39589459Y-56389893D01*
X39628023Y-56456688D01*
X39633100Y-56495252D01*
X39633100Y-57481247D01*
X39623417Y-57534083D01*
X39597363Y-57602779D01*
X39578322Y-57759600D01*
X39597363Y-57916420D01*
X39653379Y-58064122D01*
X39737741Y-58186341D01*
X39743117Y-58194130D01*
X39861360Y-58298883D01*
X40001235Y-58372296D01*
X40154615Y-58410100D01*
X40154617Y-58410100D01*
X40312583Y-58410100D01*
X40312585Y-58410100D01*
X40465965Y-58372296D01*
X40605840Y-58298883D01*
X40724083Y-58194130D01*
X40813820Y-58064123D01*
X40869837Y-57916418D01*
X40888878Y-57759600D01*
X40869837Y-57602782D01*
X40843783Y-57534083D01*
X40834100Y-57481247D01*
X40834100Y-56229046D01*
X40834737Y-56219319D01*
X40839282Y-56184800D01*
X40825870Y-56082922D01*
X40818645Y-56028040D01*
X40758138Y-55881962D01*
X40758136Y-55881959D01*
X40737345Y-55854862D01*
X40661884Y-55756521D01*
X40661880Y-55756516D01*
X40634261Y-55735323D01*
X40626927Y-55728892D01*
X36559741Y-51661706D01*
X36521177Y-51594911D01*
X36516100Y-51556347D01*
X36516100Y-50773552D01*
X36525783Y-50720715D01*
X36551837Y-50652018D01*
X36570878Y-50495200D01*
X36551837Y-50338382D01*
X36495820Y-50190677D01*
X36406083Y-50060670D01*
X36287840Y-49955917D01*
X36287839Y-49955916D01*
X36147963Y-49882503D01*
X36070190Y-49863334D01*
X35994585Y-49844700D01*
X35836615Y-49844700D01*
X35775959Y-49859650D01*
X35683236Y-49882503D01*
X35543360Y-49955916D01*
X35425116Y-50060670D01*
X35335379Y-50190677D01*
X35279363Y-50338379D01*
X35260322Y-50495200D01*
X24983300Y-50495200D01*
X24983300Y-46144868D01*
X37777950Y-46144868D01*
X37787876Y-46212993D01*
X37787876Y-46212994D01*
X37839250Y-46318081D01*
X37921968Y-46400799D01*
X38027055Y-46452173D01*
X38095181Y-46462099D01*
X38095187Y-46462099D01*
X38095190Y-46462100D01*
X38095191Y-46462100D01*
X39861709Y-46462100D01*
X39861710Y-46462100D01*
X39861713Y-46462099D01*
X39861718Y-46462099D01*
X39929843Y-46452173D01*
X39929844Y-46452173D01*
X40034931Y-46400799D01*
X40034931Y-46400798D01*
X40034933Y-46400798D01*
X40117648Y-46318083D01*
X40121468Y-46310269D01*
X40169023Y-46212994D01*
X40169023Y-46212993D01*
X40178949Y-46144868D01*
X40178950Y-46144858D01*
X40178950Y-45898314D01*
X40198912Y-45823814D01*
X40253450Y-45769276D01*
X40327950Y-45749314D01*
X40402450Y-45769276D01*
X40456988Y-45823814D01*
X40461329Y-45831899D01*
X40493389Y-45896285D01*
X40493391Y-45896288D01*
X40493392Y-45896289D01*
X40627469Y-46073836D01*
X40791888Y-46223724D01*
X40847389Y-46258088D01*
X40900219Y-46314276D01*
X40917950Y-46384769D01*
X40917950Y-54783802D01*
X40917312Y-54793537D01*
X40912768Y-54828049D01*
X40912768Y-54828051D01*
X40917950Y-54867411D01*
X40933404Y-54984807D01*
X40993912Y-55130888D01*
X40993913Y-55130890D01*
X40993914Y-55130891D01*
X41090168Y-55256332D01*
X41090171Y-55256334D01*
X41117786Y-55277524D01*
X41125122Y-55283957D01*
X45245125Y-59403960D01*
X45283689Y-59470755D01*
X45287680Y-59527279D01*
X45267922Y-59689999D01*
X45286963Y-59846820D01*
X45342979Y-59994522D01*
X45342980Y-59994523D01*
X45432717Y-60124530D01*
X45550960Y-60229283D01*
X45690835Y-60302696D01*
X45844215Y-60340500D01*
X45844217Y-60340500D01*
X46002185Y-60340500D01*
X46019911Y-60336131D01*
X46097023Y-60337684D01*
X46163028Y-60377585D01*
X46200239Y-60445143D01*
X46203294Y-60461354D01*
X46207954Y-60496755D01*
X46207955Y-60496760D01*
X46268463Y-60642840D01*
X46313037Y-60700930D01*
X46342552Y-60772187D01*
X46332486Y-60848653D01*
X46321807Y-60874436D01*
X46313356Y-60894838D01*
X46311819Y-60906517D01*
X46311722Y-60907251D01*
X46282204Y-60978507D01*
X46229437Y-61021659D01*
X46191918Y-61040000D01*
X46109200Y-61122718D01*
X46057826Y-61227805D01*
X46057826Y-61227806D01*
X46047900Y-61295931D01*
X46047900Y-63062468D01*
X46057826Y-63130593D01*
X46057826Y-63130594D01*
X46109200Y-63235681D01*
X46109202Y-63235683D01*
X46191917Y-63318398D01*
X46214339Y-63329359D01*
X46272502Y-63380012D01*
X46297546Y-63452961D01*
X46297900Y-63463220D01*
X46297900Y-67195179D01*
X46277938Y-67269679D01*
X46223400Y-67324217D01*
X46214342Y-67329038D01*
X46191919Y-67339999D01*
X46109200Y-67422718D01*
X46057826Y-67527805D01*
X46057826Y-67527806D01*
X46047900Y-67595931D01*
X46047900Y-69362468D01*
X46057826Y-69430593D01*
X46057826Y-69430594D01*
X46109200Y-69535681D01*
X46191918Y-69618399D01*
X46297005Y-69669773D01*
X46365131Y-69679699D01*
X46365137Y-69679699D01*
X46365140Y-69679700D01*
X46365141Y-69679700D01*
X47431659Y-69679700D01*
X47431660Y-69679700D01*
X47431663Y-69679699D01*
X47431668Y-69679699D01*
X47499793Y-69669773D01*
X47499794Y-69669773D01*
X47604881Y-69618399D01*
X47604881Y-69618398D01*
X47604883Y-69618398D01*
X47687598Y-69535683D01*
X47738973Y-69430593D01*
X47748900Y-69362460D01*
X47748900Y-67595940D01*
X47748783Y-67595140D01*
X47738973Y-67527806D01*
X47738973Y-67527805D01*
X47687599Y-67422718D01*
X47604880Y-67339999D01*
X47582458Y-67329038D01*
X47524296Y-67278384D01*
X47499253Y-67205434D01*
X47498900Y-67195179D01*
X47498900Y-63463220D01*
X47518862Y-63388720D01*
X47573400Y-63334182D01*
X47582452Y-63329363D01*
X47604883Y-63318398D01*
X47687598Y-63235683D01*
X47738973Y-63130593D01*
X47748900Y-63062460D01*
X47748900Y-61295940D01*
X47748783Y-61295140D01*
X47738973Y-61227809D01*
X47738973Y-61227807D01*
X47721935Y-61192955D01*
X47707149Y-61117261D01*
X47726761Y-61053012D01*
X47730030Y-61047347D01*
X47730036Y-61047341D01*
X47758303Y-60979097D01*
X47805252Y-60917909D01*
X47838933Y-60898462D01*
X47920841Y-60864536D01*
X48046282Y-60768282D01*
X48142536Y-60642841D01*
X48203044Y-60496762D01*
X48203098Y-60496357D01*
X48218499Y-60379366D01*
X48218500Y-60379361D01*
X48218499Y-59690000D01*
X52075122Y-59690000D01*
X52094163Y-59846820D01*
X52150179Y-59994522D01*
X52150180Y-59994523D01*
X52239917Y-60124530D01*
X52358160Y-60229283D01*
X52498035Y-60302696D01*
X52651415Y-60340500D01*
X52651417Y-60340500D01*
X52809384Y-60340500D01*
X52809385Y-60340500D01*
X52846922Y-60331248D01*
X52924033Y-60332801D01*
X52990038Y-60372701D01*
X53027249Y-60440259D01*
X53030304Y-60456471D01*
X53035554Y-60496355D01*
X53035555Y-60496360D01*
X53096064Y-60642441D01*
X53096065Y-60642443D01*
X53123692Y-60678448D01*
X53153207Y-60749705D01*
X53143141Y-60826170D01*
X53113845Y-60896899D01*
X53110556Y-60904839D01*
X53110442Y-60905707D01*
X53110106Y-60906517D01*
X53108029Y-60914270D01*
X53107008Y-60913996D01*
X53080925Y-60976964D01*
X53028157Y-61020116D01*
X52989118Y-61039200D01*
X52906400Y-61121918D01*
X52855026Y-61227005D01*
X52855026Y-61227006D01*
X52845100Y-61295131D01*
X52845100Y-63061668D01*
X52855026Y-63129793D01*
X52855026Y-63129794D01*
X52906400Y-63234881D01*
X52906402Y-63234883D01*
X52989117Y-63317598D01*
X53011539Y-63328559D01*
X53069702Y-63379212D01*
X53094746Y-63452161D01*
X53095100Y-63462420D01*
X53095100Y-67194379D01*
X53075138Y-67268879D01*
X53020600Y-67323417D01*
X53011542Y-67328238D01*
X52989119Y-67339199D01*
X52906400Y-67421918D01*
X52855026Y-67527005D01*
X52855026Y-67527006D01*
X52845100Y-67595131D01*
X52845100Y-69361668D01*
X52855026Y-69429793D01*
X52855026Y-69429794D01*
X52906400Y-69534881D01*
X52989118Y-69617599D01*
X53094205Y-69668973D01*
X53162331Y-69678899D01*
X53162337Y-69678899D01*
X53162340Y-69678900D01*
X53162341Y-69678900D01*
X54228859Y-69678900D01*
X54228860Y-69678900D01*
X54228863Y-69678899D01*
X54228868Y-69678899D01*
X54296993Y-69668973D01*
X54296994Y-69668973D01*
X54402081Y-69617599D01*
X54402081Y-69617598D01*
X54402083Y-69617598D01*
X54484798Y-69534883D01*
X54485386Y-69533681D01*
X54536173Y-69429794D01*
X54536173Y-69429793D01*
X54546099Y-69361668D01*
X54546100Y-69361658D01*
X54546100Y-67595141D01*
X54546099Y-67595131D01*
X54536173Y-67527006D01*
X54536173Y-67527005D01*
X54484799Y-67421918D01*
X54402080Y-67339199D01*
X54379658Y-67328238D01*
X54321496Y-67277584D01*
X54296453Y-67204634D01*
X54296100Y-67194379D01*
X54296100Y-63462420D01*
X54316062Y-63387920D01*
X54370600Y-63333382D01*
X54379652Y-63328563D01*
X54402083Y-63317598D01*
X54484798Y-63234883D01*
X54506250Y-63191002D01*
X54536173Y-63129794D01*
X54536173Y-63129793D01*
X54546099Y-63061668D01*
X54546100Y-63061658D01*
X54546100Y-61295141D01*
X54546099Y-61295131D01*
X54536290Y-61227809D01*
X54536173Y-61227007D01*
X54526958Y-61208159D01*
X54512171Y-61132463D01*
X54537214Y-61059513D01*
X54542593Y-61052032D01*
X54575736Y-61008841D01*
X54588700Y-60977540D01*
X54635651Y-60916351D01*
X54669333Y-60896903D01*
X54748441Y-60864136D01*
X54873882Y-60767882D01*
X54970136Y-60642441D01*
X55030644Y-60496362D01*
X55030750Y-60495562D01*
X55039897Y-60426081D01*
X55046100Y-60378961D01*
X55046100Y-59690000D01*
X58831522Y-59690000D01*
X58850563Y-59846820D01*
X58906579Y-59994522D01*
X58906580Y-59994523D01*
X58996317Y-60124530D01*
X59114560Y-60229283D01*
X59254435Y-60302696D01*
X59407815Y-60340500D01*
X59407817Y-60340500D01*
X59565785Y-60340500D01*
X59603423Y-60331223D01*
X59680535Y-60332776D01*
X59746540Y-60372677D01*
X59783751Y-60440235D01*
X59786806Y-60456446D01*
X59791954Y-60495555D01*
X59791955Y-60495560D01*
X59852464Y-60641642D01*
X59891872Y-60693000D01*
X59921387Y-60764258D01*
X59911321Y-60840723D01*
X59897356Y-60874436D01*
X59897356Y-60874439D01*
X59893132Y-60906517D01*
X59863614Y-60977774D01*
X59810850Y-61020923D01*
X59775918Y-61038001D01*
X59775917Y-61038001D01*
X59693200Y-61120718D01*
X59641826Y-61225805D01*
X59641826Y-61225806D01*
X59631900Y-61293931D01*
X59631900Y-63060468D01*
X59641826Y-63128593D01*
X59641826Y-63128594D01*
X59693200Y-63233681D01*
X59693202Y-63233683D01*
X59775917Y-63316398D01*
X59798339Y-63327359D01*
X59856502Y-63378012D01*
X59881546Y-63450961D01*
X59881900Y-63461220D01*
X59881900Y-67193179D01*
X59861938Y-67267679D01*
X59807400Y-67322217D01*
X59798342Y-67327038D01*
X59775919Y-67337999D01*
X59693200Y-67420718D01*
X59641826Y-67525805D01*
X59641826Y-67525806D01*
X59631900Y-67593931D01*
X59631900Y-69360468D01*
X59641826Y-69428593D01*
X59641826Y-69428594D01*
X59693200Y-69533681D01*
X59775918Y-69616399D01*
X59881005Y-69667773D01*
X59949131Y-69677699D01*
X59949137Y-69677699D01*
X59949140Y-69677700D01*
X59949141Y-69677700D01*
X61015659Y-69677700D01*
X61015660Y-69677700D01*
X61015663Y-69677699D01*
X61015668Y-69677699D01*
X61083793Y-69667773D01*
X61083794Y-69667773D01*
X61188881Y-69616399D01*
X61188881Y-69616398D01*
X61188883Y-69616398D01*
X61271598Y-69533683D01*
X61321995Y-69430594D01*
X61322973Y-69428594D01*
X61322973Y-69428593D01*
X61332899Y-69360468D01*
X61332900Y-69360458D01*
X61332900Y-67593941D01*
X61332899Y-67593931D01*
X61322973Y-67525806D01*
X61322973Y-67525805D01*
X61271599Y-67420718D01*
X61188881Y-67338000D01*
X61166459Y-67327039D01*
X61108296Y-67276385D01*
X61083252Y-67203436D01*
X61082900Y-67193208D01*
X61082899Y-63461219D01*
X61102862Y-63386720D01*
X61157400Y-63332182D01*
X61166452Y-63327363D01*
X61188883Y-63316398D01*
X61271598Y-63233683D01*
X61271599Y-63233681D01*
X61322973Y-63128594D01*
X61322973Y-63128593D01*
X61332899Y-63060468D01*
X61332900Y-63060458D01*
X61332900Y-61293941D01*
X61332899Y-61293931D01*
X61322973Y-61225807D01*
X61292689Y-61163860D01*
X61277902Y-61088162D01*
X61288888Y-61041407D01*
X61309581Y-60991449D01*
X61356530Y-60930263D01*
X61390215Y-60910815D01*
X61501944Y-60864536D01*
X61504839Y-60863337D01*
X61504839Y-60863336D01*
X61504841Y-60863336D01*
X61630282Y-60767082D01*
X61726536Y-60641641D01*
X61787044Y-60495562D01*
X61802500Y-60378161D01*
X61802499Y-58999440D01*
X61787044Y-58882038D01*
X61726536Y-58735959D01*
X61630282Y-58610518D01*
X61505883Y-58515063D01*
X61504840Y-58514263D01*
X61424944Y-58481169D01*
X61358762Y-58453756D01*
X61358760Y-58453755D01*
X61358756Y-58453754D01*
X61358759Y-58453754D01*
X61241363Y-58438300D01*
X60337643Y-58438300D01*
X60220238Y-58453756D01*
X60074159Y-58514263D01*
X59948718Y-58610517D01*
X59948717Y-58610518D01*
X59852463Y-58735959D01*
X59791954Y-58882041D01*
X59786499Y-58923480D01*
X59756983Y-58994737D01*
X59695792Y-59041689D01*
X59619324Y-59051755D01*
X59603119Y-59048701D01*
X59565785Y-59039500D01*
X59407815Y-59039500D01*
X59357988Y-59051781D01*
X59254436Y-59077303D01*
X59114560Y-59150716D01*
X58996316Y-59255470D01*
X58906579Y-59385477D01*
X58850563Y-59533179D01*
X58831522Y-59690000D01*
X55046100Y-59690000D01*
X55046099Y-59000240D01*
X55030644Y-58882838D01*
X54970136Y-58736759D01*
X54873882Y-58611318D01*
X54872840Y-58610518D01*
X54748440Y-58515063D01*
X54668544Y-58481969D01*
X54602362Y-58454556D01*
X54602360Y-58454555D01*
X54602356Y-58454554D01*
X54602359Y-58454554D01*
X54484963Y-58439100D01*
X53581243Y-58439100D01*
X53463838Y-58454556D01*
X53317759Y-58515063D01*
X53192318Y-58611317D01*
X53192317Y-58611318D01*
X53096063Y-58736759D01*
X53035554Y-58882841D01*
X53030201Y-58923506D01*
X53000685Y-58994762D01*
X52939495Y-59041715D01*
X52863026Y-59051781D01*
X52846828Y-59048728D01*
X52809385Y-59039500D01*
X52651415Y-59039500D01*
X52601588Y-59051781D01*
X52498036Y-59077303D01*
X52358160Y-59150716D01*
X52239916Y-59255470D01*
X52150179Y-59385477D01*
X52094163Y-59533179D01*
X52075122Y-59690000D01*
X48218499Y-59690000D01*
X48218499Y-59000640D01*
X48203044Y-58883238D01*
X48142536Y-58737159D01*
X48046282Y-58611718D01*
X48045760Y-58611317D01*
X47920840Y-58515463D01*
X47840944Y-58482369D01*
X47774762Y-58454956D01*
X47774760Y-58454955D01*
X47774756Y-58454954D01*
X47774759Y-58454954D01*
X47657363Y-58439500D01*
X46753643Y-58439500D01*
X46636238Y-58454956D01*
X46490159Y-58515463D01*
X46364715Y-58611719D01*
X46363388Y-58613047D01*
X46361763Y-58613984D01*
X46356970Y-58617663D01*
X46356485Y-58617031D01*
X46296590Y-58651607D01*
X46219462Y-58651603D01*
X46152676Y-58613041D01*
X42162591Y-54622955D01*
X42124027Y-54556160D01*
X42118950Y-54517596D01*
X42118950Y-46384769D01*
X42138912Y-46310269D01*
X42189510Y-46258088D01*
X42245012Y-46223724D01*
X42409431Y-46073836D01*
X42543508Y-45896289D01*
X42642679Y-45697128D01*
X42645138Y-45688487D01*
X42684725Y-45622294D01*
X42752106Y-45584763D01*
X42829225Y-45585950D01*
X42895418Y-45625537D01*
X42931762Y-45688487D01*
X42934220Y-45697128D01*
X43033389Y-45896285D01*
X43033391Y-45896288D01*
X43033392Y-45896289D01*
X43167469Y-46073836D01*
X43331888Y-46223724D01*
X43521049Y-46340847D01*
X43521051Y-46340847D01*
X43521053Y-46340849D01*
X43521055Y-46340850D01*
X43710813Y-46414362D01*
X43728510Y-46421218D01*
X43947207Y-46462100D01*
X43947209Y-46462100D01*
X44169691Y-46462100D01*
X44169693Y-46462100D01*
X44388390Y-46421218D01*
X44564638Y-46352939D01*
X44595844Y-46340850D01*
X44595846Y-46340849D01*
X44595846Y-46340848D01*
X44595851Y-46340847D01*
X44785012Y-46223724D01*
X44949431Y-46073836D01*
X45083508Y-45896289D01*
X45182679Y-45697128D01*
X45185138Y-45688487D01*
X45224725Y-45622294D01*
X45292106Y-45584763D01*
X45369225Y-45585950D01*
X45435418Y-45625537D01*
X45471762Y-45688487D01*
X45474220Y-45697128D01*
X45573389Y-45896285D01*
X45573391Y-45896288D01*
X45573392Y-45896289D01*
X45707469Y-46073836D01*
X45871888Y-46223724D01*
X46052391Y-46335486D01*
X46105220Y-46391674D01*
X46122950Y-46462166D01*
X46122950Y-48342073D01*
X46102988Y-48416573D01*
X46079309Y-48447432D01*
X44776482Y-49750259D01*
X44709687Y-49788823D01*
X44684679Y-49792115D01*
X44684764Y-49792813D01*
X44675821Y-49793898D01*
X44522436Y-49831703D01*
X44382560Y-49905116D01*
X44264316Y-50009870D01*
X44174579Y-50139877D01*
X44118563Y-50287579D01*
X44099522Y-50444400D01*
X44118563Y-50601220D01*
X44174579Y-50748922D01*
X44174580Y-50748923D01*
X44264317Y-50878930D01*
X44382560Y-50983683D01*
X44522435Y-51057096D01*
X44675815Y-51094900D01*
X44675817Y-51094900D01*
X44833782Y-51094900D01*
X44833785Y-51094900D01*
X44840138Y-51093334D01*
X44917246Y-51094884D01*
X44983253Y-51134782D01*
X45020467Y-51202339D01*
X45018917Y-51279451D01*
X45016419Y-51287002D01*
X45016239Y-51287832D01*
X45012762Y-51336438D01*
X45012195Y-51341705D01*
X45010150Y-51355939D01*
X45010150Y-51355943D01*
X45010150Y-51370298D01*
X45009960Y-51375616D01*
X45006482Y-51424218D01*
X45006745Y-51425424D01*
X45010150Y-51457097D01*
X45010150Y-52251134D01*
X44990188Y-52325634D01*
X44981035Y-52339614D01*
X44962258Y-52365054D01*
X44916322Y-52496333D01*
X44913400Y-52527494D01*
X44913400Y-55066892D01*
X44913402Y-55066915D01*
X44916322Y-55098068D01*
X44916324Y-55098075D01*
X44962257Y-55229344D01*
X44962258Y-55229346D01*
X45010149Y-55294235D01*
X45044849Y-55341251D01*
X45044852Y-55341253D01*
X45156752Y-55423840D01*
X45156753Y-55423840D01*
X45156754Y-55423841D01*
X45288031Y-55469777D01*
X45319203Y-55472700D01*
X45652096Y-55472699D01*
X45683269Y-55469777D01*
X45784813Y-55434244D01*
X45861724Y-55428480D01*
X45883236Y-55434244D01*
X45984781Y-55469777D01*
X46015953Y-55472700D01*
X46348846Y-55472699D01*
X46380019Y-55469777D01*
X46484812Y-55433107D01*
X46561725Y-55427343D01*
X46583237Y-55433108D01*
X46688025Y-55469775D01*
X46688031Y-55469777D01*
X46719203Y-55472700D01*
X47052096Y-55472699D01*
X47083269Y-55469777D01*
X47184813Y-55434244D01*
X47261724Y-55428480D01*
X47283236Y-55434244D01*
X47384781Y-55469777D01*
X47415953Y-55472700D01*
X47473654Y-55472699D01*
X47548152Y-55492660D01*
X47602691Y-55547197D01*
X47622654Y-55621697D01*
X47621568Y-55639658D01*
X47604722Y-55778399D01*
X47623763Y-55935220D01*
X47679779Y-56082922D01*
X47750100Y-56184799D01*
X47769517Y-56212930D01*
X47887760Y-56317683D01*
X48027635Y-56391096D01*
X48181015Y-56428900D01*
X48181017Y-56428900D01*
X48338983Y-56428900D01*
X48338985Y-56428900D01*
X48492365Y-56391096D01*
X48632240Y-56317683D01*
X48750483Y-56212930D01*
X48840220Y-56082923D01*
X48896237Y-55935218D01*
X48915278Y-55778400D01*
X48896237Y-55621582D01*
X48840220Y-55473877D01*
X48798357Y-55413228D01*
X48772465Y-55340577D01*
X48786368Y-55264712D01*
X48801094Y-55240113D01*
X48809041Y-55229346D01*
X48854977Y-55098069D01*
X48857900Y-55066897D01*
X48857899Y-52527504D01*
X48854977Y-52496331D01*
X48854975Y-52496324D01*
X48809042Y-52365055D01*
X48809041Y-52365053D01*
X48726453Y-52253152D01*
X48726451Y-52253149D01*
X48723721Y-52251134D01*
X48614547Y-52170559D01*
X48553262Y-52149114D01*
X48483269Y-52124623D01*
X48483267Y-52124622D01*
X48483265Y-52124622D01*
X48452107Y-52121700D01*
X48326075Y-52121700D01*
X48251575Y-52101738D01*
X48197037Y-52047200D01*
X48177075Y-51972700D01*
X48197037Y-51898200D01*
X48220712Y-51867345D01*
X48424457Y-51663600D01*
X49281122Y-51663600D01*
X49300163Y-51820420D01*
X49356179Y-51968122D01*
X49410763Y-52047200D01*
X49445917Y-52098130D01*
X49564160Y-52202883D01*
X49704035Y-52276296D01*
X49715077Y-52279017D01*
X49719184Y-52280030D01*
X49786743Y-52317241D01*
X49826645Y-52383245D01*
X49828199Y-52460357D01*
X49824168Y-52473909D01*
X49816322Y-52496332D01*
X49813400Y-52527494D01*
X49813400Y-55066892D01*
X49813402Y-55066915D01*
X49816322Y-55098068D01*
X49816324Y-55098075D01*
X49862257Y-55229344D01*
X49862258Y-55229346D01*
X49910149Y-55294235D01*
X49944849Y-55341251D01*
X49944852Y-55341253D01*
X50056752Y-55423840D01*
X50056753Y-55423840D01*
X50056754Y-55423841D01*
X50188031Y-55469777D01*
X50219203Y-55472700D01*
X50552096Y-55472699D01*
X50583269Y-55469777D01*
X50684813Y-55434244D01*
X50761724Y-55428480D01*
X50783236Y-55434244D01*
X50884781Y-55469777D01*
X50915953Y-55472700D01*
X51248846Y-55472699D01*
X51280019Y-55469777D01*
X51280025Y-55469775D01*
X51411294Y-55423842D01*
X51411296Y-55423841D01*
X51434025Y-55407066D01*
X51523201Y-55341251D01*
X51605791Y-55229346D01*
X51651727Y-55098069D01*
X51654650Y-55066897D01*
X51654649Y-54014489D01*
X51665992Y-53957467D01*
X51667444Y-53953962D01*
X51682900Y-53836561D01*
X51682900Y-51867067D01*
X51689770Y-51829584D01*
X51688080Y-51829168D01*
X51690233Y-51820427D01*
X51690237Y-51820418D01*
X51709278Y-51663600D01*
X51690237Y-51506782D01*
X51665318Y-51441077D01*
X51634220Y-51359077D01*
X51544483Y-51229070D01*
X51426239Y-51124316D01*
X51286363Y-51050903D01*
X51208590Y-51031734D01*
X51132985Y-51013100D01*
X50975015Y-51013100D01*
X50919045Y-51026895D01*
X50821636Y-51050903D01*
X50681757Y-51124318D01*
X50594004Y-51202060D01*
X50525002Y-51236520D01*
X50448015Y-51231862D01*
X50396396Y-51202060D01*
X50308641Y-51124318D01*
X50308642Y-51124318D01*
X50168763Y-51050903D01*
X50090990Y-51031734D01*
X50015385Y-51013100D01*
X49857415Y-51013100D01*
X49801445Y-51026895D01*
X49704036Y-51050903D01*
X49564160Y-51124316D01*
X49445916Y-51229070D01*
X49356179Y-51359077D01*
X49300163Y-51506779D01*
X49281122Y-51663600D01*
X48424457Y-51663600D01*
X50597717Y-49490341D01*
X50664513Y-49451777D01*
X50703077Y-49446700D01*
X54695252Y-49446700D01*
X54726923Y-49450105D01*
X54728129Y-49450367D01*
X54776740Y-49446889D01*
X54782051Y-49446700D01*
X54796411Y-49446700D01*
X54810657Y-49444651D01*
X54815875Y-49444089D01*
X54864515Y-49440611D01*
X54865657Y-49440184D01*
X54896532Y-49432304D01*
X54897742Y-49432131D01*
X54942053Y-49411894D01*
X54946970Y-49409857D01*
X54959725Y-49405099D01*
X54992626Y-49392829D01*
X54993610Y-49392091D01*
X55021005Y-49375838D01*
X55022118Y-49375330D01*
X55058961Y-49343404D01*
X55063071Y-49340093D01*
X55074580Y-49331479D01*
X55084744Y-49321313D01*
X55088605Y-49317718D01*
X55125455Y-49285789D01*
X55126116Y-49284759D01*
X55146103Y-49259954D01*
X57047204Y-47358853D01*
X57072009Y-47338866D01*
X57073039Y-47338205D01*
X57104968Y-47301355D01*
X57108563Y-47297494D01*
X57118729Y-47287330D01*
X57127343Y-47275821D01*
X57130654Y-47271711D01*
X57162580Y-47234868D01*
X57163088Y-47233755D01*
X57179341Y-47206360D01*
X57180079Y-47205376D01*
X57192349Y-47172475D01*
X57197107Y-47159720D01*
X57199144Y-47154803D01*
X57202726Y-47146957D01*
X57219381Y-47110492D01*
X57219554Y-47109282D01*
X57227434Y-47078407D01*
X57227861Y-47077265D01*
X57231339Y-47028625D01*
X57231901Y-47023407D01*
X57233950Y-47009161D01*
X57233950Y-46994791D01*
X57234140Y-46989482D01*
X57234633Y-46982599D01*
X57237617Y-46940879D01*
X57237355Y-46939676D01*
X57233950Y-46908009D01*
X57233949Y-46462166D01*
X57253911Y-46387667D01*
X57304508Y-46335486D01*
X57485012Y-46223724D01*
X57649431Y-46073836D01*
X57783508Y-45896289D01*
X57882679Y-45697128D01*
X57943565Y-45483136D01*
X57964093Y-45261600D01*
X57943565Y-45040064D01*
X57882679Y-44826072D01*
X57856552Y-44773602D01*
X57783510Y-44626914D01*
X57649430Y-44449363D01*
X57485013Y-44299477D01*
X57485012Y-44299476D01*
X57295851Y-44182353D01*
X57295850Y-44182352D01*
X57295846Y-44182350D01*
X57295844Y-44182349D01*
X57088394Y-44101983D01*
X57088391Y-44101982D01*
X57088390Y-44101982D01*
X57033224Y-44091669D01*
X56869697Y-44061100D01*
X56869693Y-44061100D01*
X56647207Y-44061100D01*
X56647202Y-44061100D01*
X56428505Y-44101983D01*
X56221055Y-44182349D01*
X56221053Y-44182350D01*
X56031886Y-44299477D01*
X55867469Y-44449363D01*
X55733389Y-44626914D01*
X55634221Y-44826069D01*
X55631762Y-44834714D01*
X55592173Y-44900907D01*
X55524792Y-44938437D01*
X55447673Y-44937249D01*
X55381480Y-44897660D01*
X55345138Y-44834714D01*
X55342678Y-44826069D01*
X55243510Y-44626914D01*
X55109430Y-44449363D01*
X54945013Y-44299477D01*
X54945012Y-44299476D01*
X54755851Y-44182353D01*
X54755850Y-44182352D01*
X54755846Y-44182350D01*
X54755844Y-44182349D01*
X54548394Y-44101983D01*
X54548391Y-44101982D01*
X54548390Y-44101982D01*
X54493225Y-44091669D01*
X54329697Y-44061100D01*
X54329693Y-44061100D01*
X54107207Y-44061100D01*
X54107202Y-44061100D01*
X53888505Y-44101983D01*
X53681055Y-44182349D01*
X53681053Y-44182350D01*
X53491886Y-44299477D01*
X53327469Y-44449363D01*
X53193389Y-44626914D01*
X53094221Y-44826069D01*
X53091762Y-44834714D01*
X53052173Y-44900907D01*
X52984792Y-44938437D01*
X52907673Y-44937249D01*
X52841480Y-44897660D01*
X52805138Y-44834714D01*
X52802678Y-44826069D01*
X52703510Y-44626914D01*
X52569430Y-44449363D01*
X52405013Y-44299477D01*
X52405012Y-44299476D01*
X52215851Y-44182353D01*
X52215850Y-44182352D01*
X52215846Y-44182350D01*
X52215844Y-44182349D01*
X52008394Y-44101983D01*
X52008391Y-44101982D01*
X52008390Y-44101982D01*
X51953225Y-44091669D01*
X51789697Y-44061100D01*
X51789693Y-44061100D01*
X51567207Y-44061100D01*
X51567202Y-44061100D01*
X51348505Y-44101983D01*
X51141055Y-44182349D01*
X51141053Y-44182350D01*
X50951886Y-44299477D01*
X50787469Y-44449363D01*
X50653389Y-44626914D01*
X50554221Y-44826069D01*
X50551762Y-44834714D01*
X50512173Y-44900907D01*
X50444792Y-44938437D01*
X50367673Y-44937249D01*
X50301480Y-44897660D01*
X50265138Y-44834714D01*
X50262678Y-44826069D01*
X50163510Y-44626914D01*
X50029430Y-44449363D01*
X49865013Y-44299477D01*
X49865012Y-44299476D01*
X49675851Y-44182353D01*
X49675850Y-44182352D01*
X49675846Y-44182350D01*
X49675844Y-44182349D01*
X49468394Y-44101983D01*
X49468391Y-44101982D01*
X49468390Y-44101982D01*
X49413224Y-44091669D01*
X49249697Y-44061100D01*
X49249693Y-44061100D01*
X49027207Y-44061100D01*
X49027202Y-44061100D01*
X48808505Y-44101983D01*
X48601055Y-44182349D01*
X48601053Y-44182350D01*
X48411886Y-44299477D01*
X48247469Y-44449363D01*
X48113389Y-44626914D01*
X48014221Y-44826069D01*
X48011762Y-44834714D01*
X47972173Y-44900907D01*
X47904792Y-44938437D01*
X47827673Y-44937249D01*
X47761480Y-44897660D01*
X47725138Y-44834714D01*
X47722678Y-44826069D01*
X47623510Y-44626914D01*
X47489430Y-44449363D01*
X47325013Y-44299477D01*
X47325012Y-44299476D01*
X47135851Y-44182353D01*
X47135850Y-44182352D01*
X47135846Y-44182350D01*
X47135844Y-44182349D01*
X46928394Y-44101983D01*
X46928391Y-44101982D01*
X46928390Y-44101982D01*
X46873224Y-44091669D01*
X46709697Y-44061100D01*
X46709693Y-44061100D01*
X46487207Y-44061100D01*
X46487202Y-44061100D01*
X46268505Y-44101983D01*
X46061055Y-44182349D01*
X46061053Y-44182350D01*
X45871886Y-44299477D01*
X45707469Y-44449363D01*
X45573389Y-44626914D01*
X45474221Y-44826069D01*
X45471762Y-44834714D01*
X45432173Y-44900907D01*
X45364792Y-44938437D01*
X45287673Y-44937249D01*
X45221480Y-44897660D01*
X45185138Y-44834714D01*
X45182678Y-44826069D01*
X45083510Y-44626914D01*
X44949430Y-44449363D01*
X44785013Y-44299477D01*
X44785012Y-44299476D01*
X44595851Y-44182353D01*
X44595850Y-44182352D01*
X44595846Y-44182350D01*
X44595844Y-44182349D01*
X44388394Y-44101983D01*
X44388391Y-44101982D01*
X44388390Y-44101982D01*
X44333224Y-44091669D01*
X44169697Y-44061100D01*
X44169693Y-44061100D01*
X43947207Y-44061100D01*
X43947202Y-44061100D01*
X43728505Y-44101983D01*
X43521055Y-44182349D01*
X43521053Y-44182350D01*
X43331886Y-44299477D01*
X43167469Y-44449363D01*
X43033389Y-44626914D01*
X42934221Y-44826069D01*
X42931762Y-44834714D01*
X42892173Y-44900907D01*
X42824792Y-44938437D01*
X42747673Y-44937249D01*
X42681480Y-44897660D01*
X42645138Y-44834714D01*
X42642678Y-44826069D01*
X42543510Y-44626914D01*
X42409430Y-44449363D01*
X42245013Y-44299477D01*
X42245012Y-44299476D01*
X42055851Y-44182353D01*
X42055850Y-44182352D01*
X42055846Y-44182350D01*
X42055844Y-44182349D01*
X41848394Y-44101983D01*
X41848391Y-44101982D01*
X41848390Y-44101982D01*
X41793225Y-44091669D01*
X41629697Y-44061100D01*
X41629693Y-44061100D01*
X41407207Y-44061100D01*
X41407202Y-44061100D01*
X41188505Y-44101983D01*
X40981055Y-44182349D01*
X40981053Y-44182350D01*
X40791886Y-44299477D01*
X40627469Y-44449363D01*
X40493389Y-44626914D01*
X40461329Y-44691300D01*
X40410252Y-44749092D01*
X40337122Y-44773602D01*
X40261535Y-44758264D01*
X40203743Y-44707187D01*
X40179233Y-44634057D01*
X40178950Y-44624885D01*
X40178950Y-44378341D01*
X40178949Y-44378331D01*
X40169023Y-44310206D01*
X40169023Y-44310205D01*
X40117649Y-44205118D01*
X40034931Y-44122400D01*
X39929844Y-44071026D01*
X39861718Y-44061100D01*
X39861710Y-44061100D01*
X38095190Y-44061100D01*
X38095181Y-44061100D01*
X38027056Y-44071026D01*
X38027055Y-44071026D01*
X37921968Y-44122400D01*
X37839250Y-44205118D01*
X37787876Y-44310205D01*
X37787876Y-44310206D01*
X37777950Y-44378331D01*
X37777950Y-46144868D01*
X24983300Y-46144868D01*
X24983300Y-38608005D01*
X27151573Y-38608005D01*
X27170455Y-38872012D01*
X27170457Y-38872028D01*
X27226721Y-39130672D01*
X27226722Y-39130676D01*
X27226723Y-39130678D01*
X27319226Y-39378689D01*
X27350940Y-39436769D01*
X27446081Y-39611008D01*
X27535171Y-39730018D01*
X27604713Y-39822915D01*
X27791885Y-40010087D01*
X27918646Y-40104979D01*
X28003791Y-40168718D01*
X28119949Y-40232145D01*
X28236111Y-40295574D01*
X28484122Y-40388077D01*
X28742774Y-40444343D01*
X28742785Y-40444343D01*
X28742787Y-40444344D01*
X29006795Y-40463227D01*
X29006800Y-40463227D01*
X29006805Y-40463227D01*
X29270812Y-40444344D01*
X29270811Y-40444344D01*
X29270826Y-40444343D01*
X29529478Y-40388077D01*
X29777489Y-40295574D01*
X29986793Y-40181285D01*
X30009808Y-40168718D01*
X30046477Y-40141268D01*
X30221715Y-40010087D01*
X30408887Y-39822915D01*
X30567516Y-39611011D01*
X30608425Y-39536091D01*
X30661651Y-39480271D01*
X30735655Y-39458542D01*
X30739200Y-39458500D01*
X32345185Y-39458500D01*
X32419685Y-39478462D01*
X32469578Y-39528354D01*
X32469919Y-39528094D01*
X32471901Y-39530677D01*
X32474220Y-39532996D01*
X32475860Y-39535836D01*
X32533543Y-39611011D01*
X32572118Y-39661282D01*
X32697559Y-39757536D01*
X32843638Y-39818044D01*
X32843641Y-39818044D01*
X32843643Y-39818045D01*
X32843640Y-39818045D01*
X32908097Y-39826530D01*
X32961039Y-39833500D01*
X33839760Y-39833499D01*
X33957162Y-39818044D01*
X34103241Y-39757536D01*
X34228682Y-39661282D01*
X34324936Y-39535841D01*
X34385444Y-39389762D01*
X34388385Y-39367427D01*
X34400899Y-39272366D01*
X34400900Y-39272361D01*
X34400900Y-39272356D01*
X35499900Y-39272356D01*
X35506625Y-39323441D01*
X35515356Y-39389762D01*
X35527385Y-39418802D01*
X35575863Y-39535840D01*
X35633542Y-39611008D01*
X35672118Y-39661282D01*
X35797559Y-39757536D01*
X35943638Y-39818044D01*
X35943641Y-39818044D01*
X35943643Y-39818045D01*
X35943640Y-39818045D01*
X36008097Y-39826530D01*
X36061039Y-39833500D01*
X36939760Y-39833499D01*
X37057162Y-39818044D01*
X37203241Y-39757536D01*
X37328682Y-39661282D01*
X37424936Y-39535841D01*
X37485444Y-39389762D01*
X37485445Y-39389757D01*
X37492252Y-39338053D01*
X37521767Y-39266796D01*
X37582956Y-39219842D01*
X37639977Y-39208500D01*
X37987139Y-39208500D01*
X38061639Y-39228462D01*
X38116177Y-39283000D01*
X38136139Y-39357500D01*
X38126456Y-39410337D01*
X38124163Y-39416381D01*
X38105122Y-39573200D01*
X38124163Y-39730020D01*
X38180179Y-39877722D01*
X38180180Y-39877723D01*
X38269917Y-40007730D01*
X38388160Y-40112483D01*
X38499171Y-40170747D01*
X38535284Y-40197319D01*
X38639292Y-40301327D01*
X38645723Y-40308661D01*
X38666916Y-40336280D01*
X38666920Y-40336284D01*
X38726154Y-40381735D01*
X38772906Y-40417609D01*
X38792359Y-40432536D01*
X38792362Y-40432537D01*
X38792363Y-40432538D01*
X38792362Y-40432538D01*
X38938440Y-40493045D01*
X39095197Y-40513682D01*
X39095200Y-40513682D01*
X39095201Y-40513682D01*
X39103975Y-40512526D01*
X39129717Y-40509137D01*
X39139447Y-40508500D01*
X39732153Y-40508500D01*
X39741882Y-40509137D01*
X39767624Y-40512526D01*
X39776399Y-40513682D01*
X39776400Y-40513682D01*
X39776403Y-40513682D01*
X39933159Y-40493045D01*
X39933161Y-40493044D01*
X39933162Y-40493044D01*
X39956578Y-40483344D01*
X39989177Y-40469842D01*
X40046196Y-40458500D01*
X40134659Y-40458500D01*
X40134660Y-40458500D01*
X40134663Y-40458499D01*
X40134668Y-40458499D01*
X40202793Y-40448573D01*
X40202794Y-40448573D01*
X40307881Y-40397199D01*
X40307881Y-40397198D01*
X40307883Y-40397198D01*
X40390598Y-40314483D01*
X40407300Y-40280318D01*
X40441973Y-40209394D01*
X40441973Y-40209393D01*
X40451899Y-40141268D01*
X40451900Y-40141258D01*
X40451900Y-39674741D01*
X40451899Y-39674736D01*
X40441973Y-39606607D01*
X40441971Y-39606604D01*
X40441663Y-39604485D01*
X40441663Y-39561515D01*
X40441971Y-39559395D01*
X40441973Y-39559393D01*
X40451900Y-39491260D01*
X40451900Y-39024740D01*
X40441973Y-38956607D01*
X40441972Y-38956605D01*
X40441663Y-38954483D01*
X40441663Y-38911514D01*
X40441971Y-38909395D01*
X40441973Y-38909393D01*
X40451900Y-38841260D01*
X40451900Y-38374740D01*
X40447419Y-38343987D01*
X40441973Y-38306606D01*
X40441973Y-38306605D01*
X40390599Y-38201518D01*
X40307881Y-38118800D01*
X40202794Y-38067426D01*
X40134668Y-38057500D01*
X40134660Y-38057500D01*
X40046196Y-38057500D01*
X39989177Y-38046158D01*
X39933159Y-38022954D01*
X39815766Y-38007500D01*
X39815761Y-38007500D01*
X37639977Y-38007500D01*
X37565477Y-37987538D01*
X37510939Y-37933000D01*
X37492252Y-37877947D01*
X37485445Y-37826244D01*
X37485444Y-37826239D01*
X37424936Y-37680159D01*
X37328682Y-37554718D01*
X37328681Y-37554717D01*
X37203240Y-37458463D01*
X37123344Y-37425369D01*
X37057162Y-37397956D01*
X37057160Y-37397955D01*
X37057156Y-37397954D01*
X37057159Y-37397954D01*
X36939763Y-37382500D01*
X36061043Y-37382500D01*
X35943638Y-37397956D01*
X35797559Y-37458463D01*
X35672118Y-37554717D01*
X35672117Y-37554718D01*
X35575863Y-37680159D01*
X35515354Y-37826242D01*
X35499900Y-37943633D01*
X35499900Y-39272356D01*
X34400900Y-39272356D01*
X34400899Y-37943640D01*
X34385444Y-37826238D01*
X34324936Y-37680159D01*
X34228682Y-37554718D01*
X34103241Y-37458464D01*
X34103240Y-37458463D01*
X34023344Y-37425369D01*
X33957162Y-37397956D01*
X33957160Y-37397955D01*
X33957156Y-37397954D01*
X33957159Y-37397954D01*
X33839763Y-37382500D01*
X32961043Y-37382500D01*
X32843638Y-37397956D01*
X32697559Y-37458463D01*
X32572118Y-37554717D01*
X32572116Y-37554719D01*
X32475860Y-37680163D01*
X32474220Y-37683004D01*
X32471901Y-37685322D01*
X32469919Y-37687906D01*
X32469578Y-37687644D01*
X32419681Y-37737540D01*
X32345185Y-37757500D01*
X30739200Y-37757500D01*
X30664700Y-37737538D01*
X30610162Y-37683000D01*
X30608426Y-37679909D01*
X30567516Y-37604989D01*
X30529883Y-37554717D01*
X30408887Y-37393085D01*
X30221715Y-37205913D01*
X30137524Y-37142888D01*
X30009808Y-37047281D01*
X29835569Y-36952140D01*
X29777489Y-36920426D01*
X29529478Y-36827923D01*
X29529476Y-36827922D01*
X29529472Y-36827921D01*
X29270828Y-36771657D01*
X29270812Y-36771655D01*
X29006805Y-36752773D01*
X29006795Y-36752773D01*
X28742787Y-36771655D01*
X28742771Y-36771657D01*
X28484127Y-36827921D01*
X28484121Y-36827923D01*
X28484122Y-36827923D01*
X28236111Y-36920426D01*
X28236109Y-36920426D01*
X28236109Y-36920427D01*
X28003791Y-37047281D01*
X27791886Y-37205912D01*
X27791884Y-37205913D01*
X27604713Y-37393084D01*
X27604712Y-37393086D01*
X27446081Y-37604991D01*
X27362806Y-37757500D01*
X27319226Y-37837311D01*
X27279566Y-37943643D01*
X27226721Y-38085327D01*
X27170457Y-38343971D01*
X27170455Y-38343987D01*
X27151573Y-38607994D01*
X27151573Y-38608005D01*
X24983300Y-38608005D01*
X24983300Y-33832805D01*
X27151573Y-33832805D01*
X27170455Y-34096812D01*
X27170457Y-34096828D01*
X27226721Y-34355472D01*
X27226722Y-34355476D01*
X27226723Y-34355478D01*
X27319226Y-34603489D01*
X27319227Y-34603490D01*
X27446081Y-34835808D01*
X27541688Y-34963524D01*
X27604713Y-35047715D01*
X27791885Y-35234887D01*
X27913068Y-35325603D01*
X28003791Y-35393518D01*
X28100404Y-35446272D01*
X28236111Y-35520374D01*
X28484122Y-35612877D01*
X28742774Y-35669143D01*
X28742785Y-35669143D01*
X28742787Y-35669144D01*
X29006795Y-35688027D01*
X29006800Y-35688027D01*
X29006805Y-35688027D01*
X29270812Y-35669144D01*
X29270811Y-35669144D01*
X29270826Y-35669143D01*
X29529478Y-35612877D01*
X29777489Y-35520374D01*
X29975228Y-35412400D01*
X30009808Y-35393518D01*
X30009811Y-35393516D01*
X30221715Y-35234887D01*
X30408887Y-35047715D01*
X30567516Y-34835811D01*
X30694374Y-34603489D01*
X30786877Y-34355478D01*
X30843143Y-34096826D01*
X30862027Y-33832800D01*
X30843143Y-33568774D01*
X30786877Y-33310122D01*
X30694374Y-33062111D01*
X30630945Y-32945949D01*
X30567518Y-32829791D01*
X30503779Y-32744646D01*
X30408887Y-32617885D01*
X30221715Y-32430713D01*
X30018608Y-32278669D01*
X29970930Y-32218042D01*
X29958900Y-32159391D01*
X29958900Y-32137099D01*
X29958900Y-32113206D01*
X29978860Y-32038710D01*
X30002536Y-32007852D01*
X30964720Y-31045668D01*
X37777950Y-31045668D01*
X37787876Y-31113793D01*
X37787876Y-31113794D01*
X37839250Y-31218881D01*
X37921968Y-31301599D01*
X38027055Y-31352973D01*
X38095181Y-31362899D01*
X38095187Y-31362899D01*
X38095190Y-31362900D01*
X38095191Y-31362900D01*
X39861709Y-31362900D01*
X39861710Y-31362900D01*
X39861713Y-31362899D01*
X39861718Y-31362899D01*
X39929843Y-31352973D01*
X39929844Y-31352973D01*
X40034931Y-31301599D01*
X40034931Y-31301598D01*
X40034933Y-31301598D01*
X40117648Y-31218883D01*
X40117649Y-31218881D01*
X40169023Y-31113794D01*
X40169023Y-31113793D01*
X40178949Y-31045668D01*
X40178950Y-31045658D01*
X40178950Y-30799114D01*
X40198912Y-30724614D01*
X40253450Y-30670076D01*
X40327950Y-30650114D01*
X40402450Y-30670076D01*
X40456988Y-30724614D01*
X40461329Y-30732699D01*
X40493389Y-30797085D01*
X40493391Y-30797088D01*
X40493392Y-30797089D01*
X40627469Y-30974636D01*
X40791888Y-31124524D01*
X40981049Y-31241647D01*
X40981051Y-31241647D01*
X40981053Y-31241649D01*
X40981055Y-31241650D01*
X41170813Y-31315162D01*
X41188510Y-31322018D01*
X41407207Y-31362900D01*
X41407209Y-31362900D01*
X41629691Y-31362900D01*
X41629693Y-31362900D01*
X41848390Y-31322018D01*
X42013288Y-31258136D01*
X42055844Y-31241650D01*
X42055846Y-31241649D01*
X42055846Y-31241648D01*
X42055851Y-31241647D01*
X42245012Y-31124524D01*
X42409431Y-30974636D01*
X42543508Y-30797089D01*
X42642679Y-30597928D01*
X42645138Y-30589287D01*
X42684725Y-30523094D01*
X42752106Y-30485563D01*
X42829225Y-30486750D01*
X42895418Y-30526337D01*
X42931762Y-30589287D01*
X42934220Y-30597928D01*
X43033389Y-30797085D01*
X43033391Y-30797088D01*
X43033392Y-30797089D01*
X43167469Y-30974636D01*
X43331888Y-31124524D01*
X43521049Y-31241647D01*
X43521051Y-31241647D01*
X43521053Y-31241649D01*
X43521055Y-31241650D01*
X43710813Y-31315162D01*
X43728510Y-31322018D01*
X43947207Y-31362900D01*
X43947209Y-31362900D01*
X44169691Y-31362900D01*
X44169693Y-31362900D01*
X44388390Y-31322018D01*
X44553288Y-31258136D01*
X44595844Y-31241650D01*
X44595846Y-31241649D01*
X44595846Y-31241648D01*
X44595851Y-31241647D01*
X44785012Y-31124524D01*
X44949431Y-30974636D01*
X45083508Y-30797089D01*
X45182679Y-30597928D01*
X45185138Y-30589287D01*
X45224725Y-30523094D01*
X45292106Y-30485563D01*
X45369225Y-30486750D01*
X45435418Y-30526337D01*
X45471762Y-30589287D01*
X45474220Y-30597928D01*
X45573389Y-30797085D01*
X45573391Y-30797088D01*
X45573392Y-30797089D01*
X45707469Y-30974636D01*
X45871888Y-31124524D01*
X46052391Y-31236286D01*
X46105220Y-31292474D01*
X46122950Y-31362966D01*
X46122950Y-35134072D01*
X46102988Y-35208572D01*
X46079309Y-35239431D01*
X43229882Y-38088859D01*
X43163087Y-38127423D01*
X43124523Y-38132500D01*
X42270374Y-38132500D01*
X42204934Y-38117360D01*
X42102794Y-38067426D01*
X42034668Y-38057500D01*
X42034660Y-38057500D01*
X41318140Y-38057500D01*
X41318131Y-38057500D01*
X41250006Y-38067426D01*
X41250005Y-38067426D01*
X41144918Y-38118800D01*
X41062200Y-38201518D01*
X41010826Y-38306605D01*
X41010826Y-38306606D01*
X41000900Y-38374731D01*
X41000900Y-38841268D01*
X41010826Y-38909393D01*
X41010826Y-38909394D01*
X41062200Y-39014481D01*
X41144917Y-39097198D01*
X41144916Y-39097198D01*
X41200027Y-39124140D01*
X41258189Y-39174794D01*
X41283233Y-39247743D01*
X41268446Y-39323441D01*
X41217792Y-39381603D01*
X41200027Y-39391860D01*
X41144917Y-39418801D01*
X41062200Y-39501518D01*
X41010826Y-39606605D01*
X41010826Y-39606606D01*
X41000900Y-39674731D01*
X41000900Y-40141268D01*
X41010826Y-40209393D01*
X41010826Y-40209394D01*
X41062200Y-40314481D01*
X41062659Y-40314940D01*
X41063211Y-40315897D01*
X41069376Y-40324531D01*
X41068540Y-40325127D01*
X41101223Y-40381735D01*
X41106300Y-40420299D01*
X41106300Y-40514047D01*
X41096617Y-40566883D01*
X41070563Y-40635579D01*
X41051522Y-40792400D01*
X41070563Y-40949220D01*
X41126579Y-41096922D01*
X41126580Y-41096923D01*
X41216317Y-41226930D01*
X41334560Y-41331683D01*
X41474435Y-41405096D01*
X41627815Y-41442900D01*
X41627817Y-41442900D01*
X41785783Y-41442900D01*
X41785785Y-41442900D01*
X41939165Y-41405096D01*
X42079040Y-41331683D01*
X42197283Y-41226930D01*
X42287020Y-41096923D01*
X42343037Y-40949218D01*
X42362078Y-40792400D01*
X42343037Y-40635582D01*
X42316983Y-40566883D01*
X42307300Y-40514047D01*
X42307300Y-40314788D01*
X42322440Y-40249348D01*
X42341973Y-40209393D01*
X42351900Y-40141260D01*
X42351900Y-39674740D01*
X42351899Y-39674737D01*
X42351899Y-39674731D01*
X42341973Y-39606606D01*
X42341973Y-39606605D01*
X42290599Y-39501518D01*
X42207881Y-39418800D01*
X42152773Y-39391860D01*
X42094610Y-39341207D01*
X42069566Y-39268258D01*
X42084353Y-39192560D01*
X42135006Y-39134397D01*
X42152773Y-39124140D01*
X42204934Y-39098640D01*
X42270374Y-39083500D01*
X43316052Y-39083500D01*
X43347723Y-39086905D01*
X43348929Y-39087167D01*
X43397540Y-39083689D01*
X43402851Y-39083500D01*
X43417211Y-39083500D01*
X43431457Y-39081451D01*
X43436675Y-39080889D01*
X43485315Y-39077411D01*
X43486457Y-39076984D01*
X43517332Y-39069104D01*
X43518542Y-39068931D01*
X43562853Y-39048694D01*
X43567770Y-39046657D01*
X43580525Y-39041899D01*
X43613426Y-39029629D01*
X43614410Y-39028891D01*
X43641805Y-39012638D01*
X43642918Y-39012130D01*
X43679761Y-38980204D01*
X43683871Y-38976893D01*
X43695380Y-38968279D01*
X43705544Y-38958113D01*
X43709405Y-38954518D01*
X43746255Y-38922589D01*
X43746916Y-38921559D01*
X43766903Y-38896754D01*
X46887204Y-35776453D01*
X46912009Y-35756466D01*
X46913039Y-35755805D01*
X46944968Y-35718955D01*
X46948563Y-35715094D01*
X46958729Y-35704930D01*
X46967343Y-35693421D01*
X46970654Y-35689311D01*
X47002580Y-35652468D01*
X47003088Y-35651355D01*
X47019341Y-35623960D01*
X47020079Y-35622976D01*
X47037107Y-35577320D01*
X47039144Y-35572403D01*
X47042726Y-35564557D01*
X47059381Y-35528092D01*
X47059554Y-35526882D01*
X47067434Y-35496007D01*
X47067861Y-35494865D01*
X47071339Y-35446225D01*
X47071901Y-35441007D01*
X47073950Y-35426761D01*
X47073950Y-35412400D01*
X47074140Y-35407082D01*
X47075111Y-35393518D01*
X47077617Y-35358479D01*
X47077355Y-35357274D01*
X47073950Y-35325603D01*
X47073950Y-33568771D01*
X47073950Y-31362962D01*
X47093911Y-31288466D01*
X47144508Y-31236286D01*
X47325012Y-31124524D01*
X47489431Y-30974636D01*
X47623508Y-30797089D01*
X47722679Y-30597928D01*
X47725138Y-30589287D01*
X47764725Y-30523094D01*
X47832106Y-30485563D01*
X47909225Y-30486750D01*
X47975418Y-30526337D01*
X48011762Y-30589287D01*
X48014220Y-30597928D01*
X48113389Y-30797085D01*
X48113391Y-30797088D01*
X48113392Y-30797089D01*
X48247469Y-30974636D01*
X48411888Y-31124524D01*
X48601049Y-31241647D01*
X48601051Y-31241647D01*
X48601053Y-31241649D01*
X48601055Y-31241650D01*
X48790813Y-31315162D01*
X48808510Y-31322018D01*
X49027207Y-31362900D01*
X49027209Y-31362900D01*
X49249691Y-31362900D01*
X49249693Y-31362900D01*
X49468390Y-31322018D01*
X49633288Y-31258136D01*
X49675844Y-31241650D01*
X49675846Y-31241649D01*
X49675846Y-31241648D01*
X49675851Y-31241647D01*
X49865012Y-31124524D01*
X50029431Y-30974636D01*
X50163508Y-30797089D01*
X50262679Y-30597928D01*
X50265138Y-30589287D01*
X50304725Y-30523094D01*
X50372106Y-30485563D01*
X50449225Y-30486750D01*
X50515418Y-30526337D01*
X50551762Y-30589287D01*
X50554220Y-30597928D01*
X50653389Y-30797085D01*
X50653391Y-30797088D01*
X50653392Y-30797089D01*
X50787469Y-30974636D01*
X50951888Y-31124524D01*
X51141049Y-31241647D01*
X51141051Y-31241647D01*
X51141053Y-31241649D01*
X51141055Y-31241650D01*
X51330813Y-31315162D01*
X51348510Y-31322018D01*
X51567207Y-31362900D01*
X51567209Y-31362900D01*
X51789691Y-31362900D01*
X51789693Y-31362900D01*
X52008390Y-31322018D01*
X52173288Y-31258136D01*
X52215844Y-31241650D01*
X52215846Y-31241649D01*
X52215846Y-31241648D01*
X52215851Y-31241647D01*
X52405012Y-31124524D01*
X52569431Y-30974636D01*
X52703508Y-30797089D01*
X52802679Y-30597928D01*
X52863565Y-30383936D01*
X52884093Y-30162400D01*
X52863565Y-29940864D01*
X52802679Y-29726872D01*
X52776552Y-29674402D01*
X52703510Y-29527714D01*
X52569430Y-29350163D01*
X52405013Y-29200277D01*
X52405012Y-29200276D01*
X52215851Y-29083153D01*
X52215850Y-29083152D01*
X52215846Y-29083150D01*
X52215844Y-29083149D01*
X52008394Y-29002783D01*
X52008391Y-29002782D01*
X52008390Y-29002782D01*
X51953225Y-28992469D01*
X51789697Y-28961900D01*
X51789693Y-28961900D01*
X51567207Y-28961900D01*
X51567202Y-28961900D01*
X51348505Y-29002783D01*
X51141055Y-29083149D01*
X51141053Y-29083150D01*
X50951886Y-29200277D01*
X50787469Y-29350163D01*
X50653389Y-29527714D01*
X50554221Y-29726869D01*
X50551762Y-29735514D01*
X50512173Y-29801707D01*
X50444792Y-29839237D01*
X50367673Y-29838049D01*
X50301480Y-29798460D01*
X50265138Y-29735514D01*
X50262678Y-29726869D01*
X50163510Y-29527714D01*
X50029430Y-29350163D01*
X49865013Y-29200277D01*
X49865012Y-29200276D01*
X49675851Y-29083153D01*
X49675850Y-29083152D01*
X49675846Y-29083150D01*
X49675844Y-29083149D01*
X49468394Y-29002783D01*
X49468391Y-29002782D01*
X49468390Y-29002782D01*
X49413224Y-28992469D01*
X49249697Y-28961900D01*
X49249693Y-28961900D01*
X49027207Y-28961900D01*
X49027202Y-28961900D01*
X48808505Y-29002783D01*
X48601055Y-29083149D01*
X48601053Y-29083150D01*
X48411886Y-29200277D01*
X48247469Y-29350163D01*
X48113389Y-29527714D01*
X48014221Y-29726869D01*
X48011762Y-29735514D01*
X47972173Y-29801707D01*
X47904792Y-29839237D01*
X47827673Y-29838049D01*
X47761480Y-29798460D01*
X47725138Y-29735514D01*
X47722678Y-29726869D01*
X47623510Y-29527714D01*
X47489430Y-29350163D01*
X47325013Y-29200277D01*
X47325012Y-29200276D01*
X47135851Y-29083153D01*
X47135850Y-29083152D01*
X47135846Y-29083150D01*
X47135844Y-29083149D01*
X46928394Y-29002783D01*
X46928391Y-29002782D01*
X46928390Y-29002782D01*
X46873224Y-28992469D01*
X46709697Y-28961900D01*
X46709693Y-28961900D01*
X46487207Y-28961900D01*
X46487202Y-28961900D01*
X46268505Y-29002783D01*
X46061055Y-29083149D01*
X46061053Y-29083150D01*
X45871886Y-29200277D01*
X45707469Y-29350163D01*
X45573389Y-29527714D01*
X45474221Y-29726869D01*
X45471762Y-29735514D01*
X45432173Y-29801707D01*
X45364792Y-29839237D01*
X45287673Y-29838049D01*
X45221480Y-29798460D01*
X45185138Y-29735514D01*
X45182678Y-29726869D01*
X45083510Y-29527714D01*
X44949430Y-29350163D01*
X44785013Y-29200277D01*
X44785012Y-29200276D01*
X44595851Y-29083153D01*
X44595850Y-29083152D01*
X44595846Y-29083150D01*
X44595844Y-29083149D01*
X44388394Y-29002783D01*
X44388391Y-29002782D01*
X44388390Y-29002782D01*
X44333224Y-28992469D01*
X44169697Y-28961900D01*
X44169693Y-28961900D01*
X43947207Y-28961900D01*
X43947202Y-28961900D01*
X43728505Y-29002783D01*
X43521055Y-29083149D01*
X43521053Y-29083150D01*
X43331886Y-29200277D01*
X43167469Y-29350163D01*
X43033389Y-29527714D01*
X42934221Y-29726869D01*
X42931762Y-29735514D01*
X42892173Y-29801707D01*
X42824792Y-29839237D01*
X42747673Y-29838049D01*
X42681480Y-29798460D01*
X42645138Y-29735514D01*
X42642678Y-29726869D01*
X42543510Y-29527714D01*
X42409430Y-29350163D01*
X42245013Y-29200277D01*
X42245012Y-29200276D01*
X42055851Y-29083153D01*
X42055850Y-29083152D01*
X42055846Y-29083150D01*
X42055844Y-29083149D01*
X41848394Y-29002783D01*
X41848391Y-29002782D01*
X41848390Y-29002782D01*
X41793225Y-28992469D01*
X41629697Y-28961900D01*
X41629693Y-28961900D01*
X41407207Y-28961900D01*
X41407202Y-28961900D01*
X41188505Y-29002783D01*
X40981055Y-29083149D01*
X40981053Y-29083150D01*
X40791886Y-29200277D01*
X40627469Y-29350163D01*
X40493389Y-29527714D01*
X40461329Y-29592100D01*
X40410252Y-29649892D01*
X40337122Y-29674402D01*
X40261535Y-29659064D01*
X40203743Y-29607987D01*
X40179233Y-29534857D01*
X40178950Y-29525685D01*
X40178950Y-29279141D01*
X40178949Y-29279131D01*
X40169023Y-29211006D01*
X40169023Y-29211005D01*
X40117649Y-29105918D01*
X40034931Y-29023200D01*
X39929844Y-28971826D01*
X39861718Y-28961900D01*
X39861710Y-28961900D01*
X38095190Y-28961900D01*
X38095181Y-28961900D01*
X38027056Y-28971826D01*
X38027055Y-28971826D01*
X37921968Y-29023200D01*
X37839250Y-29105918D01*
X37787876Y-29211005D01*
X37787876Y-29211006D01*
X37777950Y-29279131D01*
X37777950Y-31045668D01*
X30964720Y-31045668D01*
X34700247Y-27310140D01*
X34767043Y-27271577D01*
X34805607Y-27266500D01*
X54297593Y-27266500D01*
X54372093Y-27286462D01*
X54402952Y-27310140D01*
X55864310Y-28771499D01*
X55902873Y-28838292D01*
X55907950Y-28876856D01*
X55907950Y-29248035D01*
X55887988Y-29322535D01*
X55869074Y-29348403D01*
X55867472Y-29350160D01*
X55733389Y-29527713D01*
X55634220Y-29726871D01*
X55573334Y-29940865D01*
X55573334Y-29940868D01*
X55552807Y-30162395D01*
X55552807Y-30162404D01*
X55573334Y-30383931D01*
X55573334Y-30383934D01*
X55634220Y-30597928D01*
X55733389Y-30797085D01*
X55733391Y-30797088D01*
X55733392Y-30797089D01*
X55867469Y-30974636D01*
X56031888Y-31124524D01*
X56221049Y-31241647D01*
X56221051Y-31241647D01*
X56221053Y-31241649D01*
X56221055Y-31241650D01*
X56410813Y-31315162D01*
X56428510Y-31322018D01*
X56647207Y-31362900D01*
X56647209Y-31362900D01*
X56869691Y-31362900D01*
X56869693Y-31362900D01*
X57088390Y-31322018D01*
X57253288Y-31258136D01*
X57295844Y-31241650D01*
X57295846Y-31241649D01*
X57295846Y-31241648D01*
X57295851Y-31241647D01*
X57485012Y-31124524D01*
X57649431Y-30974636D01*
X57783508Y-30797089D01*
X57882679Y-30597928D01*
X57943565Y-30383936D01*
X57964093Y-30162400D01*
X57943565Y-29940864D01*
X57882679Y-29726872D01*
X57882678Y-29726869D01*
X57783510Y-29527713D01*
X57738815Y-29468528D01*
X57649431Y-29350164D01*
X57649427Y-29350160D01*
X57647826Y-29348403D01*
X57647229Y-29347249D01*
X57645280Y-29344668D01*
X57645721Y-29344334D01*
X57612396Y-29279894D01*
X57608950Y-29248035D01*
X57608950Y-28500439D01*
X57609196Y-28494390D01*
X57609836Y-28486537D01*
X57613651Y-28439683D01*
X57602720Y-28359457D01*
X57593964Y-28278940D01*
X57593961Y-28278933D01*
X57592226Y-28271045D01*
X57592354Y-28271016D01*
X57590755Y-28264193D01*
X57590627Y-28264225D01*
X57588677Y-28256386D01*
X57588677Y-28256382D01*
X57560749Y-28180363D01*
X57534894Y-28103629D01*
X57534888Y-28103620D01*
X57531504Y-28096303D01*
X57531622Y-28096248D01*
X57528583Y-28089906D01*
X57528468Y-28089964D01*
X57524881Y-28082732D01*
X57481265Y-28014496D01*
X57439522Y-27945117D01*
X57434631Y-27938683D01*
X57434735Y-27938603D01*
X57430415Y-27933077D01*
X57430313Y-27933160D01*
X57425252Y-27926864D01*
X57425250Y-27926861D01*
X57367989Y-27869600D01*
X57361258Y-27862494D01*
X57312301Y-27810810D01*
X57306144Y-27805581D01*
X57306227Y-27805482D01*
X57292651Y-27794262D01*
X57015193Y-27516804D01*
X63715585Y-27516804D01*
X63734402Y-27719878D01*
X63790216Y-27916045D01*
X63790217Y-27916047D01*
X63790218Y-27916050D01*
X63824579Y-27985057D01*
X63881128Y-28098623D01*
X63939784Y-28176296D01*
X64004036Y-28261379D01*
X64111623Y-28359457D01*
X64154758Y-28398780D01*
X64154763Y-28398784D01*
X64328158Y-28506145D01*
X64328167Y-28506150D01*
X64338108Y-28510000D01*
X64359287Y-28518205D01*
X64362562Y-28519587D01*
X64362803Y-28519670D01*
X64362804Y-28519671D01*
X64363605Y-28519948D01*
X64365305Y-28520537D01*
X64367306Y-28521312D01*
X64518344Y-28579824D01*
X64550920Y-28585913D01*
X64554735Y-28586733D01*
X64560865Y-28588220D01*
X64560875Y-28588224D01*
X64569456Y-28589457D01*
X64571293Y-28589722D01*
X64655694Y-28605499D01*
X64718824Y-28617300D01*
X64718827Y-28617300D01*
X64752450Y-28617300D01*
X64761211Y-28617926D01*
X64761222Y-28617713D01*
X64765311Y-28617907D01*
X64766112Y-28618162D01*
X64782450Y-28617384D01*
X64785998Y-28617300D01*
X64922774Y-28617300D01*
X64922776Y-28617300D01*
X64959089Y-28610512D01*
X64966376Y-28611074D01*
X64991926Y-28607400D01*
X65031793Y-28605499D01*
X65066041Y-28590519D01*
X65123256Y-28579824D01*
X65156456Y-28566962D01*
X65165316Y-28566003D01*
X65168439Y-28564577D01*
X65195208Y-28555312D01*
X65232087Y-28546364D01*
X65261628Y-28526218D01*
X65313437Y-28506148D01*
X65343277Y-28487671D01*
X65354019Y-28484435D01*
X65360461Y-28479848D01*
X65385001Y-28465679D01*
X65417673Y-28450758D01*
X65441789Y-28426675D01*
X65486841Y-28398781D01*
X65512883Y-28375040D01*
X65524793Y-28368878D01*
X65532960Y-28360314D01*
X65554367Y-28341765D01*
X65581989Y-28322094D01*
X65600253Y-28295391D01*
X65637564Y-28261379D01*
X65659182Y-28232752D01*
X65671442Y-28223192D01*
X65679730Y-28210296D01*
X65697246Y-28188023D01*
X65719189Y-28165010D01*
X65731483Y-28137009D01*
X65760473Y-28098621D01*
X65776921Y-28065588D01*
X65788561Y-28052416D01*
X65795453Y-28035203D01*
X65808433Y-28010026D01*
X65824478Y-27985057D01*
X65830960Y-27957063D01*
X65851382Y-27916050D01*
X65861847Y-27879267D01*
X65871878Y-27862494D01*
X65875945Y-27841394D01*
X65883928Y-27814210D01*
X65894135Y-27788715D01*
X65895244Y-27761890D01*
X65907197Y-27719883D01*
X65914111Y-27645263D01*
X65915138Y-27638056D01*
X65925764Y-27582922D01*
X65922170Y-27558288D01*
X65926015Y-27516800D01*
X65922170Y-27475309D01*
X65926092Y-27452377D01*
X65915138Y-27395543D01*
X65914111Y-27388333D01*
X65907197Y-27313717D01*
X65895244Y-27271710D01*
X65894859Y-27246689D01*
X65883927Y-27219383D01*
X65875946Y-27192203D01*
X65872129Y-27172404D01*
X65861847Y-27154331D01*
X65851382Y-27117550D01*
X65851379Y-27117545D01*
X65851378Y-27117540D01*
X65830959Y-27076534D01*
X65825647Y-27050360D01*
X65808433Y-27023573D01*
X65795453Y-26998396D01*
X65788981Y-26982231D01*
X65776923Y-26968015D01*
X65760473Y-26934979D01*
X65731480Y-26896586D01*
X65720833Y-26870313D01*
X65697246Y-26845576D01*
X65679732Y-26823306D01*
X65671953Y-26811201D01*
X65659185Y-26800851D01*
X65637564Y-26772221D01*
X65600249Y-26738204D01*
X65584111Y-26713015D01*
X65554365Y-26691832D01*
X65532962Y-26673286D01*
X65525322Y-26665274D01*
X65512883Y-26658559D01*
X65486841Y-26634819D01*
X65486836Y-26634815D01*
X65441785Y-26606921D01*
X65420246Y-26584013D01*
X65384999Y-26567917D01*
X65360464Y-26553752D01*
X65354512Y-26549513D01*
X65343281Y-26545930D01*
X65313437Y-26527452D01*
X65313433Y-26527450D01*
X65313431Y-26527449D01*
X65261620Y-26507377D01*
X65235059Y-26487954D01*
X65195210Y-26478286D01*
X65168448Y-26469024D01*
X65165722Y-26467779D01*
X65156456Y-26466637D01*
X65123261Y-26453777D01*
X65123250Y-26453775D01*
X65112791Y-26451819D01*
X65066028Y-26443078D01*
X65035065Y-26428250D01*
X64991917Y-26426195D01*
X64966869Y-26422594D01*
X64959098Y-26423089D01*
X64922778Y-26416300D01*
X64922776Y-26416300D01*
X64785917Y-26416300D01*
X64782399Y-26416216D01*
X64768341Y-26415547D01*
X64768340Y-26415547D01*
X64766220Y-26415446D01*
X64765351Y-26415690D01*
X64761266Y-26415885D01*
X64761255Y-26415670D01*
X64752450Y-26416300D01*
X64718824Y-26416300D01*
X64718821Y-26416300D01*
X64718815Y-26416301D01*
X64571443Y-26443848D01*
X64560955Y-26445355D01*
X64554726Y-26446866D01*
X64550865Y-26447695D01*
X64518345Y-26453775D01*
X64365291Y-26513068D01*
X64362559Y-26514014D01*
X64359272Y-26515400D01*
X64328157Y-26527454D01*
X64154759Y-26634819D01*
X64154758Y-26634819D01*
X64004034Y-26772223D01*
X63881128Y-26934976D01*
X63790216Y-27117554D01*
X63746393Y-27271577D01*
X63735421Y-27310141D01*
X63734402Y-27313721D01*
X63715585Y-27516795D01*
X63715585Y-27516804D01*
X57015193Y-27516804D01*
X55339571Y-25841182D01*
X55335485Y-25836751D01*
X55299937Y-25794900D01*
X55299934Y-25794898D01*
X55299932Y-25794895D01*
X55235492Y-25745909D01*
X55207649Y-25723529D01*
X55172354Y-25695158D01*
X55172350Y-25695156D01*
X55172349Y-25695155D01*
X55165544Y-25690805D01*
X55165613Y-25690695D01*
X55159652Y-25686998D01*
X55159585Y-25687110D01*
X55152660Y-25682943D01*
X55079160Y-25648939D01*
X55072956Y-25645862D01*
X55006621Y-25612964D01*
X55006619Y-25612963D01*
X55006616Y-25612962D01*
X54999041Y-25610179D01*
X54999086Y-25610056D01*
X54992459Y-25607723D01*
X54992418Y-25607846D01*
X54984764Y-25605266D01*
X54905673Y-25587858D01*
X54827096Y-25568316D01*
X54819095Y-25567226D01*
X54819112Y-25567098D01*
X54812138Y-25566244D01*
X54812125Y-25566373D01*
X54804097Y-25565500D01*
X54804096Y-25565500D01*
X54723132Y-25565500D01*
X54642173Y-25563306D01*
X54634115Y-25563963D01*
X54634104Y-25563833D01*
X54616572Y-25565500D01*
X34429189Y-25565500D01*
X34423147Y-25565254D01*
X34409017Y-25564103D01*
X34368432Y-25560798D01*
X34296797Y-25570558D01*
X34288207Y-25571729D01*
X34247948Y-25576107D01*
X34207689Y-25580486D01*
X34199800Y-25582223D01*
X34199772Y-25582097D01*
X34192941Y-25583698D01*
X34192972Y-25583823D01*
X34185136Y-25585771D01*
X34140218Y-25602272D01*
X34109113Y-25613700D01*
X34089929Y-25620164D01*
X34032376Y-25639556D01*
X34025047Y-25642947D01*
X34024993Y-25642832D01*
X34018668Y-25645862D01*
X34018725Y-25645976D01*
X34011486Y-25649566D01*
X33943246Y-25693184D01*
X33873868Y-25734927D01*
X33867438Y-25739816D01*
X33867360Y-25739714D01*
X33861824Y-25744042D01*
X33861904Y-25744141D01*
X33855612Y-25749198D01*
X33798350Y-25806460D01*
X33739558Y-25862150D01*
X33734332Y-25868304D01*
X33734233Y-25868220D01*
X33723015Y-25881794D01*
X28533586Y-31071223D01*
X28529136Y-31075325D01*
X28487304Y-31110858D01*
X28487296Y-31110866D01*
X28438309Y-31175307D01*
X28387555Y-31238449D01*
X28383204Y-31245256D01*
X28383097Y-31245187D01*
X28379399Y-31251149D01*
X28379509Y-31251216D01*
X28375347Y-31258132D01*
X28361313Y-31288466D01*
X28345791Y-31322018D01*
X28341339Y-31331640D01*
X28305364Y-31404176D01*
X28302581Y-31411755D01*
X28302458Y-31411710D01*
X28300125Y-31418336D01*
X28300247Y-31418378D01*
X28297667Y-31426033D01*
X28280258Y-31505126D01*
X28260714Y-31583709D01*
X28259625Y-31591707D01*
X28259498Y-31591689D01*
X28258644Y-31598665D01*
X28258773Y-31598680D01*
X28257899Y-31606708D01*
X28257899Y-31687667D01*
X28255706Y-31768627D01*
X28256363Y-31776689D01*
X28256232Y-31776699D01*
X28257900Y-31794228D01*
X28257900Y-32044922D01*
X28237938Y-32119422D01*
X28183400Y-32173960D01*
X28180309Y-32175696D01*
X28003789Y-32272083D01*
X27791886Y-32430712D01*
X27791884Y-32430713D01*
X27604713Y-32617884D01*
X27604712Y-32617886D01*
X27446081Y-32829791D01*
X27319227Y-33062109D01*
X27226721Y-33310127D01*
X27170457Y-33568771D01*
X27170455Y-33568787D01*
X27151573Y-33832794D01*
X27151573Y-33832805D01*
X24983300Y-33832805D01*
X24983300Y-27485048D01*
X24983368Y-27482804D01*
X26377585Y-27482804D01*
X26396402Y-27685878D01*
X26396402Y-27685880D01*
X26396403Y-27685883D01*
X26406077Y-27719883D01*
X26452216Y-27882045D01*
X26452217Y-27882047D01*
X26452218Y-27882050D01*
X26486579Y-27951057D01*
X26543128Y-28064623D01*
X26597791Y-28137008D01*
X26666036Y-28227379D01*
X26769934Y-28322094D01*
X26816758Y-28364780D01*
X26816763Y-28364784D01*
X26990158Y-28472145D01*
X26990167Y-28472150D01*
X27000108Y-28476000D01*
X27021287Y-28484205D01*
X27024562Y-28485587D01*
X27024803Y-28485670D01*
X27024804Y-28485671D01*
X27025605Y-28485948D01*
X27027305Y-28486537D01*
X27041967Y-28492217D01*
X27180344Y-28545824D01*
X27212920Y-28551913D01*
X27216735Y-28552733D01*
X27222865Y-28554220D01*
X27222875Y-28554224D01*
X27231456Y-28555457D01*
X27233293Y-28555722D01*
X27293428Y-28566963D01*
X27380824Y-28583300D01*
X27380827Y-28583300D01*
X27414450Y-28583300D01*
X27423211Y-28583926D01*
X27423222Y-28583713D01*
X27427311Y-28583907D01*
X27428112Y-28584162D01*
X27444450Y-28583384D01*
X27447998Y-28583300D01*
X27584774Y-28583300D01*
X27584776Y-28583300D01*
X27621089Y-28576512D01*
X27628376Y-28577074D01*
X27653926Y-28573400D01*
X27693793Y-28571499D01*
X27728041Y-28556519D01*
X27785256Y-28545824D01*
X27818456Y-28532962D01*
X27827316Y-28532003D01*
X27830439Y-28530577D01*
X27857208Y-28521312D01*
X27894087Y-28512364D01*
X27923628Y-28492218D01*
X27975437Y-28472148D01*
X28005277Y-28453671D01*
X28016019Y-28450435D01*
X28022461Y-28445848D01*
X28047001Y-28431679D01*
X28079673Y-28416758D01*
X28103789Y-28392675D01*
X28148841Y-28364781D01*
X28174883Y-28341040D01*
X28186793Y-28334878D01*
X28194960Y-28326314D01*
X28216367Y-28307765D01*
X28243989Y-28288094D01*
X28262253Y-28261391D01*
X28299564Y-28227379D01*
X28321182Y-28198752D01*
X28333442Y-28189192D01*
X28341730Y-28176296D01*
X28359246Y-28154023D01*
X28381189Y-28131010D01*
X28393483Y-28103009D01*
X28422473Y-28064621D01*
X28438921Y-28031588D01*
X28450561Y-28018416D01*
X28457453Y-28001203D01*
X28470433Y-27976026D01*
X28486478Y-27951057D01*
X28492960Y-27923063D01*
X28513382Y-27882050D01*
X28523847Y-27845267D01*
X28533878Y-27828494D01*
X28537945Y-27807394D01*
X28545928Y-27780210D01*
X28556135Y-27754715D01*
X28557244Y-27727890D01*
X28569197Y-27685883D01*
X28576111Y-27611263D01*
X28577138Y-27604056D01*
X28587764Y-27548922D01*
X28584170Y-27524288D01*
X28588015Y-27482800D01*
X28587806Y-27480549D01*
X28585196Y-27452377D01*
X28584170Y-27441309D01*
X28588092Y-27418377D01*
X28577138Y-27361543D01*
X28576111Y-27354333D01*
X28569197Y-27279717D01*
X28557244Y-27237710D01*
X28556859Y-27212689D01*
X28545927Y-27185383D01*
X28537946Y-27158203D01*
X28534129Y-27138404D01*
X28523847Y-27120331D01*
X28513382Y-27083550D01*
X28513379Y-27083545D01*
X28513378Y-27083540D01*
X28492959Y-27042534D01*
X28487647Y-27016360D01*
X28470433Y-26989573D01*
X28457453Y-26964396D01*
X28450981Y-26948231D01*
X28438923Y-26934015D01*
X28422473Y-26900979D01*
X28402975Y-26875160D01*
X28393480Y-26862586D01*
X28382833Y-26836313D01*
X28359246Y-26811576D01*
X28341732Y-26789306D01*
X28333953Y-26777201D01*
X28321185Y-26766851D01*
X28299564Y-26738221D01*
X28299546Y-26738205D01*
X28262250Y-26704205D01*
X28246111Y-26679015D01*
X28216365Y-26657832D01*
X28194962Y-26639286D01*
X28187322Y-26631274D01*
X28174883Y-26624559D01*
X28148841Y-26600819D01*
X28148836Y-26600815D01*
X28103785Y-26572921D01*
X28082246Y-26550013D01*
X28046999Y-26533917D01*
X28022464Y-26519752D01*
X28016512Y-26515513D01*
X28005281Y-26511930D01*
X27975437Y-26493452D01*
X27975433Y-26493450D01*
X27975431Y-26493449D01*
X27923620Y-26473377D01*
X27897059Y-26453954D01*
X27857210Y-26444286D01*
X27830448Y-26435024D01*
X27827722Y-26433779D01*
X27818456Y-26432637D01*
X27785261Y-26419777D01*
X27785250Y-26419775D01*
X27774791Y-26417819D01*
X27728028Y-26409078D01*
X27697065Y-26394250D01*
X27653917Y-26392195D01*
X27628869Y-26388594D01*
X27621098Y-26389089D01*
X27584778Y-26382300D01*
X27584776Y-26382300D01*
X27447917Y-26382300D01*
X27444399Y-26382216D01*
X27430341Y-26381547D01*
X27430340Y-26381547D01*
X27428220Y-26381446D01*
X27427351Y-26381690D01*
X27423266Y-26381885D01*
X27423255Y-26381670D01*
X27414450Y-26382300D01*
X27380824Y-26382300D01*
X27380821Y-26382300D01*
X27380815Y-26382301D01*
X27233443Y-26409848D01*
X27222955Y-26411355D01*
X27216726Y-26412866D01*
X27212865Y-26413695D01*
X27180345Y-26419775D01*
X27027291Y-26479068D01*
X27024559Y-26480014D01*
X27021272Y-26481400D01*
X26990157Y-26493454D01*
X26816759Y-26600819D01*
X26816758Y-26600819D01*
X26666034Y-26738223D01*
X26543128Y-26900976D01*
X26452216Y-27083554D01*
X26396402Y-27279721D01*
X26377585Y-27482795D01*
X26377585Y-27482804D01*
X24983368Y-27482804D01*
X24983436Y-27480549D01*
X24983753Y-27475312D01*
X24989286Y-27383828D01*
X24989669Y-27378001D01*
X25002836Y-27177109D01*
X25003890Y-27168603D01*
X25028643Y-27033532D01*
X25061615Y-26867772D01*
X25063541Y-26860205D01*
X25106722Y-26721634D01*
X25158766Y-26568319D01*
X25161362Y-26561725D01*
X25222320Y-26426281D01*
X25292772Y-26283420D01*
X25295824Y-26277849D01*
X25372740Y-26150614D01*
X25374505Y-26147839D01*
X25461542Y-26017579D01*
X25464808Y-26013069D01*
X25556942Y-25895468D01*
X25559502Y-25892381D01*
X25662435Y-25775009D01*
X25665716Y-25771505D01*
X25771505Y-25665716D01*
X25775009Y-25662435D01*
X25892381Y-25559502D01*
X25895468Y-25556942D01*
X26013069Y-25464808D01*
X26017579Y-25461542D01*
X26147839Y-25374505D01*
X26150614Y-25372740D01*
X26277850Y-25295823D01*
X26283420Y-25292772D01*
X26426281Y-25222320D01*
X26561725Y-25161362D01*
X26568319Y-25158766D01*
X26721612Y-25106729D01*
X26860205Y-25063541D01*
X26867772Y-25061615D01*
X27033532Y-25028643D01*
X27168603Y-25003890D01*
X27177109Y-25002836D01*
X27383827Y-24989286D01*
X27480553Y-24983435D01*
X27485049Y-24983300D01*
X27544900Y-24983300D01*
X27544995Y-24983285D01*
X64818657Y-24975269D01*
X64822929Y-24975391D01*
G37*
%TD.AperFunction*%
%TD*%
M02*
