M48
; DRILL file {KiCad 7.0.7} date Sun Jan  7 22:57:26 2024
; FORMAT={-:-/ absolute / inch / decimal}
; #@! TF.CreationDate,2024-01-07T22:57:26-05:00
; #@! TF.GenerationSoftware,Kicad,Pcbnew,7.0.7
; #@! TF.FileFunction,Plated,1,2,PTH
FMAT,2
INCH
; #@! TA.AperFunction,Plated,PTH,ViaDrill
T1C0.0138
; #@! TA.AperFunction,Plated,PTH,ComponentDrill
T2C0.0394
; #@! TA.AperFunction,Plated,PTH,ComponentDrill
T3C0.0591
; #@! TA.AperFunction,Plated,PTH,ComponentDrill
T4C0.0630
%
G90
G05
T1
X1.414Y-1.988
X1.526Y-1.558
X1.584Y-2.274
X1.642Y-1.606
X1.762Y-1.986
X1.808Y-2.35
X1.9Y-2.196
X1.966Y-2.034
X2.01Y-2.034
X2.076Y-2.35
X2.124Y-1.97
X2.124Y-1.996
X2.342Y-2.35
T2
X1.1212Y-2.4535
X1.1212Y-2.6504
X1.5346Y-1.1875
X1.5346Y-1.782
X1.6346Y-1.1875
X1.6346Y-1.782
X1.692Y-2.4535
X1.692Y-2.552
X1.692Y-2.6504
X1.7346Y-1.1875
X1.7346Y-1.782
X1.8346Y-1.1875
X1.8346Y-1.782
X1.9346Y-1.1875
X1.9346Y-1.782
X2.0346Y-1.1875
X2.0346Y-1.782
X2.1346Y-1.1875
X2.1346Y-1.782
X2.2346Y-1.1875
X2.2346Y-1.782
T4
X1.142Y-1.332
X1.142Y-1.52
X1.142Y-1.71
T3
G00X1.4223Y-2.3315
M15
G01X1.3712Y-2.3315
M16
G05
G00X1.4223Y-2.7724
M15
G01X1.3712Y-2.7724
M16
G05
T0
M30
