%TF.GenerationSoftware,KiCad,Pcbnew,7.0.7*%
%TF.CreationDate,2024-01-07T22:57:32-05:00*%
%TF.ProjectId,ESP32-C3_hat,45535033-322d-4433-935f-6861742e6b69,rev?*%
%TF.SameCoordinates,Original*%
%TF.FileFunction,Soldermask,Bot*%
%TF.FilePolarity,Negative*%
%FSLAX46Y46*%
G04 Gerber Fmt 4.6, Leading zero omitted, Abs format (unit mm)*
G04 Created by KiCad (PCBNEW 7.0.7) date 2024-01-07 22:57:32*
%MOMM*%
%LPD*%
G01*
G04 APERTURE LIST*
G04 Aperture macros list*
%AMRoundRect*
0 Rectangle with rounded corners*
0 $1 Rounding radius*
0 $2 $3 $4 $5 $6 $7 $8 $9 X,Y pos of 4 corners*
0 Add a 4 corners polygon primitive as box body*
4,1,4,$2,$3,$4,$5,$6,$7,$8,$9,$2,$3,0*
0 Add four circle primitives for the rounded corners*
1,1,$1+$1,$2,$3*
1,1,$1+$1,$4,$5*
1,1,$1+$1,$6,$7*
1,1,$1+$1,$8,$9*
0 Add four rect primitives between the rounded corners*
20,1,$1+$1,$2,$3,$4,$5,0*
20,1,$1+$1,$4,$5,$6,$7,0*
20,1,$1+$1,$6,$7,$8,$9,0*
20,1,$1+$1,$8,$9,$2,$3,0*%
G04 Aperture macros list end*
%ADD10C,3.000000*%
%ADD11RoundRect,0.250000X-0.475000X0.337500X-0.475000X-0.337500X0.475000X-0.337500X0.475000X0.337500X0*%
%ADD12RoundRect,0.250000X0.400000X0.625000X-0.400000X0.625000X-0.400000X-0.625000X0.400000X-0.625000X0*%
%ADD13RoundRect,0.250000X-0.625000X0.400000X-0.625000X-0.400000X0.625000X-0.400000X0.625000X0.400000X0*%
%ADD14RoundRect,0.237500X-0.250000X-0.237500X0.250000X-0.237500X0.250000X0.237500X-0.250000X0.237500X0*%
%ADD15RoundRect,0.150000X0.587500X0.150000X-0.587500X0.150000X-0.587500X-0.150000X0.587500X-0.150000X0*%
%ADD16RoundRect,0.250000X-0.400000X-0.625000X0.400000X-0.625000X0.400000X0.625000X-0.400000X0.625000X0*%
%ADD17C,2.000000*%
%ADD18R,3.200000X2.000000*%
%ADD19R,2.000000X2.000000*%
%ADD20O,1.700000X1.700000*%
%ADD21R,1.700000X1.700000*%
G04 APERTURE END LIST*
D10*
%TO.C,J5*%
X29006800Y-43434000D03*
%TD*%
%TO.C,J4*%
X29006800Y-33832800D03*
%TD*%
%TO.C,J3*%
X29006800Y-38608000D03*
%TD*%
D11*
%TO.C,C2*%
X32715200Y-39645500D03*
X32715200Y-37570500D03*
%TD*%
D12*
%TO.C,R4*%
X57119600Y-59688800D03*
X54019600Y-59688800D03*
%TD*%
%TO.C,R6*%
X63856800Y-59690000D03*
X60756800Y-59690000D03*
%TD*%
D13*
%TO.C,R7*%
X42991650Y-56792000D03*
X42991650Y-59892000D03*
%TD*%
D14*
%TO.C,R9*%
X52893850Y-50341600D03*
X51068850Y-50341600D03*
%TD*%
D15*
%TO.C,Q1*%
X47106450Y-49376400D03*
X48981450Y-50326400D03*
X48981450Y-48426400D03*
%TD*%
D16*
%TO.C,R1*%
X44871250Y-48411200D03*
X41771250Y-48411200D03*
%TD*%
D12*
%TO.C,R8*%
X50293200Y-59690000D03*
X47193200Y-59690000D03*
%TD*%
D13*
%TO.C,R5*%
X39740450Y-67258000D03*
X39740450Y-64158000D03*
%TD*%
D17*
%TO.C,SW1*%
X28477250Y-67319600D03*
X28477250Y-62319600D03*
D18*
X35477250Y-59219600D03*
X35477250Y-70419600D03*
D17*
X42977250Y-64819600D03*
X42977250Y-62319600D03*
D19*
X42977250Y-67319600D03*
%TD*%
D13*
%TO.C,R2*%
X28513650Y-58928000D03*
X28513650Y-55828000D03*
%TD*%
D20*
%TO.C,J1*%
X56758450Y-30162400D03*
X54218450Y-30162400D03*
X51678450Y-30162400D03*
X49138450Y-30162400D03*
X46598450Y-30162400D03*
X44058450Y-30162400D03*
X41518450Y-30162400D03*
D21*
X38978450Y-30162400D03*
%TD*%
D20*
%TO.C,J2*%
X56758450Y-45261600D03*
X54218450Y-45261600D03*
X51678450Y-45261600D03*
X49138450Y-45261600D03*
X46598450Y-45261600D03*
X44058450Y-45261600D03*
X41518450Y-45261600D03*
D21*
X38978450Y-45261600D03*
%TD*%
M02*
