%TF.GenerationSoftware,KiCad,Pcbnew,7.0.7*%
%TF.CreationDate,2024-01-07T22:57:32-05:00*%
%TF.ProjectId,ESP32-C3_hat,45535033-322d-4433-935f-6861742e6b69,rev?*%
%TF.SameCoordinates,Original*%
%TF.FileFunction,Legend,Top*%
%TF.FilePolarity,Positive*%
%FSLAX46Y46*%
G04 Gerber Fmt 4.6, Leading zero omitted, Abs format (unit mm)*
G04 Created by KiCad (PCBNEW 7.0.7) date 2024-01-07 22:57:32*
%MOMM*%
%LPD*%
G01*
G04 APERTURE LIST*
%ADD10C,0.150000*%
%ADD11C,0.200000*%
%ADD12C,0.120000*%
%ADD13C,0.100000*%
G04 APERTURE END LIST*
D10*
X62789600Y-66089104D02*
X62837219Y-65946247D01*
X62837219Y-65946247D02*
X62837219Y-65708152D01*
X62837219Y-65708152D02*
X62789600Y-65612914D01*
X62789600Y-65612914D02*
X62741980Y-65565295D01*
X62741980Y-65565295D02*
X62646742Y-65517676D01*
X62646742Y-65517676D02*
X62551504Y-65517676D01*
X62551504Y-65517676D02*
X62456266Y-65565295D01*
X62456266Y-65565295D02*
X62408647Y-65612914D01*
X62408647Y-65612914D02*
X62361028Y-65708152D01*
X62361028Y-65708152D02*
X62313409Y-65898628D01*
X62313409Y-65898628D02*
X62265790Y-65993866D01*
X62265790Y-65993866D02*
X62218171Y-66041485D01*
X62218171Y-66041485D02*
X62122933Y-66089104D01*
X62122933Y-66089104D02*
X62027695Y-66089104D01*
X62027695Y-66089104D02*
X61932457Y-66041485D01*
X61932457Y-66041485D02*
X61884838Y-65993866D01*
X61884838Y-65993866D02*
X61837219Y-65898628D01*
X61837219Y-65898628D02*
X61837219Y-65660533D01*
X61837219Y-65660533D02*
X61884838Y-65517676D01*
X61837219Y-65184342D02*
X61837219Y-64565295D01*
X61837219Y-64565295D02*
X62218171Y-64898628D01*
X62218171Y-64898628D02*
X62218171Y-64755771D01*
X62218171Y-64755771D02*
X62265790Y-64660533D01*
X62265790Y-64660533D02*
X62313409Y-64612914D01*
X62313409Y-64612914D02*
X62408647Y-64565295D01*
X62408647Y-64565295D02*
X62646742Y-64565295D01*
X62646742Y-64565295D02*
X62741980Y-64612914D01*
X62741980Y-64612914D02*
X62789600Y-64660533D01*
X62789600Y-64660533D02*
X62837219Y-64755771D01*
X62837219Y-64755771D02*
X62837219Y-65041485D01*
X62837219Y-65041485D02*
X62789600Y-65136723D01*
X62789600Y-65136723D02*
X62741980Y-65184342D01*
X56053600Y-66141104D02*
X56101219Y-65998247D01*
X56101219Y-65998247D02*
X56101219Y-65760152D01*
X56101219Y-65760152D02*
X56053600Y-65664914D01*
X56053600Y-65664914D02*
X56005980Y-65617295D01*
X56005980Y-65617295D02*
X55910742Y-65569676D01*
X55910742Y-65569676D02*
X55815504Y-65569676D01*
X55815504Y-65569676D02*
X55720266Y-65617295D01*
X55720266Y-65617295D02*
X55672647Y-65664914D01*
X55672647Y-65664914D02*
X55625028Y-65760152D01*
X55625028Y-65760152D02*
X55577409Y-65950628D01*
X55577409Y-65950628D02*
X55529790Y-66045866D01*
X55529790Y-66045866D02*
X55482171Y-66093485D01*
X55482171Y-66093485D02*
X55386933Y-66141104D01*
X55386933Y-66141104D02*
X55291695Y-66141104D01*
X55291695Y-66141104D02*
X55196457Y-66093485D01*
X55196457Y-66093485D02*
X55148838Y-66045866D01*
X55148838Y-66045866D02*
X55101219Y-65950628D01*
X55101219Y-65950628D02*
X55101219Y-65712533D01*
X55101219Y-65712533D02*
X55148838Y-65569676D01*
X55196457Y-65188723D02*
X55148838Y-65141104D01*
X55148838Y-65141104D02*
X55101219Y-65045866D01*
X55101219Y-65045866D02*
X55101219Y-64807771D01*
X55101219Y-64807771D02*
X55148838Y-64712533D01*
X55148838Y-64712533D02*
X55196457Y-64664914D01*
X55196457Y-64664914D02*
X55291695Y-64617295D01*
X55291695Y-64617295D02*
X55386933Y-64617295D01*
X55386933Y-64617295D02*
X55529790Y-64664914D01*
X55529790Y-64664914D02*
X56101219Y-65236342D01*
X56101219Y-65236342D02*
X56101219Y-64617295D01*
D11*
X43161214Y-55564419D02*
X42589786Y-55564419D01*
X42875500Y-55564419D02*
X42875500Y-54564419D01*
X42875500Y-54564419D02*
X42780262Y-54707276D01*
X42780262Y-54707276D02*
X42685024Y-54802514D01*
X42685024Y-54802514D02*
X42589786Y-54850133D01*
X43542167Y-54659657D02*
X43589786Y-54612038D01*
X43589786Y-54612038D02*
X43685024Y-54564419D01*
X43685024Y-54564419D02*
X43923119Y-54564419D01*
X43923119Y-54564419D02*
X44018357Y-54612038D01*
X44018357Y-54612038D02*
X44065976Y-54659657D01*
X44065976Y-54659657D02*
X44113595Y-54754895D01*
X44113595Y-54754895D02*
X44113595Y-54850133D01*
X44113595Y-54850133D02*
X44065976Y-54992990D01*
X44065976Y-54992990D02*
X43494548Y-55564419D01*
X43494548Y-55564419D02*
X44113595Y-55564419D01*
X53713595Y-55589419D02*
X53142167Y-55589419D01*
X53427881Y-55589419D02*
X53427881Y-54589419D01*
X53427881Y-54589419D02*
X53332643Y-54732276D01*
X53332643Y-54732276D02*
X53237405Y-54827514D01*
X53237405Y-54827514D02*
X53142167Y-54875133D01*
D10*
X49205200Y-66070704D02*
X49252819Y-65927847D01*
X49252819Y-65927847D02*
X49252819Y-65689752D01*
X49252819Y-65689752D02*
X49205200Y-65594514D01*
X49205200Y-65594514D02*
X49157580Y-65546895D01*
X49157580Y-65546895D02*
X49062342Y-65499276D01*
X49062342Y-65499276D02*
X48967104Y-65499276D01*
X48967104Y-65499276D02*
X48871866Y-65546895D01*
X48871866Y-65546895D02*
X48824247Y-65594514D01*
X48824247Y-65594514D02*
X48776628Y-65689752D01*
X48776628Y-65689752D02*
X48729009Y-65880228D01*
X48729009Y-65880228D02*
X48681390Y-65975466D01*
X48681390Y-65975466D02*
X48633771Y-66023085D01*
X48633771Y-66023085D02*
X48538533Y-66070704D01*
X48538533Y-66070704D02*
X48443295Y-66070704D01*
X48443295Y-66070704D02*
X48348057Y-66023085D01*
X48348057Y-66023085D02*
X48300438Y-65975466D01*
X48300438Y-65975466D02*
X48252819Y-65880228D01*
X48252819Y-65880228D02*
X48252819Y-65642133D01*
X48252819Y-65642133D02*
X48300438Y-65499276D01*
X49252819Y-64546895D02*
X49252819Y-65118323D01*
X49252819Y-64832609D02*
X48252819Y-64832609D01*
X48252819Y-64832609D02*
X48395676Y-64927847D01*
X48395676Y-64927847D02*
X48490914Y-65023085D01*
X48490914Y-65023085D02*
X48538533Y-65118323D01*
X38494317Y-70143600D02*
X38637174Y-70191219D01*
X38637174Y-70191219D02*
X38875269Y-70191219D01*
X38875269Y-70191219D02*
X38970507Y-70143600D01*
X38970507Y-70143600D02*
X39018126Y-70095980D01*
X39018126Y-70095980D02*
X39065745Y-70000742D01*
X39065745Y-70000742D02*
X39065745Y-69905504D01*
X39065745Y-69905504D02*
X39018126Y-69810266D01*
X39018126Y-69810266D02*
X38970507Y-69762647D01*
X38970507Y-69762647D02*
X38875269Y-69715028D01*
X38875269Y-69715028D02*
X38684793Y-69667409D01*
X38684793Y-69667409D02*
X38589555Y-69619790D01*
X38589555Y-69619790D02*
X38541936Y-69572171D01*
X38541936Y-69572171D02*
X38494317Y-69476933D01*
X38494317Y-69476933D02*
X38494317Y-69381695D01*
X38494317Y-69381695D02*
X38541936Y-69286457D01*
X38541936Y-69286457D02*
X38589555Y-69238838D01*
X38589555Y-69238838D02*
X38684793Y-69191219D01*
X38684793Y-69191219D02*
X38922888Y-69191219D01*
X38922888Y-69191219D02*
X39065745Y-69238838D01*
X39399079Y-69191219D02*
X39637174Y-70191219D01*
X39637174Y-70191219D02*
X39827650Y-69476933D01*
X39827650Y-69476933D02*
X40018126Y-70191219D01*
X40018126Y-70191219D02*
X40256222Y-69191219D01*
X41160983Y-70191219D02*
X40589555Y-70191219D01*
X40875269Y-70191219D02*
X40875269Y-69191219D01*
X40875269Y-69191219D02*
X40780031Y-69334076D01*
X40780031Y-69334076D02*
X40684793Y-69429314D01*
X40684793Y-69429314D02*
X40589555Y-69476933D01*
D12*
%TO.C,U1*%
X40026400Y-40418000D02*
X41926400Y-40418000D01*
X41426400Y-38098000D02*
X40026400Y-38098000D01*
%TO.C,S3*%
X64682400Y-67027200D02*
X65132400Y-66577200D01*
X65132400Y-66577200D02*
X65132400Y-64077200D01*
X64682400Y-63627200D02*
X65132400Y-64077200D01*
X61382400Y-62577200D02*
X63382400Y-62577200D01*
X61382400Y-68077200D02*
X63382400Y-68077200D01*
X60082400Y-67027200D02*
X59632400Y-66577200D01*
X59632400Y-66577200D02*
X59632400Y-64077200D01*
X60082400Y-63627200D02*
X59632400Y-64077200D01*
%TO.C,S2*%
X57895600Y-67028400D02*
X58345600Y-66578400D01*
X58345600Y-66578400D02*
X58345600Y-64078400D01*
X57895600Y-63628400D02*
X58345600Y-64078400D01*
X54595600Y-62578400D02*
X56595600Y-62578400D01*
X54595600Y-68078400D02*
X56595600Y-68078400D01*
X53295600Y-67028400D02*
X52845600Y-66578400D01*
X52845600Y-66578400D02*
X52845600Y-64078400D01*
X53295600Y-63628400D02*
X52845600Y-64078400D01*
%TO.C,J5*%
X30706800Y-43434000D02*
G75*
G03*
X30706800Y-43434000I-1700000J0D01*
G01*
%TO.C,J4*%
X30706800Y-33832800D02*
G75*
G03*
X30706800Y-33832800I-1700000J0D01*
G01*
%TO.C,J3*%
X30706800Y-38608000D02*
G75*
G03*
X30706800Y-38608000I-1700000J0D01*
G01*
%TO.C,C4*%
X48056748Y-60600000D02*
X49479252Y-60600000D01*
X48056748Y-58780000D02*
X49479252Y-58780000D01*
%TO.C,C3*%
X54884348Y-60599600D02*
X56306852Y-60599600D01*
X54884348Y-58779600D02*
X56306852Y-58779600D01*
%TO.C,R3*%
X35677464Y-37698000D02*
X34223336Y-37698000D01*
X35677464Y-39518000D02*
X34223336Y-39518000D01*
D13*
%TO.C,D1*%
X44335650Y-52247200D02*
X52935650Y-52247200D01*
X52935650Y-52247200D02*
X52935650Y-56372200D01*
X52935650Y-56372200D02*
X44335650Y-56372200D01*
X44335650Y-56372200D02*
X44335650Y-52247200D01*
X32635650Y-27047200D02*
X59135650Y-27047200D01*
X59135650Y-27047200D02*
X59135650Y-56547200D01*
X59135650Y-56547200D02*
X32635650Y-56547200D01*
X32635650Y-56547200D02*
X32635650Y-27047200D01*
D12*
%TO.C,C1*%
X61640748Y-58778800D02*
X63063252Y-58778800D01*
X61640748Y-60598800D02*
X63063252Y-60598800D01*
%TO.C,S1*%
X47798400Y-68079200D02*
X49798400Y-68079200D01*
X46498400Y-67029200D02*
X46048400Y-66579200D01*
X51098400Y-67029200D02*
X51548400Y-66579200D01*
X46048400Y-66579200D02*
X46048400Y-64079200D01*
X51548400Y-66579200D02*
X51548400Y-64079200D01*
X46498400Y-63629200D02*
X46048400Y-64079200D01*
X51098400Y-63629200D02*
X51548400Y-64079200D01*
X47798400Y-62579200D02*
X49798400Y-62579200D01*
%TO.C,SW1*%
X38477250Y-64819600D02*
G75*
G03*
X38477250Y-64819600I-3000000J0D01*
G01*
X29377250Y-58919600D02*
X33477250Y-58919600D01*
X29377250Y-61319600D02*
X29377250Y-58919600D01*
X29377250Y-66119600D02*
X29377250Y-63519600D01*
X29377250Y-70719600D02*
X29377250Y-68319600D01*
X33477250Y-70719600D02*
X29377250Y-70719600D01*
X35477250Y-65319600D02*
X35477250Y-64319600D01*
X35977250Y-64819600D02*
X34977250Y-64819600D01*
X37477250Y-58919600D02*
X41577250Y-58919600D01*
X37477250Y-70719600D02*
X41577250Y-70719600D01*
X41577250Y-70719600D02*
X41577250Y-58919600D01*
X42677250Y-68919600D02*
X42977250Y-68619600D01*
X42977250Y-68619600D02*
X43277250Y-68919600D01*
X43277250Y-68919600D02*
X42677250Y-68919600D01*
%TD*%
M02*
