%TF.GenerationSoftware,KiCad,Pcbnew,7.0.7*%
%TF.CreationDate,2024-01-07T22:57:32-05:00*%
%TF.ProjectId,ESP32-C3_hat,45535033-322d-4433-935f-6861742e6b69,rev?*%
%TF.SameCoordinates,Original*%
%TF.FileFunction,Legend,Bot*%
%TF.FilePolarity,Positive*%
%FSLAX46Y46*%
G04 Gerber Fmt 4.6, Leading zero omitted, Abs format (unit mm)*
G04 Created by KiCad (PCBNEW 7.0.7) date 2024-01-07 22:57:32*
%MOMM*%
%LPD*%
G01*
G04 APERTURE LIST*
%ADD10C,0.120000*%
G04 APERTURE END LIST*
D10*
%TO.C,C2*%
X33450200Y-38346748D02*
X33450200Y-38869252D01*
X31980200Y-38346748D02*
X31980200Y-38869252D01*
%TO.C,R4*%
X56296664Y-58778800D02*
X54842536Y-58778800D01*
X56296664Y-60598800D02*
X54842536Y-60598800D01*
%TO.C,R6*%
X63033864Y-58780000D02*
X61579736Y-58780000D01*
X63033864Y-60600000D02*
X61579736Y-60600000D01*
%TO.C,R7*%
X42081650Y-57614936D02*
X42081650Y-59069064D01*
X43901650Y-57614936D02*
X43901650Y-59069064D01*
%TO.C,R9*%
X51726626Y-49819100D02*
X52236074Y-49819100D01*
X51726626Y-50864100D02*
X52236074Y-50864100D01*
%TO.C,Q1*%
X48043950Y-50936400D02*
X47393950Y-50936400D01*
X48043950Y-50936400D02*
X48693950Y-50936400D01*
X48043950Y-47816400D02*
X47393950Y-47816400D01*
X48043950Y-47816400D02*
X49718950Y-47816400D01*
%TO.C,R1*%
X42594186Y-47501200D02*
X44048314Y-47501200D01*
X42594186Y-49321200D02*
X44048314Y-49321200D01*
%TO.C,R8*%
X49470264Y-58780000D02*
X48016136Y-58780000D01*
X49470264Y-60600000D02*
X48016136Y-60600000D01*
%TO.C,R5*%
X40650450Y-64980936D02*
X40650450Y-66435064D01*
X38830450Y-64980936D02*
X38830450Y-66435064D01*
%TO.C,R2*%
X29423650Y-56650936D02*
X29423650Y-58105064D01*
X27603650Y-56650936D02*
X27603650Y-58105064D01*
%TO.C,J1*%
X40248450Y-31492400D02*
X58088450Y-31492400D01*
X37648450Y-28832400D02*
X37648450Y-30162400D01*
X38978450Y-28832400D02*
X37648450Y-28832400D01*
X40248450Y-28832400D02*
X40248450Y-31492400D01*
X40248450Y-28832400D02*
X58088450Y-28832400D01*
X58088450Y-28832400D02*
X58088450Y-31492400D01*
%TO.C,J2*%
X40248450Y-46591600D02*
X58088450Y-46591600D01*
X37648450Y-43931600D02*
X37648450Y-45261600D01*
X38978450Y-43931600D02*
X37648450Y-43931600D01*
X40248450Y-43931600D02*
X40248450Y-46591600D01*
X40248450Y-43931600D02*
X58088450Y-43931600D01*
X58088450Y-43931600D02*
X58088450Y-46591600D01*
%TD*%
M02*
